<?xml version="1.0" encoding="utf-8" standalone="no"?>
<!DOCTYPE svg PUBLIC "-//W3C//DTD SVG 1.1//EN"
  "http://www.w3.org/Graphics/SVG/1.1/DTD/svg11.dtd">
<svg xmlns:xlink="http://www.w3.org/1999/xlink" width="648pt" height="331.2pt" viewBox="0 0 648 331.2" xmlns="http://www.w3.org/2000/svg" version="1.1">
 <metadata>
  <rdf:RDF xmlns:dc="http://purl.org/dc/elements/1.1/" xmlns:cc="http://creativecommons.org/ns#" xmlns:rdf="http://www.w3.org/1999/02/22-rdf-syntax-ns#">
   <cc:Work>
    <dc:type rdf:resource="http://purl.org/dc/dcmitype/StillImage"/>
    <dc:date>2026-10-01T23:47:18.610349</dc:date>
    <dc:format>image/svg+xml</dc:format>
    <dc:creator>
     <cc:Agent>
      <dc:title>Matplotlib v3.10.9, https://matplotlib.org/</dc:title>
     </cc:Agent>
    </dc:creator>
   </cc:Work>
  </rdf:RDF>
 </metadata>
 <defs>
  <style type="text/css">*{stroke-linejoin: round; stroke-linecap: butt}</style>
 </defs>
 <g id="figure_1">
  <g id="patch_1">
   <path d="M 0 331.2 
L 648 331.2 
L 648 0 
L 0 0 
z
" style="fill: #ffffff"/>
  </g>
  <g id="axes_1">
   <g id="patch_2">
    <path d="M 46.033052 296.240385 
L 634.99976 296.240385 
L 634.99976 18.59274 
L 46.033052 18.59274 
z
" style="fill: #ffffff"/>
   </g>
   <g id="patch_3">
    <path d="M 46.033052 296.240385 
L 116.851162 296.240385 
L 116.851162 18.59274 
L 46.033052 18.59274 
z
" clip-path="url(#p84419d9e43)" style="fill: #2563a6; opacity: 0.08; stroke: #2563a6; stroke-linejoin: miter"/>
   </g>
   <g id="matplotlib.axis_1">
    <g id="xtick_1">
     <g id="line2d_1">
      <path d="M 46.033052 296.240385 
L 46.033052 18.59274 
" clip-path="url(#p84419d9e43)" style="fill: none; stroke: #b0b0b0; stroke-opacity: 0.2; stroke-width: 0.8; stroke-linecap: square"/>
     </g>
     <g id="line2d_2">
      <defs>
       <path id="m5fb5a03534" d="M 0 0 
L 0 3.5 
" style="stroke: #000000; stroke-width: 0.8"/>
      </defs>
      <g>
       <use xlink:href="#m5fb5a03534" x="46.033052" y="296.240385" style="stroke: #000000; stroke-width: 0.8"/>
      </g>
     </g>
     <g id="text_1">
      <!-- 0.0 -->
      <g transform="translate(38.965084 311.234135) scale(0.1 -0.1)">
       <defs>
        <path id="MicrosoftYaHei-30" d="M 284 2325 
Q 284 3606 709 4264 
Q 1134 4922 1941 4922 
Q 3478 4922 3478 2441 
Q 3478 1216 3045 567 
Q 2613 -81 1831 -81 
Q 1094 -81 689 534 
Q 284 1150 284 2325 
z
M 909 2353 
Q 909 425 1888 425 
Q 2850 425 2850 2384 
Q 2850 4413 1906 4413 
Q 909 4413 909 2353 
z
" transform="scale(0.015625)"/>
        <path id="MicrosoftYaHei-2e" d="M 372 322 
Q 372 491 487 606 
Q 603 722 775 722 
Q 950 722 1065 605 
Q 1181 488 1181 322 
Q 1181 159 1065 42 
Q 950 -75 772 -75 
Q 600 -75 486 42 
Q 372 159 372 322 
z
" transform="scale(0.015625)"/>
       </defs>
       <use xlink:href="#MicrosoftYaHei-30"/>
       <use xlink:href="#MicrosoftYaHei-2e" transform="translate(58.642578 0)"/>
       <use xlink:href="#MicrosoftYaHei-30" transform="translate(82.714844 0)"/>
      </g>
     </g>
    </g>
    <g id="xtick_2">
     <g id="line2d_3">
      <path d="M 119.653891 296.240385 
L 119.653891 18.59274 
" clip-path="url(#p84419d9e43)" style="fill: none; stroke: #b0b0b0; stroke-opacity: 0.2; stroke-width: 0.8; stroke-linecap: square"/>
     </g>
     <g id="line2d_4">
      <g>
       <use xlink:href="#m5fb5a03534" x="119.653891" y="296.240385" style="stroke: #000000; stroke-width: 0.8"/>
      </g>
     </g>
     <g id="text_2">
      <!-- 2.5 -->
      <g transform="translate(112.585922 311.234135) scale(0.1 -0.1)">
       <defs>
        <path id="MicrosoftYaHei-32" d="M 2666 3572 
Q 2666 3963 2419 4186 
Q 2172 4409 1747 4409 
Q 1447 4409 1140 4256 
Q 834 4103 569 3819 
L 569 4413 
Q 806 4659 1107 4790 
Q 1409 4922 1816 4922 
Q 2472 4922 2872 4570 
Q 3272 4219 3272 3619 
Q 3272 3084 3026 2693 
Q 2781 2303 2188 1894 
Q 1581 1475 1376 1294 
Q 1172 1113 1090 947 
Q 1009 781 1009 544 
L 3416 544 
L 3416 0 
L 372 0 
L 372 241 
Q 372 659 486 951 
Q 600 1244 862 1520 
Q 1125 1797 1681 2184 
Q 2250 2584 2458 2886 
Q 2666 3188 2666 3572 
z
" transform="scale(0.015625)"/>
        <path id="MicrosoftYaHei-35" d="M 3294 1494 
Q 3294 784 2823 350 
Q 2353 -84 1559 -84 
Q 878 -84 544 119 
L 544 744 
Q 1034 425 1544 425 
Q 2050 425 2361 704 
Q 2672 984 2672 1447 
Q 2672 1909 2348 2167 
Q 2025 2425 1434 2425 
Q 978 2425 613 2384 
L 791 4841 
L 3053 4841 
L 3053 4303 
L 1306 4303 
L 1206 2931 
L 1647 2950 
Q 2416 2950 2855 2567 
Q 3294 2184 3294 1494 
z
" transform="scale(0.015625)"/>
       </defs>
       <use xlink:href="#MicrosoftYaHei-32"/>
       <use xlink:href="#MicrosoftYaHei-2e" transform="translate(58.642578 0)"/>
       <use xlink:href="#MicrosoftYaHei-35" transform="translate(82.714844 0)"/>
      </g>
     </g>
    </g>
    <g id="xtick_3">
     <g id="line2d_5">
      <path d="M 193.274729 296.240385 
L 193.274729 18.59274 
" clip-path="url(#p84419d9e43)" style="fill: none; stroke: #b0b0b0; stroke-opacity: 0.2; stroke-width: 0.8; stroke-linecap: square"/>
     </g>
     <g id="line2d_6">
      <g>
       <use xlink:href="#m5fb5a03534" x="193.274729" y="296.240385" style="stroke: #000000; stroke-width: 0.8"/>
      </g>
     </g>
     <g id="text_3">
      <!-- 5.0 -->
      <g transform="translate(186.206761 311.234135) scale(0.1 -0.1)">
       <use xlink:href="#MicrosoftYaHei-35"/>
       <use xlink:href="#MicrosoftYaHei-2e" transform="translate(58.642578 0)"/>
       <use xlink:href="#MicrosoftYaHei-30" transform="translate(82.714844 0)"/>
      </g>
     </g>
    </g>
    <g id="xtick_4">
     <g id="line2d_7">
      <path d="M 266.895568 296.240385 
L 266.895568 18.59274 
" clip-path="url(#p84419d9e43)" style="fill: none; stroke: #b0b0b0; stroke-opacity: 0.2; stroke-width: 0.8; stroke-linecap: square"/>
     </g>
     <g id="line2d_8">
      <g>
       <use xlink:href="#m5fb5a03534" x="266.895568" y="296.240385" style="stroke: #000000; stroke-width: 0.8"/>
      </g>
     </g>
     <g id="text_4">
      <!-- 7.5 -->
      <g transform="translate(259.827599 311.234135) scale(0.1 -0.1)">
       <defs>
        <path id="MicrosoftYaHei-37" d="M 3422 4463 
Q 2659 3131 2223 1998 
Q 1788 866 1684 0 
L 1047 0 
Q 1163 853 1594 1947 
Q 2025 3041 2747 4300 
L 347 4300 
L 347 4841 
L 3422 4841 
L 3422 4463 
z
" transform="scale(0.015625)"/>
       </defs>
       <use xlink:href="#MicrosoftYaHei-37"/>
       <use xlink:href="#MicrosoftYaHei-2e" transform="translate(58.642578 0)"/>
       <use xlink:href="#MicrosoftYaHei-35" transform="translate(82.714844 0)"/>
      </g>
     </g>
    </g>
    <g id="xtick_5">
     <g id="line2d_9">
      <path d="M 340.516406 296.240385 
L 340.516406 18.59274 
" clip-path="url(#p84419d9e43)" style="fill: none; stroke: #b0b0b0; stroke-opacity: 0.2; stroke-width: 0.8; stroke-linecap: square"/>
     </g>
     <g id="line2d_10">
      <g>
       <use xlink:href="#m5fb5a03534" x="340.516406" y="296.240385" style="stroke: #000000; stroke-width: 0.8"/>
      </g>
     </g>
     <g id="text_5">
      <!-- 10.0 -->
      <g transform="translate(330.516406 311.234135) scale(0.1 -0.1)">
       <defs>
        <path id="MicrosoftYaHei-31" d="M 1781 0 
L 1781 4141 
Q 1638 3997 1295 3819 
Q 953 3641 663 3569 
L 663 4169 
Q 1047 4275 1484 4508 
Q 1922 4741 2156 4947 
L 2388 4947 
L 2388 0 
L 1781 0 
z
" transform="scale(0.015625)"/>
       </defs>
       <use xlink:href="#MicrosoftYaHei-31"/>
       <use xlink:href="#MicrosoftYaHei-30" transform="translate(58.642578 0)"/>
       <use xlink:href="#MicrosoftYaHei-2e" transform="translate(117.285156 0)"/>
       <use xlink:href="#MicrosoftYaHei-30" transform="translate(141.357422 0)"/>
      </g>
     </g>
    </g>
    <g id="xtick_6">
     <g id="line2d_11">
      <path d="M 414.137245 296.240385 
L 414.137245 18.59274 
" clip-path="url(#p84419d9e43)" style="fill: none; stroke: #b0b0b0; stroke-opacity: 0.2; stroke-width: 0.8; stroke-linecap: square"/>
     </g>
     <g id="line2d_12">
      <g>
       <use xlink:href="#m5fb5a03534" x="414.137245" y="296.240385" style="stroke: #000000; stroke-width: 0.8"/>
      </g>
     </g>
     <g id="text_6">
      <!-- 12.5 -->
      <g transform="translate(404.137245 311.234135) scale(0.1 -0.1)">
       <use xlink:href="#MicrosoftYaHei-31"/>
       <use xlink:href="#MicrosoftYaHei-32" transform="translate(58.642578 0)"/>
       <use xlink:href="#MicrosoftYaHei-2e" transform="translate(117.285156 0)"/>
       <use xlink:href="#MicrosoftYaHei-35" transform="translate(141.357422 0)"/>
      </g>
     </g>
    </g>
    <g id="xtick_7">
     <g id="line2d_13">
      <path d="M 487.758083 296.240385 
L 487.758083 18.59274 
" clip-path="url(#p84419d9e43)" style="fill: none; stroke: #b0b0b0; stroke-opacity: 0.2; stroke-width: 0.8; stroke-linecap: square"/>
     </g>
     <g id="line2d_14">
      <g>
       <use xlink:href="#m5fb5a03534" x="487.758083" y="296.240385" style="stroke: #000000; stroke-width: 0.8"/>
      </g>
     </g>
     <g id="text_7">
      <!-- 15.0 -->
      <g transform="translate(477.758083 311.234135) scale(0.1 -0.1)">
       <use xlink:href="#MicrosoftYaHei-31"/>
       <use xlink:href="#MicrosoftYaHei-35" transform="translate(58.642578 0)"/>
       <use xlink:href="#MicrosoftYaHei-2e" transform="translate(117.285156 0)"/>
       <use xlink:href="#MicrosoftYaHei-30" transform="translate(141.357422 0)"/>
      </g>
     </g>
    </g>
    <g id="xtick_8">
     <g id="line2d_15">
      <path d="M 561.378922 296.240385 
L 561.378922 18.59274 
" clip-path="url(#p84419d9e43)" style="fill: none; stroke: #b0b0b0; stroke-opacity: 0.2; stroke-width: 0.8; stroke-linecap: square"/>
     </g>
     <g id="line2d_16">
      <g>
       <use xlink:href="#m5fb5a03534" x="561.378922" y="296.240385" style="stroke: #000000; stroke-width: 0.8"/>
      </g>
     </g>
     <g id="text_8">
      <!-- 17.5 -->
      <g transform="translate(551.378922 311.234135) scale(0.1 -0.1)">
       <use xlink:href="#MicrosoftYaHei-31"/>
       <use xlink:href="#MicrosoftYaHei-37" transform="translate(58.642578 0)"/>
       <use xlink:href="#MicrosoftYaHei-2e" transform="translate(117.285156 0)"/>
       <use xlink:href="#MicrosoftYaHei-35" transform="translate(141.357422 0)"/>
      </g>
     </g>
    </g>
    <g id="xtick_9">
     <g id="line2d_17">
      <path d="M 634.99976 296.240385 
L 634.99976 18.59274 
" clip-path="url(#p84419d9e43)" style="fill: none; stroke: #b0b0b0; stroke-opacity: 0.2; stroke-width: 0.8; stroke-linecap: square"/>
     </g>
     <g id="line2d_18">
      <g>
       <use xlink:href="#m5fb5a03534" x="634.99976" y="296.240385" style="stroke: #000000; stroke-width: 0.8"/>
      </g>
     </g>
     <g id="text_9">
      <!-- 20.0 -->
      <g transform="translate(624.99976 311.234135) scale(0.1 -0.1)">
       <use xlink:href="#MicrosoftYaHei-32"/>
       <use xlink:href="#MicrosoftYaHei-30" transform="translate(58.642578 0)"/>
       <use xlink:href="#MicrosoftYaHei-2e" transform="translate(117.285156 0)"/>
       <use xlink:href="#MicrosoftYaHei-30" transform="translate(141.357422 0)"/>
      </g>
     </g>
    </g>
    <g id="text_10">
     <!-- 缩放半径 t = ωr/c（不是时间 τ） -->
     <g transform="translate(265.428125 325.713822) scale(0.1 -0.1)">
      <defs>
       <path id="MicrosoftYaHei-7f29" d="M 3388 3453 
L 6263 3453 
L 6263 3041 
L 4956 3041 
Q 4875 2713 4797 2422 
L 5888 2422 
L 5888 -797 
L 5438 -797 
L 5438 -491 
L 3994 -491 
L 3994 -797 
L 3544 -797 
L 3544 2422 
L 4325 2422 
Q 4397 2719 4456 3041 
L 3388 3041 
L 3388 3453 
z
M 831 1641 
Q 1375 1709 1788 1791 
Q 1763 1566 1750 1366 
Q 863 1222 288 1103 
L 213 1553 
Q 566 1916 1072 2828 
Q 541 2791 200 2759 
L 88 3141 
Q 625 3947 1144 5291 
L 1613 5128 
Q 1088 4009 600 3191 
Q 819 3191 1272 3200 
Q 1444 3525 1631 3909 
L 2069 3709 
Q 1188 2178 831 1641 
z
M 2194 4503 
L 4078 4503 
Q 3919 4816 3688 5159 
L 4100 5359 
Q 4406 4966 4569 4666 
L 4247 4503 
L 6138 4503 
L 6138 3591 
L 5663 3591 
L 5663 4078 
L 2669 4078 
L 2669 3503 
L 2194 3503 
L 2194 4503 
z
M 1863 1753 
Q 2481 2641 2931 3797 
L 3369 3653 
Q 3144 3113 2900 2628 
L 2900 -809 
L 2463 -809 
L 2463 1838 
Q 2288 1547 2106 1284 
Q 2013 1522 1863 1753 
z
M 3994 -84 
L 5438 -84 
L 5438 766 
L 3994 766 
L 3994 -84 
z
M 5438 2016 
L 3994 2016 
L 3994 1166 
L 5438 1166 
L 5438 2016 
z
M 106 191 
Q 1181 366 2056 553 
Q 2019 284 2013 159 
Q 1463 28 219 -284 
L 106 191 
z
" transform="scale(0.015625)"/>
       <path id="MicrosoftYaHei-653e" d="M 3956 5359 
L 4456 5272 
Q 4322 4681 4106 4128 
L 6281 4128 
L 6281 3666 
L 5759 3666 
Q 5638 1816 4884 725 
Q 5447 25 6338 -353 
Q 6131 -628 5994 -847 
Q 5153 -394 4559 322 
Q 3947 -356 3094 -903 
Q 2950 -722 2738 -509 
Q 3669 56 4259 731 
Q 3713 1625 3563 2988 
Q 3378 2669 3163 2366 
Q 3031 2553 2850 2766 
Q 3663 3884 3956 5359 
z
M 156 4184 
L 3169 4184 
L 3169 3722 
L 1400 3722 
Q 1394 3166 1378 2703 
L 2813 2703 
Q 2750 1166 2694 241 
Q 2638 -584 1981 -616 
Q 1600 -622 1263 -609 
Q 1225 -378 1156 -84 
Q 1569 -128 1794 -128 
Q 2175 -128 2206 347 
Q 2269 1078 2306 2241 
L 1359 2241 
Q 1338 216 369 -853 
Q 225 -641 38 -416 
Q 625 247 750 1003 
Q 909 1713 906 3722 
L 156 3722 
L 156 4184 
z
M 5263 3666 
L 3934 3666 
Q 4034 2134 4584 1166 
Q 5188 2131 5263 3666 
z
M 1206 5141 
L 1631 5366 
Q 1900 4966 2144 4503 
L 1706 4272 
Q 1456 4753 1206 5141 
z
" transform="scale(0.015625)"/>
       <path id="MicrosoftYaHei-534a" d="M 125 1484 
L 2931 1484 
L 2931 2572 
L 381 2572 
L 381 3047 
L 2931 3047 
L 2931 5316 
L 3463 5316 
L 3463 3047 
L 6025 3047 
L 6025 2572 
L 3463 2572 
L 3463 1484 
L 6275 1484 
L 6275 1009 
L 3463 1009 
L 3463 -822 
L 2931 -822 
L 2931 1009 
L 125 1009 
L 125 1484 
z
M 4200 3709 
Q 4750 4222 5363 4959 
L 5800 4609 
Q 5194 3928 4575 3359 
L 4200 3709 
z
M 600 4641 
L 969 4947 
Q 1550 4397 2156 3728 
L 1725 3359 
Q 1081 4159 600 4641 
z
" transform="scale(0.015625)"/>
       <path id="MicrosoftYaHei-5f84" d="M 2388 4466 
L 2388 4891 
L 5738 4891 
L 5738 4459 
Q 5216 3866 4619 3391 
Q 5559 2888 6338 2428 
L 6038 1972 
Q 5256 2494 4216 3091 
Q 3253 2422 2106 2041 
Q 2000 2247 1850 2459 
Q 3894 3153 5025 4466 
L 2388 4466 
z
M 1931 -66 
L 3881 -66 
L 3881 1403 
L 2288 1403 
L 2288 1828 
L 5950 1828 
L 5950 1403 
L 4344 1403 
L 4344 -66 
L 6300 -66 
L 6300 -491 
L 1931 -491 
L 1931 -66 
z
M 38 1572 
Q 975 2353 1750 3809 
L 2175 3541 
Q 1844 2953 1475 2444 
L 1475 -816 
L 994 -816 
L 994 1831 
Q 638 1419 250 1066 
Q 156 1328 38 1572 
z
M 106 3616 
Q 1038 4359 1638 5391 
L 2063 5116 
Q 1356 3997 344 3134 
Q 238 3359 106 3616 
z
" transform="scale(0.015625)"/>
       <path id="MicrosoftYaHei-20" transform="scale(0.015625)"/>
       <path id="MicrosoftYaHei-74" d="M 2206 34 
Q 2006 -75 1666 -75 
Q 738 -75 738 953 
L 738 2950 
L 144 2950 
L 144 3456 
L 738 3456 
L 738 4288 
L 1347 4481 
L 1347 3456 
L 2206 3456 
L 2206 2950 
L 1347 2950 
L 1347 1063 
Q 1347 722 1462 575 
Q 1578 428 1847 428 
Q 2053 428 2206 544 
L 2206 34 
z
" transform="scale(0.015625)"/>
       <path id="MicrosoftYaHei-3d" d="M 3972 2497 
L 788 2497 
L 788 2969 
L 3972 2969 
L 3972 2497 
z
M 3972 1053 
L 788 1053 
L 788 1525 
L 3972 1525 
L 3972 1053 
z
" transform="scale(0.015625)"/>
       <path id="MicrosoftYaHei-3c9" d="M 2806 559 
L 2794 559 
Q 2447 -78 1763 -78 
Q 1119 -78 756 364 
Q 394 806 394 1547 
Q 394 2425 819 3456 
L 1488 3456 
Q 1003 2391 1003 1531 
Q 1003 1031 1197 740 
Q 1391 450 1753 450 
Q 2503 450 2503 1575 
L 2503 2531 
L 3106 2531 
L 3106 1575 
Q 3106 450 3850 450 
Q 4203 450 4401 726 
Q 4600 1003 4600 1531 
Q 4600 2391 4116 3456 
L 4784 3456 
Q 5213 2413 5213 1547 
Q 5213 813 4852 367 
Q 4491 -78 3834 -78 
Q 3144 -78 2806 559 
z
" transform="scale(0.015625)"/>
       <path id="MicrosoftYaHei-72" d="M 2400 2850 
Q 2247 2959 1978 2959 
Q 1622 2959 1390 2626 
Q 1159 2294 1159 1750 
L 1159 0 
L 547 0 
L 547 3456 
L 1159 3456 
L 1159 2753 
L 1172 2753 
Q 1434 3516 2078 3516 
Q 2288 3516 2400 3469 
L 2400 2850 
z
" transform="scale(0.015625)"/>
       <path id="MicrosoftYaHei-2f" d="M 2791 4841 
L 469 -803 
L -103 -803 
L 2219 4841 
L 2791 4841 
z
" transform="scale(0.015625)"/>
       <path id="MicrosoftYaHei-63" d="M 2934 156 
Q 2538 -81 1978 -81 
Q 1228 -81 772 400 
Q 316 881 316 1647 
Q 316 2497 808 3017 
Q 1300 3538 2125 3538 
Q 2600 3538 2938 3369 
L 2938 2763 
Q 2572 3031 2125 3031 
Q 1600 3031 1270 2667 
Q 941 2303 941 1697 
Q 941 1100 1252 762 
Q 1563 425 2091 425 
Q 2538 425 2934 719 
L 2934 156 
z
" transform="scale(0.015625)"/>
       <path id="MicrosoftYaHei-ff08" d="M 5288 -1100 
Q 4172 119 4172 1850 
Q 4172 3603 5288 4838 
L 5825 4838 
Q 4716 3572 4716 1856 
Q 4716 166 5819 -1100 
L 5288 -1100 
z
" transform="scale(0.015625)"/>
       <path id="MicrosoftYaHei-4e0d" d="M 225 4772 
L 6181 4772 
L 6181 4284 
L 3881 4284 
Q 3581 3766 3081 3053 
L 3444 3053 
L 3444 -866 
L 2906 -866 
L 2906 2859 
Q 1838 1541 388 609 
Q 231 834 38 1059 
Q 2006 2291 3213 4284 
L 225 4284 
L 225 4772 
z
M 4069 2859 
Q 5238 2147 6325 1409 
L 5969 916 
Q 4681 1872 3763 2434 
L 4069 2859 
z
" transform="scale(0.015625)"/>
       <path id="MicrosoftYaHei-662f" d="M 1088 5078 
L 5338 5078 
L 5338 2472 
L 4863 2472 
L 4863 2722 
L 1563 2722 
L 1563 2472 
L 1088 2472 
L 1088 5078 
z
M 1400 1553 
L 1875 1409 
Q 1775 1081 1647 788 
Q 2122 19 3063 -134 
L 3063 1747 
L 213 1747 
L 213 2184 
L 6225 2184 
L 6225 1747 
L 3563 1747 
L 3563 1122 
L 5788 1122 
L 5788 697 
L 3563 697 
L 3563 -172 
Q 4763 -197 6344 -147 
Q 6244 -416 6169 -641 
Q 4331 -647 3344 -622 
Q 2022 -606 1434 359 
Q 1006 -413 350 -891 
Q 225 -703 44 -484 
Q 1050 191 1400 1553 
z
M 1563 3147 
L 4863 3147 
L 4863 3697 
L 1563 3697 
L 1563 3147 
z
M 4863 4653 
L 1563 4653 
L 1563 4109 
L 4863 4109 
L 4863 4653 
z
" transform="scale(0.015625)"/>
       <path id="MicrosoftYaHei-65f6" d="M 344 4728 
L 2500 4728 
L 2500 -366 
L 2006 -366 
L 2006 153 
L 838 153 
L 838 -441 
L 344 -441 
L 344 4728 
z
M 2706 3941 
L 4925 3941 
L 4925 5322 
L 5425 5322 
L 5425 3941 
L 6313 3941 
L 6313 3478 
L 5425 3478 
L 5425 116 
Q 5425 -722 4625 -722 
Q 4263 -722 3563 -703 
Q 3531 -478 3463 -178 
Q 4119 -228 4488 -228 
Q 4925 -228 4925 216 
L 4925 3478 
L 2706 3478 
L 2706 3941 
z
M 838 616 
L 2006 616 
L 2006 2234 
L 838 2234 
L 838 616 
z
M 2006 4266 
L 838 4266 
L 838 2684 
L 2006 2684 
L 2006 4266 
z
M 3406 2878 
Q 3906 1966 4163 1422 
Q 4000 1347 3663 1172 
Q 3419 1766 2963 2653 
L 3406 2878 
z
" transform="scale(0.015625)"/>
       <path id="MicrosoftYaHei-95f4" d="M 1863 3647 
L 4513 3647 
L 4513 553 
L 2313 553 
L 2313 166 
L 1863 166 
L 1863 3647 
z
M 2388 4453 
L 2388 4922 
L 6013 4922 
L 6013 -28 
Q 6013 -816 5119 -816 
Q 4756 -816 4169 -803 
Q 4144 -616 4069 -297 
Q 4588 -334 5056 -334 
Q 5525 -334 5525 122 
L 5525 4453 
L 2388 4453 
z
M 419 4084 
L 906 4084 
L 906 -816 
L 419 -816 
L 419 4084 
z
M 2313 997 
L 4063 997 
L 4063 1884 
L 2313 1884 
L 2313 997 
z
M 4063 3203 
L 2313 3203 
L 2313 2328 
L 4063 2328 
L 4063 3203 
z
M 744 5003 
L 1100 5322 
Q 1575 4872 1981 4447 
L 1575 4091 
Q 1194 4541 744 5003 
z
" transform="scale(0.015625)"/>
       <path id="MicrosoftYaHei-3c4" d="M 3300 2972 
L 1991 2972 
L 1991 959 
Q 1991 484 2378 484 
Q 2566 484 2744 553 
L 2744 34 
Q 2506 -44 2253 -44 
Q 1384 -44 1384 947 
L 1384 2972 
L 928 2972 
Q 528 2972 116 2672 
L 116 3209 
Q 375 3456 950 3456 
L 3300 3456 
L 3300 2972 
z
" transform="scale(0.015625)"/>
       <path id="MicrosoftYaHei-ff09" d="M 1113 -1100 
L 575 -1100 
Q 1684 163 1684 1888 
Q 1684 3581 581 4838 
L 1113 4838 
Q 2222 3628 2222 1888 
Q 2222 128 1113 -1100 
z
" transform="scale(0.015625)"/>
      </defs>
      <use xlink:href="#MicrosoftYaHei-7f29"/>
      <use xlink:href="#MicrosoftYaHei-653e" transform="translate(100 0)"/>
      <use xlink:href="#MicrosoftYaHei-534a" transform="translate(200 0)"/>
      <use xlink:href="#MicrosoftYaHei-5f84" transform="translate(300 0)"/>
      <use xlink:href="#MicrosoftYaHei-20" transform="translate(400 0)"/>
      <use xlink:href="#MicrosoftYaHei-74" transform="translate(429.589844 0)"/>
      <use xlink:href="#MicrosoftYaHei-20" transform="translate(466.845703 0)"/>
      <use xlink:href="#MicrosoftYaHei-3d" transform="translate(496.435547 0)"/>
      <use xlink:href="#MicrosoftYaHei-20" transform="translate(570.605469 0)"/>
      <use xlink:href="#MicrosoftYaHei-3c9" transform="translate(600.195312 0)"/>
      <use xlink:href="#MicrosoftYaHei-72" transform="translate(687.744141 0)"/>
      <use xlink:href="#MicrosoftYaHei-2f" transform="translate(725.927734 0)"/>
      <use xlink:href="#MicrosoftYaHei-63" transform="translate(768.652344 0)"/>
      <use xlink:href="#MicrosoftYaHei-ff08" transform="translate(818.798828 0)"/>
      <use xlink:href="#MicrosoftYaHei-4e0d" transform="translate(918.798828 0)"/>
      <use xlink:href="#MicrosoftYaHei-662f" transform="translate(1018.798828 0)"/>
      <use xlink:href="#MicrosoftYaHei-65f6" transform="translate(1118.798828 0)"/>
      <use xlink:href="#MicrosoftYaHei-95f4" transform="translate(1218.798828 0)"/>
      <use xlink:href="#MicrosoftYaHei-20" transform="translate(1318.798828 0)"/>
      <use xlink:href="#MicrosoftYaHei-3c4" transform="translate(1348.388672 0)"/>
      <use xlink:href="#MicrosoftYaHei-ff09" transform="translate(1401.757812 0)"/>
     </g>
    </g>
   </g>
   <g id="matplotlib.axis_2">
    <g id="ytick_1">
     <g id="line2d_19">
      <path d="M 46.033052 296.240385 
L 634.99976 296.240385 
" clip-path="url(#p84419d9e43)" style="fill: none; stroke: #b0b0b0; stroke-opacity: 0.2; stroke-width: 0.8; stroke-linecap: square"/>
     </g>
     <g id="line2d_20">
      <defs>
       <path id="mc81e494aea" d="M 0 0 
L -3.5 0 
" style="stroke: #000000; stroke-width: 0.8"/>
      </defs>
      <g>
       <use xlink:href="#mc81e494aea" x="46.033052" y="296.240385" style="stroke: #000000; stroke-width: 0.8"/>
      </g>
     </g>
     <g id="text_11">
      <!-- −1.0 -->
      <g transform="translate(17.479927 300.23726) scale(0.1 -0.1)">
       <defs>
        <path id="MicrosoftYaHei-2212" d="M 3972 1772 
L 788 1772 
L 788 2250 
L 3972 2250 
L 3972 1772 
z
" transform="scale(0.015625)"/>
       </defs>
       <use xlink:href="#MicrosoftYaHei-2212"/>
       <use xlink:href="#MicrosoftYaHei-31" transform="translate(74.169922 0)"/>
       <use xlink:href="#MicrosoftYaHei-2e" transform="translate(132.8125 0)"/>
       <use xlink:href="#MicrosoftYaHei-30" transform="translate(156.884766 0)"/>
      </g>
     </g>
    </g>
    <g id="ytick_2">
     <g id="line2d_21">
      <path d="M 46.033052 254.17256 
L 634.99976 254.17256 
" clip-path="url(#p84419d9e43)" style="fill: none; stroke: #b0b0b0; stroke-opacity: 0.2; stroke-width: 0.8; stroke-linecap: square"/>
     </g>
     <g id="line2d_22">
      <g>
       <use xlink:href="#mc81e494aea" x="46.033052" y="254.17256" style="stroke: #000000; stroke-width: 0.8"/>
      </g>
     </g>
     <g id="text_12">
      <!-- −0.5 -->
      <g transform="translate(17.479927 258.169435) scale(0.1 -0.1)">
       <use xlink:href="#MicrosoftYaHei-2212"/>
       <use xlink:href="#MicrosoftYaHei-30" transform="translate(74.169922 0)"/>
       <use xlink:href="#MicrosoftYaHei-2e" transform="translate(132.8125 0)"/>
       <use xlink:href="#MicrosoftYaHei-35" transform="translate(156.884766 0)"/>
      </g>
     </g>
    </g>
    <g id="ytick_3">
     <g id="line2d_23">
      <path d="M 46.033052 212.104735 
L 634.99976 212.104735 
" clip-path="url(#p84419d9e43)" style="fill: none; stroke: #b0b0b0; stroke-opacity: 0.2; stroke-width: 0.8; stroke-linecap: square"/>
     </g>
     <g id="line2d_24">
      <g>
       <use xlink:href="#mc81e494aea" x="46.033052" y="212.104735" style="stroke: #000000; stroke-width: 0.8"/>
      </g>
     </g>
     <g id="text_13">
      <!-- 0.0 -->
      <g transform="translate(24.897115 216.10161) scale(0.1 -0.1)">
       <use xlink:href="#MicrosoftYaHei-30"/>
       <use xlink:href="#MicrosoftYaHei-2e" transform="translate(58.642578 0)"/>
       <use xlink:href="#MicrosoftYaHei-30" transform="translate(82.714844 0)"/>
      </g>
     </g>
    </g>
    <g id="ytick_4">
     <g id="line2d_25">
      <path d="M 46.033052 170.03691 
L 634.99976 170.03691 
" clip-path="url(#p84419d9e43)" style="fill: none; stroke: #b0b0b0; stroke-opacity: 0.2; stroke-width: 0.8; stroke-linecap: square"/>
     </g>
     <g id="line2d_26">
      <g>
       <use xlink:href="#mc81e494aea" x="46.033052" y="170.03691" style="stroke: #000000; stroke-width: 0.8"/>
      </g>
     </g>
     <g id="text_14">
      <!-- 0.5 -->
      <g transform="translate(24.897115 174.033785) scale(0.1 -0.1)">
       <use xlink:href="#MicrosoftYaHei-30"/>
       <use xlink:href="#MicrosoftYaHei-2e" transform="translate(58.642578 0)"/>
       <use xlink:href="#MicrosoftYaHei-35" transform="translate(82.714844 0)"/>
      </g>
     </g>
    </g>
    <g id="ytick_5">
     <g id="line2d_27">
      <path d="M 46.033052 127.969085 
L 634.99976 127.969085 
" clip-path="url(#p84419d9e43)" style="fill: none; stroke: #b0b0b0; stroke-opacity: 0.2; stroke-width: 0.8; stroke-linecap: square"/>
     </g>
     <g id="line2d_28">
      <g>
       <use xlink:href="#mc81e494aea" x="46.033052" y="127.969085" style="stroke: #000000; stroke-width: 0.8"/>
      </g>
     </g>
     <g id="text_15">
      <!-- 1.0 -->
      <g transform="translate(24.897115 131.96596) scale(0.1 -0.1)">
       <use xlink:href="#MicrosoftYaHei-31"/>
       <use xlink:href="#MicrosoftYaHei-2e" transform="translate(58.642578 0)"/>
       <use xlink:href="#MicrosoftYaHei-30" transform="translate(82.714844 0)"/>
      </g>
     </g>
    </g>
    <g id="ytick_6">
     <g id="line2d_29">
      <path d="M 46.033052 85.90126 
L 634.99976 85.90126 
" clip-path="url(#p84419d9e43)" style="fill: none; stroke: #b0b0b0; stroke-opacity: 0.2; stroke-width: 0.8; stroke-linecap: square"/>
     </g>
     <g id="line2d_30">
      <g>
       <use xlink:href="#mc81e494aea" x="46.033052" y="85.90126" style="stroke: #000000; stroke-width: 0.8"/>
      </g>
     </g>
     <g id="text_16">
      <!-- 1.5 -->
      <g transform="translate(24.897115 89.898135) scale(0.1 -0.1)">
       <use xlink:href="#MicrosoftYaHei-31"/>
       <use xlink:href="#MicrosoftYaHei-2e" transform="translate(58.642578 0)"/>
       <use xlink:href="#MicrosoftYaHei-35" transform="translate(82.714844 0)"/>
      </g>
     </g>
    </g>
    <g id="ytick_7">
     <g id="line2d_31">
      <path d="M 46.033052 43.833435 
L 634.99976 43.833435 
" clip-path="url(#p84419d9e43)" style="fill: none; stroke: #b0b0b0; stroke-opacity: 0.2; stroke-width: 0.8; stroke-linecap: square"/>
     </g>
     <g id="line2d_32">
      <g>
       <use xlink:href="#mc81e494aea" x="46.033052" y="43.833435" style="stroke: #000000; stroke-width: 0.8"/>
      </g>
     </g>
     <g id="text_17">
      <!-- 2.0 -->
      <g transform="translate(24.897115 47.83031) scale(0.1 -0.1)">
       <use xlink:href="#MicrosoftYaHei-32"/>
       <use xlink:href="#MicrosoftYaHei-2e" transform="translate(58.642578 0)"/>
       <use xlink:href="#MicrosoftYaHei-30" transform="translate(82.714844 0)"/>
      </g>
     </g>
    </g>
    <g id="text_18">
     <!-- 形状值 F(t) = R(r) -->
     <g transform="translate(10.99399 196.937656) rotate(-90) scale(0.1 -0.1)">
      <defs>
       <path id="MicrosoftYaHei-5f62" d="M 175 2647 
L 1019 2647 
L 1019 4422 
L 350 4422 
L 350 4872 
L 3775 4872 
L 3775 4422 
L 3006 4422 
L 3006 2647 
L 3975 2647 
L 3975 2197 
L 3006 2197 
L 3006 -791 
L 2525 -791 
L 2525 2197 
L 1497 2197 
Q 1500 128 406 -841 
Q 256 -622 75 -428 
Q 1025 366 1016 2197 
L 175 2197 
L 175 2647 
z
M 1500 2647 
L 2525 2647 
L 2525 4422 
L 1500 4422 
L 1500 2647 
z
M 6319 1353 
Q 5331 166 3738 -834 
Q 3631 -666 3388 -422 
Q 4925 397 5956 1672 
L 6319 1353 
z
M 6138 3172 
Q 5250 2159 4019 1347 
Q 3888 1528 3694 1722 
Q 4856 2441 5775 3484 
L 6138 3172 
z
M 6038 4934 
Q 5194 4009 3988 3266 
Q 3875 3428 3675 3666 
Q 4838 4322 5675 5253 
L 6038 4934 
z
" transform="scale(0.015625)"/>
       <path id="MicrosoftYaHei-72b6" d="M 2213 3516 
L 3791 3516 
Q 3825 4369 3825 5297 
L 4325 5297 
Q 4325 4338 4294 3516 
L 6175 3516 
L 6175 3047 
L 4309 3047 
Q 4884 628 6313 -228 
Q 6069 -491 5906 -703 
Q 4638 266 4119 2106 
Q 3766 413 2363 -809 
Q 2169 -541 2013 -384 
Q 3600 853 3766 3047 
L 2213 3047 
L 2213 3516 
z
M 1494 5316 
L 1994 5316 
L 1994 -834 
L 1494 -834 
L 1494 1606 
Q 916 1119 400 691 
L 75 1122 
Q 769 1628 1494 2222 
L 1494 5316 
z
M 219 4134 
L 644 4334 
Q 1019 3672 1306 2884 
L 831 2666 
Q 519 3541 219 4134 
z
M 5006 5053 
Q 5550 4641 5950 4278 
Q 5775 4078 5606 3884 
Q 5150 4328 4681 4716 
L 5006 5053 
z
" transform="scale(0.015625)"/>
       <path id="MicrosoftYaHei-503c" d="M 1619 -216 
L 2250 -216 
L 2250 3653 
L 3725 3653 
L 3725 4222 
L 1913 4222 
L 1913 4647 
L 3725 4647 
L 3725 5309 
L 4200 5309 
L 4200 4647 
L 6169 4647 
L 6169 4222 
L 4200 4222 
L 4200 3653 
L 5713 3653 
L 5713 -216 
L 6306 -216 
L 6306 -641 
L 1619 -641 
L 1619 -216 
z
M 69 2247 
Q 906 3497 1369 5278 
L 1831 5141 
Q 1581 4334 1288 3628 
L 1288 -816 
L 831 -816 
L 831 2666 
Q 563 2166 263 1734 
Q 175 1997 69 2247 
z
M 2713 -216 
L 5250 -216 
L 5250 353 
L 2713 353 
L 2713 -216 
z
M 5250 3241 
L 2713 3241 
L 2713 2678 
L 5250 2678 
L 5250 3241 
z
M 2713 1716 
L 5250 1716 
L 5250 2278 
L 2713 2278 
L 2713 1716 
z
M 2713 753 
L 5250 753 
L 5250 1316 
L 2713 1316 
L 2713 753 
z
" transform="scale(0.015625)"/>
       <path id="MicrosoftYaHei-46" d="M 3119 4284 
L 1250 4284 
L 1250 2666 
L 2981 2666 
L 2981 2116 
L 1250 2116 
L 1250 0 
L 625 0 
L 625 4841 
L 3119 4841 
L 3119 4284 
z
" transform="scale(0.015625)"/>
       <path id="MicrosoftYaHei-28" d="M 1531 -1100 
Q 478 100 478 1847 
Q 478 3594 1531 4841 
L 2072 4841 
Q 1016 3544 1016 1853 
Q 1016 166 2066 -1100 
L 1531 -1100 
z
" transform="scale(0.015625)"/>
       <path id="MicrosoftYaHei-29" d="M 78 -1100 
Q 1131 163 1131 1853 
Q 1131 3547 72 4841 
L 616 4841 
Q 1672 3603 1672 1847 
Q 1672 91 616 -1100 
L 78 -1100 
z
" transform="scale(0.015625)"/>
       <path id="MicrosoftYaHei-52" d="M 4159 0 
L 3422 0 
L 2619 1344 
Q 2378 1747 2178 1892 
Q 1978 2038 1700 2038 
L 1250 2038 
L 1250 0 
L 625 0 
L 625 4841 
L 2100 4841 
Q 2806 4841 3206 4500 
Q 3606 4159 3606 3547 
Q 3606 2541 2531 2241 
L 2531 2225 
Q 2731 2141 2876 1984 
Q 3022 1828 3253 1450 
L 4159 0 
z
M 1250 4294 
L 1250 2584 
L 1988 2584 
Q 2416 2584 2683 2834 
Q 2950 3084 2950 3491 
Q 2950 3869 2706 4081 
Q 2463 4294 1997 4294 
L 1250 4294 
z
" transform="scale(0.015625)"/>
      </defs>
      <use xlink:href="#MicrosoftYaHei-5f62"/>
      <use xlink:href="#MicrosoftYaHei-72b6" transform="translate(100 0)"/>
      <use xlink:href="#MicrosoftYaHei-503c" transform="translate(200 0)"/>
      <use xlink:href="#MicrosoftYaHei-20" transform="translate(300 0)"/>
      <use xlink:href="#MicrosoftYaHei-46" transform="translate(329.589844 0)"/>
      <use xlink:href="#MicrosoftYaHei-28" transform="translate(382.714844 0)"/>
      <use xlink:href="#MicrosoftYaHei-74" transform="translate(416.113281 0)"/>
      <use xlink:href="#MicrosoftYaHei-29" transform="translate(453.369141 0)"/>
      <use xlink:href="#MicrosoftYaHei-20" transform="translate(486.767578 0)"/>
      <use xlink:href="#MicrosoftYaHei-3d" transform="translate(516.357422 0)"/>
      <use xlink:href="#MicrosoftYaHei-20" transform="translate(590.527344 0)"/>
      <use xlink:href="#MicrosoftYaHei-52" transform="translate(620.117188 0)"/>
      <use xlink:href="#MicrosoftYaHei-28" transform="translate(685.400391 0)"/>
      <use xlink:href="#MicrosoftYaHei-72" transform="translate(718.798828 0)"/>
      <use xlink:href="#MicrosoftYaHei-29" transform="translate(756.982422 0)"/>
     </g>
    </g>
   </g>
   <g id="line2d_33">
    <path d="M 46.033052 43.833435 
L 47.717017 43.970968 
L 49.400982 44.383228 
L 51.084947 45.069207 
L 52.768912 46.027221 
L 54.452877 47.254923 
L 56.136842 48.749306 
L 57.820806 50.506711 
L 59.925763 53.06673 
L 62.030719 56.021175 
L 64.135675 59.358769 
L 66.240631 63.066788 
L 68.766578 67.9854 
L 71.292525 73.390104 
L 74.239464 80.270439 
L 77.186402 87.721104 
L 80.554332 96.863692 
L 84.343253 107.843701 
L 88.553165 120.749859 
L 94.026051 138.332251 
L 104.550831 173.180839 
L 111.286691 195.015413 
L 115.917594 209.317383 
L 120.127506 221.586201 
L 123.916427 231.891716 
L 127.284357 240.376048 
L 130.231295 247.222326 
L 133.178234 253.487683 
L 135.704181 258.369179 
L 138.230128 262.779584 
L 140.756076 266.703178 
L 142.861032 269.591748 
L 144.965988 272.127744 
L 147.070944 274.307015 
L 149.1759 276.126936 
L 150.859865 277.323352 
L 152.543829 278.289189 
L 154.227794 279.025205 
L 155.911759 279.53277 
L 157.595724 279.81386 
L 159.279689 279.871045 
L 160.963654 279.707483 
L 162.647619 279.326904 
L 164.331583 278.733599 
L 166.015548 277.9324 
L 168.120504 276.646766 
L 170.22546 275.056293 
L 172.330417 273.173742 
L 174.435373 271.01299 
L 176.96132 268.073942 
L 179.487267 264.783439 
L 182.434206 260.539676 
L 185.381144 255.907151 
L 188.749074 250.203602 
L 192.537995 243.362164 
L 197.589889 233.739295 
L 215.692511 198.719363 
L 219.481432 192.072032 
L 222.849362 186.55609 
L 226.217292 181.474899 
L 229.16423 177.429567 
L 232.111169 173.793012 
L 234.637116 171.023199 
L 237.163063 168.590302 
L 239.689011 166.50721 
L 241.793967 165.046021 
L 243.898923 163.839514 
L 246.003879 162.890971 
L 248.108835 162.202389 
L 250.213791 161.774484 
L 252.318747 161.606697 
L 254.423703 161.697208 
L 256.528659 162.042957 
L 258.633615 162.639669 
L 260.738571 163.481886 
L 262.843527 164.563002 
L 264.948483 165.875304 
L 267.474431 167.742811 
L 270.000378 169.913481 
L 272.526325 172.368299 
L 275.473264 175.563527 
L 278.420202 179.081277 
L 281.788132 183.446997 
L 285.577053 188.725641 
L 290.207956 195.576077 
L 297.364807 206.641513 
L 306.205622 220.24929 
L 310.836526 226.980114 
L 314.625447 232.136317 
L 317.993376 236.385206 
L 321.361306 240.266508 
L 324.308245 243.325341 
L 327.255183 246.041203 
L 329.78113 248.078464 
L 332.307078 249.834328 
L 334.833025 251.29856 
L 336.937981 252.290101 
L 339.042937 253.069998 
L 341.147893 253.635845 
L 343.252849 253.986316 
L 345.357805 254.121172 
L 347.462761 254.04125 
L 349.567717 253.748451 
L 351.672673 253.245729 
L 353.777629 252.537063 
L 356.303577 251.421904 
L 358.829524 250.02786 
L 361.355471 248.367302 
L 363.881419 246.454419 
L 366.828357 243.925105 
L 369.775296 241.101981 
L 373.143225 237.555096 
L 376.932146 233.215426 
L 381.142058 228.047936 
L 386.614944 220.960123 
L 401.770628 201.108709 
L 405.98054 196.037824 
L 409.769461 191.800448 
L 413.137391 188.349183 
L 416.084329 185.607314 
L 419.031268 183.151275 
L 421.978206 181.003133 
L 424.504153 179.421319 
L 427.030101 178.089547 
L 429.556048 177.015862 
L 432.081995 176.206385 
L 434.607942 175.665286 
L 436.712899 175.421026 
L 438.817855 175.364925 
L 440.922811 175.49626 
L 443.448758 175.898866 
L 445.974705 176.564299 
L 448.500652 177.486047 
L 451.0266 178.655782 
L 453.552547 180.063427 
L 456.499486 181.990625 
L 459.446424 184.20428 
L 462.393363 186.68039 
L 465.761292 189.797612 
L 469.550213 193.619442 
L 473.760125 198.179824 
L 479.233011 204.449425 
L 495.230677 223.013727 
L 499.440589 227.476163 
L 503.22951 231.192533 
L 506.59744 234.208097 
L 509.96537 236.913946 
L 512.912308 239.001576 
L 515.859247 240.807788 
L 518.385194 242.119636 
L 520.911141 243.204379 
L 523.437088 244.0553 
L 525.963036 244.667418 
L 528.488983 245.037521 
L 531.01493 245.164169 
L 533.540878 245.047707 
L 536.066825 244.690244 
L 538.592772 244.095636 
L 541.118719 243.269443 
L 543.644667 242.218885 
L 546.170614 240.952779 
L 549.117552 239.217106 
L 552.064491 237.221076 
L 555.432421 234.648605 
L 558.80035 231.799506 
L 562.589271 228.312031 
L 567.220175 223.727928 
L 573.114052 217.555006 
L 587.006762 202.869811 
L 591.637665 198.354053 
L 595.426586 194.934487 
L 599.215507 191.821298 
L 602.583437 189.351007 
L 605.530375 187.443929 
L 608.477314 185.792976 
L 611.424252 184.413238 
L 613.950199 183.455885 
L 616.476147 182.712967 
L 619.002094 182.188969 
L 621.528041 181.886762 
L 624.053988 181.807583 
L 626.579936 181.951038 
L 629.105883 182.315106 
L 631.63183 182.896169 
L 634.157778 183.689037 
L 634.99976 183.999278 
L 634.99976 183.999278 
" clip-path="url(#p84419d9e43)" style="fill: none; stroke: #2563a6; stroke-width: 2; stroke-linecap: square"/>
   </g>
   <g id="line2d_34">
    <path d="M 46.033052 212.104735 
L 634.99976 212.104735 
" clip-path="url(#p84419d9e43)" style="fill: none; stroke: #666666; stroke-width: 0.8; stroke-linecap: square"/>
   </g>
   <g id="line2d_35">
    <defs>
     <path id="m7c8dfb162b" d="M 0 3 
C 0.795609 3 1.55874 2.683901 2.12132 2.12132 
C 2.683901 1.55874 3 0.795609 3 0 
C 3 -0.795609 2.683901 -1.55874 2.12132 -2.12132 
C 1.55874 -2.683901 0.795609 -3 0 -3 
C -0.795609 -3 -1.55874 -2.683901 -2.12132 -2.12132 
C -2.683901 -1.55874 -3 -0.795609 -3 0 
C -3 0.795609 -2.683901 1.55874 -2.12132 2.12132 
C -1.55874 2.683901 -0.795609 3 0 3 
z
" style="stroke: #2563a6"/>
    </defs>
    <g clip-path="url(#p84419d9e43)">
     <use xlink:href="#m7c8dfb162b" x="116.851162" y="212.104735" style="fill: #2563a6; stroke: #2563a6"/>
    </g>
   </g>
   <g id="patch_4">
    <path d="M 46.033052 296.240385 
L 46.033052 18.59274 
" style="fill: none; stroke: #000000; stroke-width: 0.8; stroke-linejoin: miter; stroke-linecap: square"/>
   </g>
   <g id="patch_5">
    <path d="M 634.99976 296.240385 
L 634.99976 18.59274 
" style="fill: none; stroke: #000000; stroke-width: 0.8; stroke-linejoin: miter; stroke-linecap: square"/>
   </g>
   <g id="patch_6">
    <path d="M 46.033052 296.240385 
L 634.99976 296.240385 
" style="fill: none; stroke: #000000; stroke-width: 0.8; stroke-linejoin: miter; stroke-linecap: square"/>
   </g>
   <g id="patch_7">
    <path d="M 46.033052 18.59274 
L 634.99976 18.59274 
" style="fill: none; stroke: #000000; stroke-width: 0.8; stroke-linejoin: miter; stroke-linecap: square"/>
   </g>
   <g id="patch_8">
    <path d="M 195.94098 121.342682 
Q 157.053785 165.968928 118.901099 209.752264 
" style="fill: none; stroke: #555555; stroke-linecap: round"/>
    <path d="M 123.036801 208.050509 
L 118.901099 209.752264 
L 120.021117 205.422649 
" style="fill: none; stroke: #555555; stroke-linecap: round"/>
   </g>
   <g id="text_19">
    <!-- 第一个可选固定边缘 -->
    <g transform="translate(163.826394 103.2703) scale(0.1 -0.1)">
     <defs>
      <path id="MicrosoftYaHei-7b2c" d="M 4006 5347 
L 4544 5347 
Q 4406 5038 4256 4759 
L 6225 4759 
L 6225 4372 
L 4650 4372 
Q 4922 4106 5163 3822 
L 4806 3553 
L 5613 3553 
L 5613 1884 
L 5131 1884 
L 5131 2109 
L 3431 2109 
L 3431 1484 
L 5944 1484 
Q 5919 922 5881 416 
Q 5838 -372 5081 -372 
Q 4700 -372 4138 -366 
Q 4094 -134 4031 128 
Q 4644 97 4988 97 
Q 5356 97 5388 466 
Q 5419 759 5431 1059 
L 3431 1059 
L 3431 -853 
L 2931 -853 
L 2931 909 
Q 2059 -147 306 -703 
Q 194 -522 44 -303 
Q 1566 144 2463 1059 
L 563 1059 
L 563 1484 
L 863 2534 
L 2931 2534 
L 2931 3128 
L 744 3128 
L 744 3553 
L 1972 3553 
Q 1713 3891 1456 4184 
L 1706 4372 
L 1247 4372 
Q 875 3875 388 3459 
Q 263 3609 75 3797 
Q 869 4441 1294 5347 
L 1831 5347 
Q 1688 5041 1513 4759 
L 3325 4759 
L 3325 4372 
L 1825 4372 
Q 2075 4119 2331 3828 
L 1981 3553 
L 4794 3553 
Q 4541 3894 4294 4178 
L 4559 4372 
L 4028 4372 
Q 3784 3984 3506 3672 
Q 3369 3809 3125 3978 
Q 3650 4516 4006 5347 
z
M 1075 1484 
L 2931 1484 
L 2931 2109 
L 1250 2109 
L 1075 1484 
z
M 5131 3128 
L 3431 3128 
L 3431 2534 
L 5131 2534 
L 5131 3128 
z
" transform="scale(0.015625)"/>
      <path id="MicrosoftYaHei-4e00" d="M 100 2703 
L 6313 2703 
L 6313 2153 
L 100 2153 
L 100 2703 
z
" transform="scale(0.015625)"/>
      <path id="MicrosoftYaHei-4e2a" d="M 2913 3028 
L 3481 3028 
L 3481 -841 
L 2913 -841 
L 2913 3028 
z
M 3600 5178 
L 3506 5034 
Q 4519 3366 6319 2647 
Q 6125 2341 5988 2084 
Q 4150 3047 3206 4566 
Q 2281 3122 400 1997 
Q 263 2222 81 2491 
Q 2031 3572 2981 5178 
L 3600 5178 
z
" transform="scale(0.015625)"/>
      <path id="MicrosoftYaHei-53ef" d="M 813 3409 
L 3569 3409 
L 3569 941 
L 1306 941 
L 1306 497 
L 813 497 
L 813 3409 
z
M 119 4809 
L 6294 4809 
L 6294 4334 
L 5256 4334 
L 5256 103 
Q 5256 -741 4438 -747 
Q 3850 -747 3294 -741 
Q 3263 -453 3194 -172 
Q 3900 -222 4269 -222 
Q 4731 -222 4731 278 
L 4731 4334 
L 119 4334 
L 119 4809 
z
M 3075 2966 
L 1306 2966 
L 1306 1384 
L 3075 1384 
L 3075 2966 
z
" transform="scale(0.015625)"/>
      <path id="MicrosoftYaHei-9009" d="M 1756 2753 
L 3825 2753 
L 3825 3797 
L 2772 3797 
Q 2584 3322 2381 2947 
Q 2219 3053 1944 3172 
Q 2431 4028 2669 5072 
L 3156 4966 
Q 3047 4575 2928 4228 
L 3825 4228 
L 3825 5316 
L 4313 5316 
L 4313 4228 
L 5944 4228 
L 5944 3797 
L 4313 3797 
L 4313 2753 
L 6244 2753 
L 6244 2322 
L 4769 2322 
L 4769 984 
Q 4769 653 5044 653 
L 5344 653 
Q 5631 653 5675 953 
Q 5713 1197 5744 1691 
Q 5938 1603 6219 1509 
Q 6169 1078 6113 784 
Q 6013 228 5400 228 
L 4938 228 
Q 4288 228 4288 934 
L 4288 2322 
L 3447 2322 
Q 3444 2038 3431 1816 
Q 3394 647 2119 84 
Q 1994 266 1806 503 
Q 2906 959 2950 1816 
Q 2963 2003 2972 2322 
L 1756 2322 
L 1756 2753 
z
M 2694 -197 
L 4000 -209 
L 6300 -166 
Q 6231 -372 6125 -659 
L 3947 -684 
L 2638 -666 
Q 1513 -628 1081 91 
Q 825 -147 331 -747 
L 75 -228 
Q 628 306 875 538 
L 875 2641 
L 131 2641 
L 131 3103 
L 1356 3103 
L 1356 431 
Q 1741 -184 2694 -197 
z
M 856 5203 
Q 1175 4816 1731 4022 
L 1288 3709 
Q 781 4503 456 4934 
L 856 5203 
z
" transform="scale(0.015625)"/>
      <path id="MicrosoftYaHei-56fa" d="M 469 4997 
L 5938 4997 
L 5938 -834 
L 5469 -834 
L 5469 -509 
L 944 -509 
L 944 -841 
L 469 -841 
L 469 4997 
z
M 5469 4541 
L 944 4541 
L 944 -53 
L 5469 -53 
L 5469 4541 
z
M 1869 2459 
L 2963 2459 
L 2963 3216 
L 1313 3216 
L 1313 3641 
L 2963 3641 
L 2963 4366 
L 3425 4366 
L 3425 3641 
L 5081 3641 
L 5081 3216 
L 3425 3216 
L 3425 2459 
L 4531 2459 
L 4531 434 
L 4081 434 
L 4081 691 
L 2319 691 
L 2319 434 
L 1869 434 
L 1869 2459 
z
M 4081 2047 
L 2319 2047 
L 2319 1103 
L 4081 1103 
L 4081 2047 
z
" transform="scale(0.015625)"/>
      <path id="MicrosoftYaHei-5b9a" d="M 81 -384 
Q 1119 509 1281 2241 
L 1806 2159 
Q 1731 1581 1578 1081 
Q 2063 50 3081 -103 
L 3081 2647 
L 225 2647 
L 225 3116 
L 6163 3116 
L 6163 2647 
L 3600 2647 
L 3600 1634 
L 5775 1634 
L 5775 1172 
L 3600 1172 
L 3600 -138 
Q 4844 -169 6306 -116 
Q 6200 -359 6125 -634 
Q 4594 -653 3450 -616 
Q 2041 -616 1378 528 
Q 1022 -300 413 -872 
Q 269 -628 81 -384 
z
M 450 4566 
L 3116 4566 
Q 2931 4834 2725 5091 
L 3200 5347 
Q 3444 5066 3731 4716 
L 3450 4566 
L 5981 4566 
L 5981 3378 
L 5488 3378 
L 5488 4097 
L 944 4097 
L 944 3384 
L 450 3384 
L 450 4566 
z
" transform="scale(0.015625)"/>
      <path id="MicrosoftYaHei-8fb9" d="M 2050 4172 
L 3291 4172 
Q 3306 4772 3306 5291 
L 3831 5291 
Q 3825 4788 3806 4172 
L 5925 4172 
Q 5850 2334 5781 1441 
Q 5694 372 4819 372 
Q 4363 372 3831 397 
Q 3794 653 3738 959 
Q 4344 897 4681 897 
Q 5219 897 5275 1503 
Q 5350 2372 5394 3697 
L 3791 3697 
Q 3744 1225 2044 259 
Q 1894 447 1681 672 
Q 3219 1528 3278 3697 
L 2050 3697 
L 2050 4172 
z
M 2909 -153 
L 4425 -172 
L 6313 -109 
Q 6206 -366 6113 -609 
L 4356 -634 
L 2897 -619 
Q 1644 -597 1156 122 
Q 775 -209 369 -697 
L 100 -166 
Q 609 275 931 550 
L 931 2678 
L 131 2678 
L 131 3134 
L 1431 3134 
L 1431 456 
Q 1894 -125 2909 -153 
z
M 794 5266 
Q 1175 4803 1656 4147 
Q 1431 4016 1206 3853 
Q 819 4453 406 4997 
L 794 5266 
z
" transform="scale(0.015625)"/>
      <path id="MicrosoftYaHei-7f18" d="M 5863 2172 
Q 5569 1950 5234 1731 
Q 5569 613 6325 16 
Q 6100 -172 5975 -391 
Q 5300 266 4922 1531 
Q 4763 1434 4597 1338 
Q 4738 859 4738 278 
Q 4738 -772 3894 -772 
Q 3656 -772 3194 -766 
Q 3169 -503 3113 -259 
Q 3581 -297 3825 -297 
Q 4288 -297 4288 284 
Q 4288 597 4244 878 
Q 3466 34 2256 -478 
Q 2150 -278 2013 -97 
Q 3313 444 4144 1313 
Q 4084 1506 4000 1681 
Q 3188 1034 2213 597 
Q 2094 803 1969 972 
Q 2938 1341 3809 2006 
Q 3716 2141 3603 2263 
Q 3025 1934 2388 1691 
Q 2231 1916 2119 2053 
Q 3009 2313 3706 2728 
L 2138 2728 
L 2138 3128 
L 4872 3128 
L 4931 3572 
L 2675 3572 
L 2988 5259 
L 3425 5259 
L 3344 4834 
L 5531 4834 
L 5303 3128 
L 6188 3128 
L 6188 2728 
L 4331 2728 
Q 4138 2591 3934 2463 
Q 4263 2134 4456 1709 
Q 5041 2053 5588 2478 
L 5863 2172 
z
M 844 1641 
Q 1394 1703 2100 1803 
Q 2075 1522 2075 1359 
Q 869 1241 350 1122 
L 263 1559 
Q 747 2194 1219 2938 
Q 484 2906 225 2853 
L 138 3284 
Q 681 4084 1144 5284 
L 1588 5134 
Q 1106 4103 625 3303 
Q 913 3309 1463 3322 
Q 1709 3728 1956 4166 
L 2375 3966 
Q 1688 2822 844 1641 
z
M 3181 3959 
L 4984 3959 
L 5050 4447 
L 3272 4447 
L 3181 3959 
z
M 150 259 
Q 1188 384 2063 559 
Q 2044 422 2044 97 
Q 894 -84 269 -247 
L 150 259 
z
" transform="scale(0.015625)"/>
     </defs>
     <use xlink:href="#MicrosoftYaHei-7b2c"/>
     <use xlink:href="#MicrosoftYaHei-4e00" transform="translate(100 0)"/>
     <use xlink:href="#MicrosoftYaHei-4e2a" transform="translate(200 0)"/>
     <use xlink:href="#MicrosoftYaHei-53ef" transform="translate(300 0)"/>
     <use xlink:href="#MicrosoftYaHei-9009" transform="translate(400 0)"/>
     <use xlink:href="#MicrosoftYaHei-56fa" transform="translate(500 0)"/>
     <use xlink:href="#MicrosoftYaHei-5b9a" transform="translate(600 0)"/>
     <use xlink:href="#MicrosoftYaHei-8fb9" transform="translate(700 0)"/>
     <use xlink:href="#MicrosoftYaHei-7f18" transform="translate(800 0)"/>
    </g>
    <!-- t ≈ 2.4048 -->
    <g transform="translate(163.826394 115.348737) scale(0.1 -0.1)">
     <defs>
      <path id="MicrosoftYaHei-2248" d="M 4053 3256 
Q 4028 2750 3778 2472 
Q 3528 2194 3094 2194 
Q 2728 2194 2203 2550 
Q 1872 2778 1669 2778 
Q 1203 2778 1184 2191 
L 700 2191 
Q 722 2703 980 2978 
Q 1238 3253 1659 3253 
Q 2019 3253 2456 2959 
Q 2894 2663 3116 2663 
Q 3322 2663 3444 2823 
Q 3566 2984 3572 3256 
L 4053 3256 
z
M 4053 1853 
Q 4028 1347 3778 1067 
Q 3528 788 3094 788 
Q 2725 788 2203 1147 
Q 1878 1369 1669 1369 
Q 1203 1369 1184 784 
L 700 784 
Q 722 1294 980 1572 
Q 1238 1850 1659 1850 
Q 2022 1850 2456 1559 
Q 2906 1256 3116 1256 
Q 3319 1256 3441 1423 
Q 3563 1591 3572 1853 
L 4053 1853 
z
" transform="scale(0.015625)"/>
      <path id="MicrosoftYaHei-34" d="M 2906 4841 
L 2906 1644 
L 3631 1644 
L 3631 1138 
L 2906 1138 
L 2906 0 
L 2313 0 
L 2313 1138 
L 53 1138 
L 53 1616 
Q 656 2294 1265 3178 
Q 1875 4063 2272 4841 
L 2906 4841 
z
M 741 1644 
L 2313 1644 
L 2313 3950 
Q 1988 3366 1616 2817 
Q 1244 2269 741 1644 
z
" transform="scale(0.015625)"/>
      <path id="MicrosoftYaHei-38" d="M 306 1350 
Q 306 1769 556 2122 
Q 806 2475 1200 2625 
Q 884 2803 700 3081 
Q 516 3359 516 3684 
Q 516 4028 692 4312 
Q 869 4597 1183 4759 
Q 1497 4922 1875 4922 
Q 2256 4922 2572 4761 
Q 2888 4600 3063 4315 
Q 3238 4031 3238 3684 
Q 3238 3366 3058 3086 
Q 2878 2806 2559 2625 
Q 2953 2472 3200 2119 
Q 3447 1766 3447 1350 
Q 3447 938 3250 611 
Q 3053 284 2690 103 
Q 2328 -78 1875 -78 
Q 1425 -78 1065 103 
Q 706 284 506 612 
Q 306 941 306 1350 
z
M 906 1378 
Q 906 947 1172 687 
Q 1438 428 1878 428 
Q 2309 428 2582 692 
Q 2856 956 2856 1378 
Q 2856 1778 2579 2051 
Q 2303 2325 1878 2325 
Q 1456 2325 1181 2058 
Q 906 1791 906 1378 
z
M 1081 3634 
Q 1081 3309 1312 3076 
Q 1544 2844 1878 2844 
Q 2206 2844 2445 3078 
Q 2684 3313 2684 3634 
Q 2684 3963 2454 4191 
Q 2225 4419 1878 4419 
Q 1534 4419 1307 4195 
Q 1081 3972 1081 3634 
z
" transform="scale(0.015625)"/>
     </defs>
     <use xlink:href="#MicrosoftYaHei-74"/>
     <use xlink:href="#MicrosoftYaHei-20" transform="translate(37.255859 0)"/>
     <use xlink:href="#MicrosoftYaHei-2248" transform="translate(66.845703 0)"/>
     <use xlink:href="#MicrosoftYaHei-20" transform="translate(141.113281 0)"/>
     <use xlink:href="#MicrosoftYaHei-32" transform="translate(170.703125 0)"/>
     <use xlink:href="#MicrosoftYaHei-2e" transform="translate(229.345703 0)"/>
     <use xlink:href="#MicrosoftYaHei-34" transform="translate(253.417969 0)"/>
     <use xlink:href="#MicrosoftYaHei-30" transform="translate(312.060547 0)"/>
     <use xlink:href="#MicrosoftYaHei-34" transform="translate(370.703125 0)"/>
     <use xlink:href="#MicrosoftYaHei-38" transform="translate(429.345703 0)"/>
    </g>
   </g>
   <g id="text_20">
    <!-- 圆心有限，且 F(0) = R(0) = 2 -->
    <g transform="translate(261.060469 12.59274) scale(0.12 -0.12)">
     <defs>
      <path id="MicrosoftYaHei-5706" d="M 431 5047 
L 5944 5047 
L 5944 -834 
L 5475 -834 
L 5475 -534 
L 900 -534 
L 900 -834 
L 431 -834 
L 431 5047 
z
M 1763 4222 
L 4638 4222 
L 4638 2834 
L 4213 2834 
L 4213 2978 
L 2188 2978 
L 2188 2834 
L 1763 2834 
L 1763 4222 
z
M 3338 1378 
Q 4269 903 5100 384 
L 4825 28 
Q 4131 509 3213 1022 
Q 2919 347 1375 53 
Q 1294 228 1144 466 
Q 2425 672 2738 1097 
Q 2981 1397 2969 2034 
L 3406 2034 
Q 3406 1666 3338 1378 
z
M 1588 2572 
L 4788 2572 
L 4788 1059 
L 4363 1059 
L 4363 2184 
L 2013 2184 
L 2013 1009 
L 1588 1009 
L 1588 2572 
z
M 4213 3366 
L 4213 3834 
L 2188 3834 
L 2188 3366 
L 4213 3366 
z
M 5475 -97 
L 5475 4609 
L 900 4609 
L 900 -97 
L 5475 -97 
z
" transform="scale(0.015625)"/>
      <path id="MicrosoftYaHei-5fc3" d="M 1706 4116 
L 2225 4116 
L 2225 453 
Q 2225 -116 2731 -116 
L 4075 -116 
Q 4613 -116 4681 334 
Q 4750 728 4800 1278 
Q 5063 1172 5338 1078 
Q 5244 422 5163 97 
Q 4994 -603 4175 -603 
L 2606 -603 
Q 1706 -603 1706 334 
L 1706 4116 
z
M 5231 3641 
Q 5763 2634 6338 1353 
L 5819 1097 
Q 5338 2309 4763 3422 
L 5231 3641 
z
M 788 3447 
L 1288 3309 
Q 1000 1978 600 722 
L 100 916 
Q 513 2091 788 3447 
z
M 3081 5372 
Q 3675 4384 4088 3591 
Q 3794 3441 3588 3322 
Q 3150 4291 2644 5147 
L 3081 5372 
z
" transform="scale(0.015625)"/>
      <path id="MicrosoftYaHei-6709" d="M 1856 -816 
L 1363 -816 
L 1363 2419 
Q 909 1891 363 1403 
Q 231 1622 63 1859 
Q 1269 2869 1947 4097 
L 238 4097 
L 238 4559 
L 2181 4559 
Q 2359 4950 2488 5359 
L 3006 5241 
Q 2881 4894 2731 4559 
L 6263 4559 
L 6263 4097 
L 2506 4097 
Q 2313 3728 2081 3378 
L 5506 3378 
L 5506 41 
Q 5506 -734 4750 -734 
Q 4419 -741 3744 -741 
Q 3713 -528 3650 -228 
Q 4225 -272 4575 -272 
Q 5006 -272 5006 153 
L 5006 597 
L 1856 597 
L 1856 -816 
z
M 1856 1022 
L 5006 1022 
L 5006 1772 
L 1856 1772 
L 1856 1022 
z
M 5006 2941 
L 1856 2941 
L 1856 2197 
L 5006 2197 
L 5006 2941 
z
" transform="scale(0.015625)"/>
      <path id="MicrosoftYaHei-9650" d="M 2675 4984 
L 5638 4984 
L 5638 1872 
L 5175 1872 
L 5175 2041 
L 4119 2041 
Q 4313 1478 4650 1028 
Q 5213 1384 5838 1909 
L 6169 1516 
Q 5481 1034 4944 691 
Q 5488 141 6313 -191 
Q 6081 -416 5913 -647 
Q 4175 266 3675 2041 
L 3138 2041 
L 3138 -84 
Q 3556 103 4231 466 
Q 4238 178 4263 -28 
Q 3706 -297 3181 -609 
Q 3056 -678 2844 -872 
L 2488 -403 
Q 2675 -241 2675 9 
L 2675 4984 
z
M 2275 1603 
Q 2456 409 1681 266 
Q 1400 209 1050 253 
Q 1000 509 913 778 
Q 1244 697 1488 728 
Q 1913 809 1775 1622 
Q 1688 2122 1206 2747 
Q 1431 3428 1794 4566 
L 869 4566 
L 869 -891 
L 400 -891 
L 400 5003 
L 2294 5003 
L 2294 4566 
Q 1988 3684 1706 2828 
Q 2206 2147 2275 1603 
z
M 5175 2466 
L 5175 3309 
L 3138 3309 
L 3138 2466 
L 5175 2466 
z
M 5175 4559 
L 3138 4559 
L 3138 3728 
L 5175 3728 
L 5175 4559 
z
" transform="scale(0.015625)"/>
      <path id="MicrosoftYaHei-ff0c" d="M 1931 775 
L 1403 -891 
L 966 -891 
L 1350 775 
L 1931 775 
z
" transform="scale(0.015625)"/>
      <path id="MicrosoftYaHei-4e14" d="M 94 -28 
L 956 -28 
L 956 4947 
L 5438 4947 
L 5438 -28 
L 6288 -28 
L 6288 -491 
L 94 -491 
L 94 -28 
z
M 1456 -28 
L 4938 -28 
L 4938 1197 
L 1456 1197 
L 1456 -28 
z
M 1456 1634 
L 4938 1634 
L 4938 2841 
L 1456 2841 
L 1456 1634 
z
M 4938 4484 
L 1456 4484 
L 1456 3278 
L 4938 3278 
L 4938 4484 
z
" transform="scale(0.015625)"/>
     </defs>
     <use xlink:href="#MicrosoftYaHei-5706"/>
     <use xlink:href="#MicrosoftYaHei-5fc3" transform="translate(100 0)"/>
     <use xlink:href="#MicrosoftYaHei-6709" transform="translate(200 0)"/>
     <use xlink:href="#MicrosoftYaHei-9650" transform="translate(300 0)"/>
     <use xlink:href="#MicrosoftYaHei-ff0c" transform="translate(400 0)"/>
     <use xlink:href="#MicrosoftYaHei-4e14" transform="translate(500 0)"/>
     <use xlink:href="#MicrosoftYaHei-20" transform="translate(600 0)"/>
     <use xlink:href="#MicrosoftYaHei-46" transform="translate(629.589844 0)"/>
     <use xlink:href="#MicrosoftYaHei-28" transform="translate(682.714844 0)"/>
     <use xlink:href="#MicrosoftYaHei-30" transform="translate(716.113281 0)"/>
     <use xlink:href="#MicrosoftYaHei-29" transform="translate(774.755859 0)"/>
     <use xlink:href="#MicrosoftYaHei-20" transform="translate(808.154297 0)"/>
     <use xlink:href="#MicrosoftYaHei-3d" transform="translate(837.744141 0)"/>
     <use xlink:href="#MicrosoftYaHei-20" transform="translate(911.914062 0)"/>
     <use xlink:href="#MicrosoftYaHei-52" transform="translate(941.503906 0)"/>
     <use xlink:href="#MicrosoftYaHei-28" transform="translate(1006.787109 0)"/>
     <use xlink:href="#MicrosoftYaHei-30" transform="translate(1040.185547 0)"/>
     <use xlink:href="#MicrosoftYaHei-29" transform="translate(1098.828125 0)"/>
     <use xlink:href="#MicrosoftYaHei-20" transform="translate(1132.226562 0)"/>
     <use xlink:href="#MicrosoftYaHei-3d" transform="translate(1161.816406 0)"/>
     <use xlink:href="#MicrosoftYaHei-20" transform="translate(1235.986328 0)"/>
     <use xlink:href="#MicrosoftYaHei-32" transform="translate(1265.576172 0)"/>
    </g>
   </g>
   <g id="legend_1">
    <g id="patch_9">
     <path d="M 540.39976 42.072427 
L 627.99976 42.072427 
Q 629.99976 42.072427 629.99976 40.072427 
L 629.99976 25.59274 
Q 629.99976 23.59274 627.99976 23.59274 
L 540.39976 23.59274 
Q 538.39976 23.59274 538.39976 25.59274 
L 538.39976 40.072427 
Q 538.39976 42.072427 540.39976 42.072427 
z
" style="fill: #ffffff; opacity: 0.8; stroke: #cccccc; stroke-linejoin: miter"/>
    </g>
    <g id="line2d_36">
     <path d="M 542.39976 32.08649 
L 552.39976 32.08649 
L 562.39976 32.08649 
" style="fill: none; stroke: #2563a6; stroke-width: 2; stroke-linecap: square"/>
    </g>
    <g id="text_21">
     <!-- $F(t)=2J_0(t)$ -->
     <g transform="translate(570.39976 35.58649) scale(0.1 -0.1)">
      <defs>
       <path id="DejaVuSans-Oblique-46" d="M 1081 4666 
L 3756 4666 
L 3653 4134 
L 1606 4134 
L 1338 2759 
L 3188 2759 
L 3084 2228 
L 1234 2228 
L 800 0 
L 172 0 
L 1081 4666 
z
" transform="scale(0.015625)"/>
       <path id="DejaVuSans-28" d="M 1984 4856 
Q 1566 4138 1362 3434 
Q 1159 2731 1159 2009 
Q 1159 1288 1364 580 
Q 1569 -128 1984 -844 
L 1484 -844 
Q 1016 -109 783 600 
Q 550 1309 550 2009 
Q 550 2706 781 3412 
Q 1013 4119 1484 4856 
L 1984 4856 
z
" transform="scale(0.015625)"/>
       <path id="DejaVuSans-Oblique-74" d="M 2706 3500 
L 2619 3053 
L 1472 3053 
L 1100 1153 
Q 1081 1047 1072 975 
Q 1063 903 1063 863 
Q 1063 663 1183 572 
Q 1303 481 1569 481 
L 2150 481 
L 2053 0 
L 1503 0 
Q 991 0 739 200 
Q 488 400 488 806 
Q 488 878 497 964 
Q 506 1050 525 1153 
L 897 3053 
L 409 3053 
L 500 3500 
L 978 3500 
L 1172 4494 
L 1747 4494 
L 1556 3500 
L 2706 3500 
z
" transform="scale(0.015625)"/>
       <path id="DejaVuSans-29" d="M 513 4856 
L 1013 4856 
Q 1481 4119 1714 3412 
Q 1947 2706 1947 2009 
Q 1947 1309 1714 600 
Q 1481 -109 1013 -844 
L 513 -844 
Q 928 -128 1133 580 
Q 1338 1288 1338 2009 
Q 1338 2731 1133 3434 
Q 928 4138 513 4856 
z
" transform="scale(0.015625)"/>
       <path id="DejaVuSans-3d" d="M 678 2906 
L 4684 2906 
L 4684 2381 
L 678 2381 
L 678 2906 
z
M 678 1631 
L 4684 1631 
L 4684 1100 
L 678 1100 
L 678 1631 
z
" transform="scale(0.015625)"/>
       <path id="DejaVuSans-32" d="M 1228 531 
L 3431 531 
L 3431 0 
L 469 0 
L 469 531 
Q 828 903 1448 1529 
Q 2069 2156 2228 2338 
Q 2531 2678 2651 2914 
Q 2772 3150 2772 3378 
Q 2772 3750 2511 3984 
Q 2250 4219 1831 4219 
Q 1534 4219 1204 4116 
Q 875 4013 500 3803 
L 500 4441 
Q 881 4594 1212 4672 
Q 1544 4750 1819 4750 
Q 2544 4750 2975 4387 
Q 3406 4025 3406 3419 
Q 3406 3131 3298 2873 
Q 3191 2616 2906 2266 
Q 2828 2175 2409 1742 
Q 1991 1309 1228 531 
z
" transform="scale(0.015625)"/>
       <path id="DejaVuSans-Oblique-4a" d="M 1069 4666 
L 1703 4666 
L 856 325 
Q 691 -522 298 -901 
Q -94 -1281 -800 -1281 
L -1050 -1281 
L -947 -750 
L -750 -750 
Q -328 -750 -109 -509 
Q 109 -269 225 325 
L 1069 4666 
z
" transform="scale(0.015625)"/>
       <path id="DejaVuSans-30" d="M 2034 4250 
Q 1547 4250 1301 3770 
Q 1056 3291 1056 2328 
Q 1056 1369 1301 889 
Q 1547 409 2034 409 
Q 2525 409 2770 889 
Q 3016 1369 3016 2328 
Q 3016 3291 2770 3770 
Q 2525 4250 2034 4250 
z
M 2034 4750 
Q 2819 4750 3233 4129 
Q 3647 3509 3647 2328 
Q 3647 1150 3233 529 
Q 2819 -91 2034 -91 
Q 1250 -91 836 529 
Q 422 1150 422 2328 
Q 422 3509 836 4129 
Q 1250 4750 2034 4750 
z
" transform="scale(0.015625)"/>
      </defs>
      <use xlink:href="#DejaVuSans-Oblique-46" transform="translate(0 0.125)"/>
      <use xlink:href="#DejaVuSans-28" transform="translate(57.519531 0.125)"/>
      <use xlink:href="#DejaVuSans-Oblique-74" transform="translate(96.533203 0.125)"/>
      <use xlink:href="#DejaVuSans-29" transform="translate(135.742188 0.125)"/>
      <use xlink:href="#DejaVuSans-3d" transform="translate(194.238281 0.125)"/>
      <use xlink:href="#DejaVuSans-32" transform="translate(297.509766 0.125)"/>
      <use xlink:href="#DejaVuSans-Oblique-4a" transform="translate(361.132812 0.125)"/>
      <use xlink:href="#DejaVuSans-30" transform="translate(390.625 -16.28125) scale(0.7)"/>
      <use xlink:href="#DejaVuSans-28" transform="translate(437.895508 0.125)"/>
      <use xlink:href="#DejaVuSans-Oblique-74" transform="translate(476.90918 0.125)"/>
      <use xlink:href="#DejaVuSans-29" transform="translate(516.118164 0.125)"/>
     </g>
    </g>
   </g>
  </g>
 </g>
 <defs>
  <clipPath id="p84419d9e43">
   <rect x="46.033052" y="18.59274" width="588.966707" height="277.647645"/>
  </clipPath>
 </defs>
</svg>
