<?xml version="1.0" encoding="utf-8" standalone="no"?>
<!DOCTYPE svg PUBLIC "-//W3C//DTD SVG 1.1//EN"
  "http://www.w3.org/Graphics/SVG/1.1/DTD/svg11.dtd">
<svg xmlns:xlink="http://www.w3.org/1999/xlink" width="864pt" height="396pt" viewBox="0 0 864 396" xmlns="http://www.w3.org/2000/svg" version="1.1">
 <metadata>
  <rdf:RDF xmlns:dc="http://purl.org/dc/elements/1.1/" xmlns:cc="http://creativecommons.org/ns#" xmlns:rdf="http://www.w3.org/1999/02/22-rdf-syntax-ns#">
   <cc:Work>
    <dc:type rdf:resource="http://purl.org/dc/dcmitype/StillImage"/>
    <dc:date>2026-09-07T18:13:18.339602</dc:date>
    <dc:format>image/svg+xml</dc:format>
    <dc:creator>
     <cc:Agent>
      <dc:title>Matplotlib v3.10.9, https://matplotlib.org/</dc:title>
     </cc:Agent>
    </dc:creator>
   </cc:Work>
  </rdf:RDF>
 </metadata>
 <defs>
  <style type="text/css">*{stroke-linejoin: round; stroke-linecap: butt}</style>
 </defs>
 <g id="figure_1">
  <g id="patch_1">
   <path d="M 0 396 
L 864 396 
L 864 0 
L 0 0 
z
" style="fill: #fbfaf7"/>
  </g>
  <g id="axes_1">
   <g id="patch_2">
    <path d="M 64.8 320.76 
L 437.18961 320.76 
L 437.18961 63.36 
L 64.8 63.36 
z
" style="fill: #ffffff"/>
   </g>
   <g id="matplotlib.axis_1">
    <g id="xtick_1">
     <g id="line2d_1">
      <path d="M 64.8 320.76 
L 64.8 63.36 
" clip-path="url(#pb8c661340a)" style="fill: none; stroke: #b0b0b0; stroke-opacity: 0.16; stroke-width: 0.8; stroke-linecap: square"/>
     </g>
     <g id="line2d_2">
      <defs>
       <path id="mcb56d4732a" d="M 0 0 
L 0 3.5 
" style="stroke: #000000; stroke-width: 0.8"/>
      </defs>
      <g>
       <use xlink:href="#mcb56d4732a" x="64.8" y="320.76" style="stroke: #000000; stroke-width: 0.8"/>
      </g>
     </g>
     <g id="text_1">
      <!-- 0 -->
      <g transform="translate(61.300625 336.118281) scale(0.11 -0.11)">
       <defs>
        <path id="DejaVuSans-30" d="M 2034 4250 
Q 1547 4250 1301 3770 
Q 1056 3291 1056 2328 
Q 1056 1369 1301 889 
Q 1547 409 2034 409 
Q 2525 409 2770 889 
Q 3016 1369 3016 2328 
Q 3016 3291 2770 3770 
Q 2525 4250 2034 4250 
z
M 2034 4750 
Q 2819 4750 3233 4129 
Q 3647 3509 3647 2328 
Q 3647 1150 3233 529 
Q 2819 -91 2034 -91 
Q 1250 -91 836 529 
Q 422 1150 422 2328 
Q 422 3509 836 4129 
Q 1250 4750 2034 4750 
z
" transform="scale(0.015625)"/>
       </defs>
       <use xlink:href="#DejaVuSans-30"/>
      </g>
     </g>
    </g>
    <g id="xtick_2">
     <g id="line2d_3">
      <path d="M 157.897403 320.76 
L 157.897403 63.36 
" clip-path="url(#pb8c661340a)" style="fill: none; stroke: #b0b0b0; stroke-opacity: 0.16; stroke-width: 0.8; stroke-linecap: square"/>
     </g>
     <g id="line2d_4">
      <g>
       <use xlink:href="#mcb56d4732a" x="157.897403" y="320.76" style="stroke: #000000; stroke-width: 0.8"/>
      </g>
     </g>
     <g id="text_2">
      <!-- $\pi/2$ -->
      <g transform="translate(149.427403 336.118281) scale(0.11 -0.11)">
       <defs>
        <path id="DejaVuSans-Oblique-3c0" d="M 584 3500 
L 3938 3500 
L 3825 2925 
L 3384 2925 
L 2966 775 
Q 2922 550 2981 450 
Q 3038 353 3209 353 
Q 3256 353 3325 363 
Q 3397 369 3419 372 
L 3338 -44 
Q 3222 -84 3103 -103 
Q 2981 -122 2866 -122 
Q 2491 -122 2388 81 
Q 2284 288 2391 838 
L 2797 2925 
L 1506 2925 
L 938 0 
L 350 0 
L 919 2925 
L 472 2925 
L 584 3500 
z
" transform="scale(0.015625)"/>
        <path id="DejaVuSans-2f" d="M 1625 4666 
L 2156 4666 
L 531 -594 
L 0 -594 
L 1625 4666 
z
" transform="scale(0.015625)"/>
        <path id="DejaVuSans-32" d="M 1228 531 
L 3431 531 
L 3431 0 
L 469 0 
L 469 531 
Q 828 903 1448 1529 
Q 2069 2156 2228 2338 
Q 2531 2678 2651 2914 
Q 2772 3150 2772 3378 
Q 2772 3750 2511 3984 
Q 2250 4219 1831 4219 
Q 1534 4219 1204 4116 
Q 875 4013 500 3803 
L 500 4441 
Q 881 4594 1212 4672 
Q 1544 4750 1819 4750 
Q 2544 4750 2975 4387 
Q 3406 4025 3406 3419 
Q 3406 3131 3298 2873 
Q 3191 2616 2906 2266 
Q 2828 2175 2409 1742 
Q 1991 1309 1228 531 
z
" transform="scale(0.015625)"/>
       </defs>
       <use xlink:href="#DejaVuSans-Oblique-3c0" transform="translate(0 0.78125)"/>
       <use xlink:href="#DejaVuSans-2f" transform="translate(60.205078 0.78125)"/>
       <use xlink:href="#DejaVuSans-32" transform="translate(90.271484 0.78125)"/>
      </g>
     </g>
    </g>
    <g id="xtick_3">
     <g id="line2d_5">
      <path d="M 250.994805 320.76 
L 250.994805 63.36 
" clip-path="url(#pb8c661340a)" style="fill: none; stroke: #b0b0b0; stroke-opacity: 0.16; stroke-width: 0.8; stroke-linecap: square"/>
     </g>
     <g id="line2d_6">
      <g>
       <use xlink:href="#mcb56d4732a" x="250.994805" y="320.76" style="stroke: #000000; stroke-width: 0.8"/>
      </g>
     </g>
     <g id="text_3">
      <!-- $\pi$ -->
      <g transform="translate(247.639805 336.118281) scale(0.11 -0.11)">
       <use xlink:href="#DejaVuSans-Oblique-3c0" transform="translate(0 0.3125)"/>
      </g>
     </g>
    </g>
    <g id="xtick_4">
     <g id="line2d_7">
      <path d="M 344.092208 320.76 
L 344.092208 63.36 
" clip-path="url(#pb8c661340a)" style="fill: none; stroke: #b0b0b0; stroke-opacity: 0.16; stroke-width: 0.8; stroke-linecap: square"/>
     </g>
     <g id="line2d_8">
      <g>
       <use xlink:href="#mcb56d4732a" x="344.092208" y="320.76" style="stroke: #000000; stroke-width: 0.8"/>
      </g>
     </g>
     <g id="text_4">
      <!-- $3\pi/2$ -->
      <g transform="translate(332.102208 336.118281) scale(0.11 -0.11)">
       <defs>
        <path id="DejaVuSans-33" d="M 2597 2516 
Q 3050 2419 3304 2112 
Q 3559 1806 3559 1356 
Q 3559 666 3084 287 
Q 2609 -91 1734 -91 
Q 1441 -91 1130 -33 
Q 819 25 488 141 
L 488 750 
Q 750 597 1062 519 
Q 1375 441 1716 441 
Q 2309 441 2620 675 
Q 2931 909 2931 1356 
Q 2931 1769 2642 2001 
Q 2353 2234 1838 2234 
L 1294 2234 
L 1294 2753 
L 1863 2753 
Q 2328 2753 2575 2939 
Q 2822 3125 2822 3475 
Q 2822 3834 2567 4026 
Q 2313 4219 1838 4219 
Q 1578 4219 1281 4162 
Q 984 4106 628 3988 
L 628 4550 
Q 988 4650 1302 4700 
Q 1616 4750 1894 4750 
Q 2613 4750 3031 4423 
Q 3450 4097 3450 3541 
Q 3450 3153 3228 2886 
Q 3006 2619 2597 2516 
z
" transform="scale(0.015625)"/>
       </defs>
       <use xlink:href="#DejaVuSans-33" transform="translate(0 0.78125)"/>
       <use xlink:href="#DejaVuSans-Oblique-3c0" transform="translate(63.623047 0.78125)"/>
       <use xlink:href="#DejaVuSans-2f" transform="translate(123.828125 0.78125)"/>
       <use xlink:href="#DejaVuSans-32" transform="translate(153.894531 0.78125)"/>
      </g>
     </g>
    </g>
    <g id="xtick_5">
     <g id="line2d_9">
      <path d="M 437.18961 320.76 
L 437.18961 63.36 
" clip-path="url(#pb8c661340a)" style="fill: none; stroke: #b0b0b0; stroke-opacity: 0.16; stroke-width: 0.8; stroke-linecap: square"/>
     </g>
     <g id="line2d_10">
      <g>
       <use xlink:href="#mcb56d4732a" x="437.18961" y="320.76" style="stroke: #000000; stroke-width: 0.8"/>
      </g>
     </g>
     <g id="text_5">
      <!-- $2\pi$ -->
      <g transform="translate(430.36961 336.118281) scale(0.11 -0.11)">
       <use xlink:href="#DejaVuSans-32" transform="translate(0 0.78125)"/>
       <use xlink:href="#DejaVuSans-Oblique-3c0" transform="translate(63.623047 0.78125)"/>
      </g>
     </g>
    </g>
    <g id="text_6">
     <!-- 时间 t -->
     <g transform="translate(237.652618 350.399687) scale(0.1 -0.1)">
      <defs>
       <path id="MicrosoftYaHei-65f6" d="M 344 4728 
L 2500 4728 
L 2500 -366 
L 2006 -366 
L 2006 153 
L 838 153 
L 838 -441 
L 344 -441 
L 344 4728 
z
M 2706 3941 
L 4925 3941 
L 4925 5322 
L 5425 5322 
L 5425 3941 
L 6313 3941 
L 6313 3478 
L 5425 3478 
L 5425 116 
Q 5425 -722 4625 -722 
Q 4263 -722 3563 -703 
Q 3531 -478 3463 -178 
Q 4119 -228 4488 -228 
Q 4925 -228 4925 216 
L 4925 3478 
L 2706 3478 
L 2706 3941 
z
M 838 616 
L 2006 616 
L 2006 2234 
L 838 2234 
L 838 616 
z
M 2006 4266 
L 838 4266 
L 838 2684 
L 2006 2684 
L 2006 4266 
z
M 3406 2878 
Q 3906 1966 4163 1422 
Q 4000 1347 3663 1172 
Q 3419 1766 2963 2653 
L 3406 2878 
z
" transform="scale(0.015625)"/>
       <path id="MicrosoftYaHei-95f4" d="M 1863 3647 
L 4513 3647 
L 4513 553 
L 2313 553 
L 2313 166 
L 1863 166 
L 1863 3647 
z
M 2388 4453 
L 2388 4922 
L 6013 4922 
L 6013 -28 
Q 6013 -816 5119 -816 
Q 4756 -816 4169 -803 
Q 4144 -616 4069 -297 
Q 4588 -334 5056 -334 
Q 5525 -334 5525 122 
L 5525 4453 
L 2388 4453 
z
M 419 4084 
L 906 4084 
L 906 -816 
L 419 -816 
L 419 4084 
z
M 2313 997 
L 4063 997 
L 4063 1884 
L 2313 1884 
L 2313 997 
z
M 4063 3203 
L 2313 3203 
L 2313 2328 
L 4063 2328 
L 4063 3203 
z
M 744 5003 
L 1100 5322 
Q 1575 4872 1981 4447 
L 1575 4091 
Q 1194 4541 744 5003 
z
" transform="scale(0.015625)"/>
       <path id="MicrosoftYaHei-20" transform="scale(0.015625)"/>
       <path id="MicrosoftYaHei-74" d="M 2206 34 
Q 2006 -75 1666 -75 
Q 738 -75 738 953 
L 738 2950 
L 144 2950 
L 144 3456 
L 738 3456 
L 738 4288 
L 1347 4481 
L 1347 3456 
L 2206 3456 
L 2206 2950 
L 1347 2950 
L 1347 1063 
Q 1347 722 1462 575 
Q 1578 428 1847 428 
Q 2053 428 2206 544 
L 2206 34 
z
" transform="scale(0.015625)"/>
      </defs>
      <use xlink:href="#MicrosoftYaHei-65f6"/>
      <use xlink:href="#MicrosoftYaHei-95f4" transform="translate(100 0)"/>
      <use xlink:href="#MicrosoftYaHei-20" transform="translate(200 0)"/>
      <use xlink:href="#MicrosoftYaHei-74" transform="translate(229.589844 0)"/>
     </g>
    </g>
   </g>
   <g id="matplotlib.axis_2">
    <g id="ytick_1">
     <g id="line2d_11">
      <path d="M 64.8 283.988571 
L 437.18961 283.988571 
" clip-path="url(#pb8c661340a)" style="fill: none; stroke: #b0b0b0; stroke-opacity: 0.16; stroke-width: 0.8; stroke-linecap: square"/>
     </g>
     <g id="line2d_12">
      <defs>
       <path id="mf7b8993c41" d="M 0 0 
L -3.5 0 
" style="stroke: #000000; stroke-width: 0.8"/>
      </defs>
      <g>
       <use xlink:href="#mf7b8993c41" x="64.8" y="283.988571" style="stroke: #000000; stroke-width: 0.8"/>
      </g>
     </g>
     <g id="text_7">
      <!-- -1.0 -->
      <g transform="translate(36.337969 288.167712) scale(0.11 -0.11)">
       <defs>
        <path id="DejaVuSans-2d" d="M 313 2009 
L 1997 2009 
L 1997 1497 
L 313 1497 
L 313 2009 
z
" transform="scale(0.015625)"/>
        <path id="DejaVuSans-31" d="M 794 531 
L 1825 531 
L 1825 4091 
L 703 3866 
L 703 4441 
L 1819 4666 
L 2450 4666 
L 2450 531 
L 3481 531 
L 3481 0 
L 794 0 
L 794 531 
z
" transform="scale(0.015625)"/>
        <path id="DejaVuSans-2e" d="M 684 794 
L 1344 794 
L 1344 0 
L 684 0 
L 684 794 
z
" transform="scale(0.015625)"/>
       </defs>
       <use xlink:href="#DejaVuSans-2d"/>
       <use xlink:href="#DejaVuSans-31" transform="translate(36.083984 0)"/>
       <use xlink:href="#DejaVuSans-2e" transform="translate(99.707031 0)"/>
       <use xlink:href="#DejaVuSans-30" transform="translate(131.494141 0)"/>
      </g>
     </g>
    </g>
    <g id="ytick_2">
     <g id="line2d_13">
      <path d="M 64.8 238.024286 
L 437.18961 238.024286 
" clip-path="url(#pb8c661340a)" style="fill: none; stroke: #b0b0b0; stroke-opacity: 0.16; stroke-width: 0.8; stroke-linecap: square"/>
     </g>
     <g id="line2d_14">
      <g>
       <use xlink:href="#mf7b8993c41" x="64.8" y="238.024286" style="stroke: #000000; stroke-width: 0.8"/>
      </g>
     </g>
     <g id="text_8">
      <!-- -0.5 -->
      <g transform="translate(36.337969 242.203426) scale(0.11 -0.11)">
       <defs>
        <path id="DejaVuSans-35" d="M 691 4666 
L 3169 4666 
L 3169 4134 
L 1269 4134 
L 1269 2991 
Q 1406 3038 1543 3061 
Q 1681 3084 1819 3084 
Q 2600 3084 3056 2656 
Q 3513 2228 3513 1497 
Q 3513 744 3044 326 
Q 2575 -91 1722 -91 
Q 1428 -91 1123 -41 
Q 819 9 494 109 
L 494 744 
Q 775 591 1075 516 
Q 1375 441 1709 441 
Q 2250 441 2565 725 
Q 2881 1009 2881 1497 
Q 2881 1984 2565 2268 
Q 2250 2553 1709 2553 
Q 1456 2553 1204 2497 
Q 953 2441 691 2322 
L 691 4666 
z
" transform="scale(0.015625)"/>
       </defs>
       <use xlink:href="#DejaVuSans-2d"/>
       <use xlink:href="#DejaVuSans-30" transform="translate(36.083984 0)"/>
       <use xlink:href="#DejaVuSans-2e" transform="translate(99.707031 0)"/>
       <use xlink:href="#DejaVuSans-35" transform="translate(131.494141 0)"/>
      </g>
     </g>
    </g>
    <g id="ytick_3">
     <g id="line2d_15">
      <path d="M 64.8 192.06 
L 437.18961 192.06 
" clip-path="url(#pb8c661340a)" style="fill: none; stroke: #b0b0b0; stroke-opacity: 0.16; stroke-width: 0.8; stroke-linecap: square"/>
     </g>
     <g id="line2d_16">
      <g>
       <use xlink:href="#mf7b8993c41" x="64.8" y="192.06" style="stroke: #000000; stroke-width: 0.8"/>
      </g>
     </g>
     <g id="text_9">
      <!-- 0.0 -->
      <g transform="translate(40.306562 196.239141) scale(0.11 -0.11)">
       <use xlink:href="#DejaVuSans-30"/>
       <use xlink:href="#DejaVuSans-2e" transform="translate(63.623047 0)"/>
       <use xlink:href="#DejaVuSans-30" transform="translate(95.410156 0)"/>
      </g>
     </g>
    </g>
    <g id="ytick_4">
     <g id="line2d_17">
      <path d="M 64.8 146.095714 
L 437.18961 146.095714 
" clip-path="url(#pb8c661340a)" style="fill: none; stroke: #b0b0b0; stroke-opacity: 0.16; stroke-width: 0.8; stroke-linecap: square"/>
     </g>
     <g id="line2d_18">
      <g>
       <use xlink:href="#mf7b8993c41" x="64.8" y="146.095714" style="stroke: #000000; stroke-width: 0.8"/>
      </g>
     </g>
     <g id="text_10">
      <!-- 0.5 -->
      <g transform="translate(40.306562 150.274855) scale(0.11 -0.11)">
       <use xlink:href="#DejaVuSans-30"/>
       <use xlink:href="#DejaVuSans-2e" transform="translate(63.623047 0)"/>
       <use xlink:href="#DejaVuSans-35" transform="translate(95.410156 0)"/>
      </g>
     </g>
    </g>
    <g id="ytick_5">
     <g id="line2d_19">
      <path d="M 64.8 100.131429 
L 437.18961 100.131429 
" clip-path="url(#pb8c661340a)" style="fill: none; stroke: #b0b0b0; stroke-opacity: 0.16; stroke-width: 0.8; stroke-linecap: square"/>
     </g>
     <g id="line2d_20">
      <g>
       <use xlink:href="#mf7b8993c41" x="64.8" y="100.131429" style="stroke: #000000; stroke-width: 0.8"/>
      </g>
     </g>
     <g id="text_11">
      <!-- 1.0 -->
      <g transform="translate(40.306562 104.310569) scale(0.11 -0.11)">
       <use xlink:href="#DejaVuSans-31"/>
       <use xlink:href="#DejaVuSans-2e" transform="translate(63.623047 0)"/>
       <use xlink:href="#DejaVuSans-30" transform="translate(95.410156 0)"/>
      </g>
     </g>
    </g>
    <g id="text_12">
     <!-- 位置 x / 速度 v -->
     <g transform="translate(29.852031 225.273281) rotate(-90) scale(0.1 -0.1)">
      <defs>
       <path id="MicrosoftYaHei-4f4d" d="M 1788 -59 
L 4228 -59 
Q 4678 1144 5269 3372 
L 5831 3203 
Q 5453 2044 4756 -59 
L 6319 -59 
L 6319 -522 
L 1788 -522 
L 1788 -59 
z
M 81 2291 
Q 975 3641 1431 5322 
L 1963 5191 
Q 1703 4397 1406 3709 
L 1406 -853 
L 938 -853 
L 938 2731 
Q 644 2181 319 1716 
Q 231 1953 81 2291 
z
M 1919 4191 
L 4122 4191 
Q 3844 4659 3506 5059 
L 3931 5353 
Q 4206 5034 4613 4497 
L 4150 4191 
L 6206 4191 
L 6206 3728 
L 1919 3728 
L 1919 4191 
z
M 2769 3309 
Q 3181 2184 3669 584 
L 3150 434 
Q 2725 1966 2294 3147 
L 2769 3309 
z
" transform="scale(0.015625)"/>
       <path id="MicrosoftYaHei-7f6e" d="M 94 -284 
L 1025 -284 
L 1025 2609 
L 2938 2609 
L 2938 3016 
L 244 3016 
L 244 3366 
L 2938 3366 
L 2938 3697 
L 3388 3697 
L 3388 3366 
L 6150 3366 
L 6150 3016 
L 3388 3016 
L 3388 2609 
L 5431 2609 
L 5431 -284 
L 6294 -284 
L 6294 -647 
L 94 -647 
L 94 -284 
z
M 638 5034 
L 5756 5034 
L 5756 3641 
L 5331 3641 
L 5331 3784 
L 1069 3784 
L 1069 3641 
L 638 3641 
L 638 5034 
z
M 1463 -284 
L 4994 -284 
L 4994 116 
L 1463 116 
L 1463 -284 
z
M 1463 441 
L 4994 441 
L 4994 834 
L 1463 834 
L 1463 441 
z
M 1463 1159 
L 4994 1159 
L 4994 1553 
L 1463 1553 
L 1463 1159 
z
M 4994 2272 
L 1463 2272 
L 1463 1878 
L 4994 1878 
L 4994 2272 
z
M 5331 4697 
L 4181 4697 
L 4181 4122 
L 5331 4122 
L 5331 4697 
z
M 2625 4122 
L 3769 4122 
L 3769 4697 
L 2625 4697 
L 2625 4122 
z
M 1069 4122 
L 2213 4122 
L 2213 4697 
L 1069 4697 
L 1069 4122 
z
" transform="scale(0.015625)"/>
       <path id="MicrosoftYaHei-78" d="M 3163 3456 
L 2006 1716 
L 3147 0 
L 2434 0 
L 1775 1100 
Q 1722 1188 1625 1369 
L 1613 1369 
Q 1609 1350 1456 1100 
L 784 0 
L 81 0 
L 1256 1697 
L 134 3456 
L 847 3456 
L 1494 2300 
Q 1553 2194 1638 2025 
L 1650 2025 
L 2491 3456 
L 3163 3456 
z
" transform="scale(0.015625)"/>
       <path id="MicrosoftYaHei-2f" d="M 2791 4841 
L 469 -803 
L -103 -803 
L 2219 4841 
L 2791 4841 
z
" transform="scale(0.015625)"/>
       <path id="MicrosoftYaHei-901f" d="M 2231 3572 
L 3800 3572 
L 3800 4178 
L 1938 4178 
L 1938 4609 
L 3800 4609 
L 3800 5291 
L 4263 5291 
L 4263 4609 
L 6225 4609 
L 6225 4178 
L 4263 4178 
L 4263 3572 
L 5831 3572 
L 5831 1778 
L 5381 1778 
L 5381 1972 
L 4263 1972 
L 4263 1522 
L 4425 1772 
Q 5350 1266 6206 766 
L 5919 322 
Q 5044 916 4263 1347 
L 4263 -9 
L 3800 -9 
L 3800 1603 
Q 3044 766 2069 184 
Q 1963 347 1731 591 
Q 2869 1153 3644 1972 
L 2681 1972 
L 2681 1778 
L 2231 1778 
L 2231 3572 
z
M 2663 -222 
Q 4219 -247 6300 -197 
Q 6231 -403 6125 -691 
Q 4056 -703 2569 -666 
Q 1506 -653 1081 66 
Q 825 -172 331 -772 
L 75 -253 
Q 625 278 875 509 
L 875 2616 
L 131 2616 
L 131 3078 
L 1356 3078 
L 1356 403 
Q 1738 -216 2663 -222 
z
M 5381 3166 
L 4263 3166 
L 4263 2378 
L 5381 2378 
L 5381 3166 
z
M 2681 2378 
L 3800 2378 
L 3800 3166 
L 2681 3166 
L 2681 2378 
z
M 800 5178 
Q 1119 4791 1675 3997 
L 1231 3684 
Q 725 4478 400 4909 
L 800 5178 
z
" transform="scale(0.015625)"/>
       <path id="MicrosoftYaHei-5ea6" d="M 1550 1216 
L 1550 1628 
L 5469 1628 
L 5469 1222 
Q 4903 613 4147 163 
Q 5050 -200 6263 -309 
L 6019 -797 
Q 4625 -603 3644 -109 
Q 2600 -619 1250 -866 
Q 1150 -666 994 -416 
Q 2231 -222 3166 166 
Q 2497 600 2066 1216 
L 1550 1216 
z
M 1363 3541 
L 2294 3541 
L 2294 4066 
L 2769 4066 
L 2769 3541 
L 4538 3541 
L 4538 4072 
L 5013 4072 
L 5013 3541 
L 6150 3541 
L 6150 3128 
L 5013 3128 
L 5013 1928 
L 4538 1928 
L 4538 2147 
L 2769 2147 
L 2769 1922 
L 2294 1922 
L 2294 3128 
L 1363 3128 
L 1363 3541 
z
M 3025 5172 
L 3481 5391 
Q 3694 5056 3909 4634 
L 6213 4634 
L 6213 4197 
L 1225 4197 
L 1225 2316 
Q 1225 178 394 -872 
Q 238 -666 38 -447 
Q 725 397 738 2347 
L 738 4634 
L 3331 4634 
Q 3188 4909 3025 5172 
z
M 2769 2547 
L 4538 2547 
L 4538 3128 
L 2769 3128 
L 2769 2547 
z
M 4819 1216 
L 2588 1216 
Q 3031 728 3656 391 
Q 4334 741 4819 1216 
z
" transform="scale(0.015625)"/>
       <path id="MicrosoftYaHei-76" d="M 3331 3456 
L 1963 0 
L 1344 0 
L 44 3456 
L 713 3456 
L 1556 988 
Q 1659 691 1678 491 
L 1694 491 
Q 1725 753 1803 975 
L 2688 3456 
L 3331 3456 
z
" transform="scale(0.015625)"/>
      </defs>
      <use xlink:href="#MicrosoftYaHei-4f4d"/>
      <use xlink:href="#MicrosoftYaHei-7f6e" transform="translate(100 0)"/>
      <use xlink:href="#MicrosoftYaHei-20" transform="translate(200 0)"/>
      <use xlink:href="#MicrosoftYaHei-78" transform="translate(229.589844 0)"/>
      <use xlink:href="#MicrosoftYaHei-20" transform="translate(280.273438 0)"/>
      <use xlink:href="#MicrosoftYaHei-2f" transform="translate(309.863281 0)"/>
      <use xlink:href="#MicrosoftYaHei-20" transform="translate(352.587891 0)"/>
      <use xlink:href="#MicrosoftYaHei-901f" transform="translate(382.177734 0)"/>
      <use xlink:href="#MicrosoftYaHei-5ea6" transform="translate(482.177734 0)"/>
      <use xlink:href="#MicrosoftYaHei-20" transform="translate(582.177734 0)"/>
      <use xlink:href="#MicrosoftYaHei-76" transform="translate(611.767578 0)"/>
     </g>
    </g>
   </g>
   <g id="line2d_21">
    <path d="M 64.8 100.131429 
L 67.903247 100.257413 
L 71.006494 100.635023 
L 74.10974 101.263222 
L 77.212987 102.140288 
L 80.316234 103.263819 
L 83.419481 104.630733 
L 86.522727 106.237285 
L 89.625974 108.079071 
L 92.729221 110.151043 
L 96.453117 112.933215 
L 100.177013 116.027664 
L 103.900909 119.422179 
L 107.624805 123.103361 
L 111.969351 127.740949 
L 116.313896 132.723997 
L 120.658442 138.025741 
L 125.623636 144.438517 
L 131.209481 152.049827 
L 137.415974 160.920307 
L 144.863766 172.006403 
L 154.794156 187.24883 
L 172.172338 213.98804 
L 179.62013 225.004254 
L 185.826623 233.794698 
L 191.412468 241.317792 
L 196.377662 247.639933 
L 200.722208 252.853455 
L 205.066753 257.740453 
L 209.411299 262.274678 
L 213.135195 265.861864 
L 216.859091 269.157787 
L 220.582987 272.149441 
L 224.306883 274.825018 
L 227.41013 276.805563 
L 230.513377 278.553825 
L 233.616623 280.065014 
L 236.71987 281.334987 
L 239.823117 282.360264 
L 242.926364 283.138034 
L 246.02961 283.666165 
L 249.132857 283.94321 
L 252.236104 283.96841 
L 255.339351 283.741695 
L 258.442597 283.263687 
L 261.545844 282.535696 
L 264.649091 281.559718 
L 267.752338 280.338427 
L 270.855584 278.875171 
L 273.958831 277.17396 
L 277.062078 275.239458 
L 280.165325 273.076967 
L 283.889221 270.189421 
L 287.613117 266.993534 
L 291.337013 263.501918 
L 295.060909 259.728354 
L 299.405455 254.989438 
L 303.75 249.912525 
L 308.715195 243.731522 
L 313.68039 237.188081 
L 319.266234 229.450719 
L 325.472727 220.467491 
L 332.920519 209.285697 
L 344.092208 192.06 
L 357.746494 171.068031 
L 365.194286 160.01627 
L 371.400779 151.185323 
L 376.986623 143.617707 
L 381.951818 137.249899 
L 386.917013 131.266545 
L 391.261558 126.379547 
L 395.606104 121.845322 
L 399.33 118.258136 
L 403.053896 114.962213 
L 406.777792 111.970559 
L 410.501688 109.294982 
L 413.604935 107.314437 
L 416.708182 105.566175 
L 419.811429 104.054986 
L 422.914675 102.785013 
L 426.017922 101.759736 
L 429.121169 100.981966 
L 432.224416 100.453835 
L 435.327662 100.17679 
L 437.18961 100.131429 
L 437.18961 100.131429 
" clip-path="url(#pb8c661340a)" style="fill: none; stroke: #2563eb; stroke-width: 2.5; stroke-linecap: square"/>
   </g>
   <g id="line2d_22">
    <path d="M 64.8 192.06 
L 78.454286 213.051969 
L 85.902078 224.10373 
L 92.108571 232.934677 
L 97.694416 240.502293 
L 102.65961 246.870101 
L 107.624805 252.853455 
L 111.969351 257.740453 
L 116.313896 262.274678 
L 120.037792 265.861864 
L 123.761688 269.157787 
L 127.485584 272.149441 
L 131.209481 274.825018 
L 134.312727 276.805563 
L 137.415974 278.553825 
L 140.519221 280.065014 
L 143.622468 281.334987 
L 146.725714 282.360264 
L 149.828961 283.138034 
L 152.932208 283.666165 
L 156.035455 283.94321 
L 159.138701 283.96841 
L 162.241948 283.741695 
L 165.345195 283.263687 
L 168.448442 282.535696 
L 171.551688 281.559718 
L 174.654935 280.338427 
L 177.758182 278.875171 
L 180.861429 277.17396 
L 183.964675 275.239458 
L 187.067922 273.076967 
L 190.791818 270.189421 
L 194.515714 266.993534 
L 198.23961 263.501918 
L 201.963506 259.728354 
L 206.308052 254.989438 
L 210.652597 249.912525 
L 215.617792 243.731522 
L 220.582987 237.188081 
L 226.168831 229.450719 
L 232.375325 220.467491 
L 239.823117 209.285697 
L 250.994805 192.06 
L 264.649091 171.068031 
L 272.096883 160.01627 
L 278.303377 151.185323 
L 283.889221 143.617707 
L 288.854416 137.249899 
L 293.81961 131.266545 
L 298.164156 126.379547 
L 302.508701 121.845322 
L 306.232597 118.258136 
L 309.956494 114.962213 
L 313.68039 111.970559 
L 317.404286 109.294982 
L 320.507532 107.314437 
L 323.610779 105.566175 
L 326.714026 104.054986 
L 329.817273 102.785013 
L 332.920519 101.759736 
L 336.023766 100.981966 
L 339.127013 100.453835 
L 342.23026 100.17679 
L 345.333506 100.15159 
L 348.436753 100.378305 
L 351.54 100.856313 
L 354.643247 101.584304 
L 357.746494 102.560282 
L 360.84974 103.781573 
L 363.952987 105.244829 
L 367.056234 106.94604 
L 370.159481 108.880542 
L 373.262727 111.043033 
L 376.986623 113.930579 
L 380.710519 117.126466 
L 384.434416 120.618082 
L 388.158312 124.391646 
L 392.502857 129.130562 
L 396.847403 134.207475 
L 401.812597 140.388478 
L 406.777792 146.931919 
L 412.363636 154.669281 
L 418.57013 163.652509 
L 426.017922 174.834303 
L 437.18961 192.06 
L 437.18961 192.06 
" clip-path="url(#pb8c661340a)" style="fill: none; stroke: #d97706; stroke-width: 2.5; stroke-linecap: square"/>
   </g>
   <g id="line2d_23">
    <path d="M 64.8 192.06 
L 437.18961 192.06 
" clip-path="url(#pb8c661340a)" style="fill: none; stroke: #a0a0a0; stroke-width: 0.8; stroke-linecap: square"/>
   </g>
   <g id="patch_3">
    <path d="M 64.8 320.76 
L 64.8 63.36 
" style="fill: none; stroke: #000000; stroke-width: 0.8; stroke-linejoin: miter; stroke-linecap: square"/>
   </g>
   <g id="patch_4">
    <path d="M 64.8 320.76 
L 437.18961 320.76 
" style="fill: none; stroke: #000000; stroke-width: 0.8; stroke-linejoin: miter; stroke-linecap: square"/>
   </g>
   <g id="text_13">
    <!-- 时间曲线：分别看位置和速度 -->
    <g transform="translate(185.994805 47.36) scale(0.1 -0.1)">
     <defs>
      <path id="MicrosoftYaHei-66f2" d="M 2163 5322 
L 2625 5322 
L 2625 4291 
L 3775 4291 
L 3775 5328 
L 4238 5328 
L 4238 4291 
L 5850 4291 
L 5850 -822 
L 5388 -822 
L 5388 -409 
L 1013 -409 
L 1013 -822 
L 550 -822 
L 550 4291 
L 2163 4291 
L 2163 5322 
z
M 1013 41 
L 2163 41 
L 2163 1753 
L 1013 1753 
L 1013 41 
z
M 4238 41 
L 5388 41 
L 5388 1753 
L 4238 1753 
L 4238 41 
z
M 2625 41 
L 3775 41 
L 3775 1753 
L 2625 1753 
L 2625 41 
z
M 1013 2203 
L 2163 2203 
L 2163 3841 
L 1013 3841 
L 1013 2203 
z
M 5388 3841 
L 4238 3841 
L 4238 2203 
L 5388 2203 
L 5388 3841 
z
M 2625 2203 
L 3775 2203 
L 3775 3841 
L 2625 3841 
L 2625 2203 
z
" transform="scale(0.015625)"/>
      <path id="MicrosoftYaHei-7ebf" d="M 1969 -347 
Q 3144 75 4003 631 
Q 3781 1197 3653 1972 
L 2319 1784 
L 2244 2234 
L 3591 2422 
Q 3538 2859 3513 3356 
L 2381 3228 
L 2306 3678 
L 3488 3809 
Q 3453 4459 3425 5303 
L 3938 5303 
Q 3953 4497 3978 3866 
L 6069 4103 
L 6125 3659 
L 3997 3413 
Q 4019 2919 4069 2488 
L 6225 2791 
L 6281 2347 
L 4128 2041 
Q 4234 1394 4416 916 
Q 5078 1416 5519 2009 
L 5925 1703 
Q 5363 1025 4619 475 
Q 4859 44 5194 -184 
Q 5606 -428 5725 66 
Q 5806 466 5856 953 
Q 6144 828 6338 772 
Q 6231 97 6125 -247 
Q 5944 -778 5506 -778 
Q 5050 -778 4663 -403 
Q 4409 -163 4209 194 
Q 3350 -363 2281 -772 
Q 2169 -597 1969 -347 
z
M 900 1541 
Q 1456 1622 2213 1753 
Q 2175 1522 2156 1272 
Q 1113 1109 325 978 
L 225 1447 
Q 659 1913 1178 2775 
Q 672 2747 225 2703 
L 106 3128 
Q 688 3922 1300 5353 
L 1775 5166 
Q 1131 3897 669 3166 
Q 1041 3178 1422 3194 
Q 1638 3578 1869 4028 
L 2331 3797 
Q 1569 2478 900 1541 
z
M 106 97 
Q 1206 334 2331 616 
Q 2313 366 2313 141 
Q 1269 -103 244 -378 
L 106 97 
z
M 4463 4972 
L 4731 5284 
Q 5175 5003 5681 4609 
L 5381 4247 
Q 4863 4691 4463 4972 
z
" transform="scale(0.015625)"/>
      <path id="MicrosoftYaHei-ff1a" d="M 1606 3531 
Q 1772 3531 1890 3415 
Q 2009 3300 2009 3138 
Q 2009 2975 1893 2858 
Q 1778 2741 1606 2741 
Q 1434 2741 1318 2858 
Q 1203 2975 1203 3138 
Q 1203 3300 1322 3415 
Q 1441 3531 1606 3531 
z
M 1606 716 
Q 1772 716 1890 600 
Q 2009 484 2009 319 
Q 2009 150 1890 36 
Q 1772 -78 1606 -78 
Q 1441 -78 1322 36 
Q 1203 150 1203 319 
Q 1203 484 1322 600 
Q 1441 716 1606 716 
z
" transform="scale(0.015625)"/>
      <path id="MicrosoftYaHei-5206" d="M 900 2559 
L 5056 2559 
Q 5025 1497 4963 484 
Q 4888 -684 3856 -678 
Q 3350 -684 2788 -647 
Q 2750 -384 2700 -116 
Q 3181 -184 3775 -191 
Q 4400 -203 4463 541 
Q 4513 1216 4538 2097 
L 2616 2097 
Q 2541 1053 2181 416 
Q 1706 -422 588 -878 
Q 425 -666 231 -459 
Q 1269 -72 1725 666 
Q 2053 1225 2103 2097 
L 900 2097 
L 900 2559 
z
M 3488 5159 
L 3938 5353 
Q 4625 3678 6350 2847 
Q 6069 2553 5944 2372 
Q 4225 3366 3488 5159 
z
M 50 2766 
Q 1338 3678 2250 5253 
L 2694 5009 
Q 1744 3347 413 2341 
Q 281 2534 50 2766 
z
" transform="scale(0.015625)"/>
      <path id="MicrosoftYaHei-522b" d="M 538 4959 
L 3375 4959 
L 3375 2772 
L 2888 2772 
L 2888 3028 
L 1025 3028 
L 1025 2772 
L 538 2772 
L 538 4959 
z
M 300 2116 
L 1316 2116 
Q 1331 2431 1338 2822 
L 1825 2822 
Q 1816 2431 1797 2116 
L 3431 2116 
Q 3413 1028 3363 328 
Q 3319 -684 2431 -678 
Q 2006 -678 1563 -641 
Q 1531 -347 1469 -122 
Q 1963 -203 2350 -203 
Q 2850 -209 2875 378 
Q 2925 891 2938 1666 
L 1769 1666 
Q 1688 53 431 -859 
Q 300 -666 88 -441 
Q 1238 366 1288 1666 
L 300 1666 
L 300 2116 
z
M 5425 5278 
L 5944 5278 
L 5944 53 
Q 5944 -747 5163 -747 
Q 4756 -747 4175 -741 
Q 4138 -484 4081 -178 
Q 4725 -228 4994 -228 
Q 5425 -228 5425 191 
L 5425 5278 
z
M 4138 4647 
L 4644 4647 
L 4644 666 
L 4138 666 
L 4138 4647 
z
M 2888 4509 
L 1025 4509 
L 1025 3478 
L 2888 3478 
L 2888 4509 
z
" transform="scale(0.015625)"/>
      <path id="MicrosoftYaHei-770b" d="M 188 3191 
L 2094 3191 
Q 2250 3441 2378 3703 
L 600 3703 
L 600 4103 
L 2559 4103 
Q 2663 4347 2744 4600 
Q 1634 4563 581 4541 
Q 544 4741 494 4966 
Q 3475 5009 5750 5153 
L 5825 4728 
Q 4513 4666 3269 4619 
Q 3184 4359 3081 4103 
L 5800 4103 
L 5800 3703 
L 2903 3703 
Q 2778 3444 2634 3191 
L 6275 3191 
L 6275 2791 
L 2384 2791 
Q 2228 2553 2050 2322 
L 5500 2322 
L 5500 -816 
L 5050 -816 
L 5050 -572 
L 1919 -572 
L 1919 -816 
L 1469 -816 
L 1469 1634 
Q 978 1113 375 628 
Q 250 822 75 1053 
Q 1141 1828 1828 2791 
L 188 2791 
L 188 3191 
z
M 1919 -172 
L 5050 -172 
L 5050 272 
L 1919 272 
L 1919 -172 
z
M 5050 1922 
L 1919 1922 
L 1919 1484 
L 5050 1484 
L 5050 1922 
z
M 1919 659 
L 5050 659 
L 5050 1097 
L 1919 1097 
L 1919 659 
z
" transform="scale(0.015625)"/>
      <path id="MicrosoftYaHei-548c" d="M 3263 4553 
L 6025 4553 
L 6025 -666 
L 5525 -666 
L 5525 -59 
L 3763 -59 
L 3763 -666 
L 3263 -666 
L 3263 4553 
z
M 5525 4091 
L 3763 4091 
L 3763 391 
L 5525 391 
L 5525 4091 
z
M 75 897 
Q 788 1841 1206 2997 
L 113 2997 
L 113 3422 
L 1306 3422 
L 1306 4409 
Q 819 4334 319 4272 
Q 263 4478 181 4703 
Q 1481 4847 2700 5128 
L 2844 4691 
Q 2325 4584 1781 4491 
L 1781 3422 
L 2950 3422 
L 2950 2997 
L 1781 2997 
L 1781 2191 
L 2006 2416 
Q 2500 1991 2975 1516 
L 2619 1153 
Q 2244 1584 1781 2034 
L 1781 -872 
L 1306 -872 
L 1306 2128 
Q 938 1203 313 359 
Q 213 603 75 897 
z
" transform="scale(0.015625)"/>
     </defs>
     <use xlink:href="#MicrosoftYaHei-65f6"/>
     <use xlink:href="#MicrosoftYaHei-95f4" transform="translate(100 0)"/>
     <use xlink:href="#MicrosoftYaHei-66f2" transform="translate(200 0)"/>
     <use xlink:href="#MicrosoftYaHei-7ebf" transform="translate(300 0)"/>
     <use xlink:href="#MicrosoftYaHei-ff1a" transform="translate(400 0)"/>
     <use xlink:href="#MicrosoftYaHei-5206" transform="translate(500 0)"/>
     <use xlink:href="#MicrosoftYaHei-522b" transform="translate(600 0)"/>
     <use xlink:href="#MicrosoftYaHei-770b" transform="translate(700 0)"/>
     <use xlink:href="#MicrosoftYaHei-4f4d" transform="translate(800 0)"/>
     <use xlink:href="#MicrosoftYaHei-7f6e" transform="translate(900 0)"/>
     <use xlink:href="#MicrosoftYaHei-548c" transform="translate(1000 0)"/>
     <use xlink:href="#MicrosoftYaHei-901f" transform="translate(1100 0)"/>
     <use xlink:href="#MicrosoftYaHei-5ea6" transform="translate(1200 0)"/>
    </g>
   </g>
   <g id="legend_1">
    <g id="patch_5">
     <path d="M 330.26961 104.451875 
L 429.48961 104.451875 
Q 431.68961 104.451875 431.68961 102.251875 
L 431.68961 71.06 
Q 431.68961 68.86 429.48961 68.86 
L 330.26961 68.86 
Q 328.06961 68.86 328.06961 71.06 
L 328.06961 102.251875 
Q 328.06961 104.451875 330.26961 104.451875 
z
" style="fill: #ffffff; opacity: 0.8; stroke: #cccccc; stroke-linejoin: miter"/>
    </g>
    <g id="line2d_24">
     <path d="M 332.46961 77.768281 
L 343.46961 77.768281 
L 354.46961 77.768281 
" style="fill: none; stroke: #2563eb; stroke-width: 2.5; stroke-linecap: square"/>
    </g>
    <g id="text_14">
     <!-- $x(t)=\cos t$ -->
     <g transform="translate(363.26961 81.618281) scale(0.11 -0.11)">
      <defs>
       <path id="DejaVuSans-Oblique-78" d="M 3841 3500 
L 2234 1784 
L 3219 0 
L 2559 0 
L 1819 1388 
L 531 0 
L -166 0 
L 1556 1844 
L 641 3500 
L 1300 3500 
L 1972 2234 
L 3144 3500 
L 3841 3500 
z
" transform="scale(0.015625)"/>
       <path id="DejaVuSans-28" d="M 1984 4856 
Q 1566 4138 1362 3434 
Q 1159 2731 1159 2009 
Q 1159 1288 1364 580 
Q 1569 -128 1984 -844 
L 1484 -844 
Q 1016 -109 783 600 
Q 550 1309 550 2009 
Q 550 2706 781 3412 
Q 1013 4119 1484 4856 
L 1984 4856 
z
" transform="scale(0.015625)"/>
       <path id="DejaVuSans-Oblique-74" d="M 2706 3500 
L 2619 3053 
L 1472 3053 
L 1100 1153 
Q 1081 1047 1072 975 
Q 1063 903 1063 863 
Q 1063 663 1183 572 
Q 1303 481 1569 481 
L 2150 481 
L 2053 0 
L 1503 0 
Q 991 0 739 200 
Q 488 400 488 806 
Q 488 878 497 964 
Q 506 1050 525 1153 
L 897 3053 
L 409 3053 
L 500 3500 
L 978 3500 
L 1172 4494 
L 1747 4494 
L 1556 3500 
L 2706 3500 
z
" transform="scale(0.015625)"/>
       <path id="DejaVuSans-29" d="M 513 4856 
L 1013 4856 
Q 1481 4119 1714 3412 
Q 1947 2706 1947 2009 
Q 1947 1309 1714 600 
Q 1481 -109 1013 -844 
L 513 -844 
Q 928 -128 1133 580 
Q 1338 1288 1338 2009 
Q 1338 2731 1133 3434 
Q 928 4138 513 4856 
z
" transform="scale(0.015625)"/>
       <path id="DejaVuSans-3d" d="M 678 2906 
L 4684 2906 
L 4684 2381 
L 678 2381 
L 678 2906 
z
M 678 1631 
L 4684 1631 
L 4684 1100 
L 678 1100 
L 678 1631 
z
" transform="scale(0.015625)"/>
       <path id="DejaVuSans-63" d="M 3122 3366 
L 3122 2828 
Q 2878 2963 2633 3030 
Q 2388 3097 2138 3097 
Q 1578 3097 1268 2742 
Q 959 2388 959 1747 
Q 959 1106 1268 751 
Q 1578 397 2138 397 
Q 2388 397 2633 464 
Q 2878 531 3122 666 
L 3122 134 
Q 2881 22 2623 -34 
Q 2366 -91 2075 -91 
Q 1284 -91 818 406 
Q 353 903 353 1747 
Q 353 2603 823 3093 
Q 1294 3584 2113 3584 
Q 2378 3584 2631 3529 
Q 2884 3475 3122 3366 
z
" transform="scale(0.015625)"/>
       <path id="DejaVuSans-6f" d="M 1959 3097 
Q 1497 3097 1228 2736 
Q 959 2375 959 1747 
Q 959 1119 1226 758 
Q 1494 397 1959 397 
Q 2419 397 2687 759 
Q 2956 1122 2956 1747 
Q 2956 2369 2687 2733 
Q 2419 3097 1959 3097 
z
M 1959 3584 
Q 2709 3584 3137 3096 
Q 3566 2609 3566 1747 
Q 3566 888 3137 398 
Q 2709 -91 1959 -91 
Q 1206 -91 779 398 
Q 353 888 353 1747 
Q 353 2609 779 3096 
Q 1206 3584 1959 3584 
z
" transform="scale(0.015625)"/>
       <path id="DejaVuSans-73" d="M 2834 3397 
L 2834 2853 
Q 2591 2978 2328 3040 
Q 2066 3103 1784 3103 
Q 1356 3103 1142 2972 
Q 928 2841 928 2578 
Q 928 2378 1081 2264 
Q 1234 2150 1697 2047 
L 1894 2003 
Q 2506 1872 2764 1633 
Q 3022 1394 3022 966 
Q 3022 478 2636 193 
Q 2250 -91 1575 -91 
Q 1294 -91 989 -36 
Q 684 19 347 128 
L 347 722 
Q 666 556 975 473 
Q 1284 391 1588 391 
Q 1994 391 2212 530 
Q 2431 669 2431 922 
Q 2431 1156 2273 1281 
Q 2116 1406 1581 1522 
L 1381 1569 
Q 847 1681 609 1914 
Q 372 2147 372 2553 
Q 372 3047 722 3315 
Q 1072 3584 1716 3584 
Q 2034 3584 2315 3537 
Q 2597 3491 2834 3397 
z
" transform="scale(0.015625)"/>
      </defs>
      <use xlink:href="#DejaVuSans-Oblique-78" transform="translate(0 0.125)"/>
      <use xlink:href="#DejaVuSans-28" transform="translate(59.179688 0.125)"/>
      <use xlink:href="#DejaVuSans-Oblique-74" transform="translate(98.193359 0.125)"/>
      <use xlink:href="#DejaVuSans-29" transform="translate(137.402344 0.125)"/>
      <use xlink:href="#DejaVuSans-3d" transform="translate(195.898438 0.125)"/>
      <use xlink:href="#DejaVuSans-63" transform="translate(299.169922 0.125)"/>
      <use xlink:href="#DejaVuSans-6f" transform="translate(354.150391 0.125)"/>
      <use xlink:href="#DejaVuSans-73" transform="translate(415.332031 0.125)"/>
      <use xlink:href="#DejaVuSans-Oblique-74" transform="translate(483.667317 0.125)"/>
     </g>
    </g>
    <g id="line2d_25">
     <path d="M 332.46961 93.914219 
L 343.46961 93.914219 
L 354.46961 93.914219 
" style="fill: none; stroke: #d97706; stroke-width: 2.5; stroke-linecap: square"/>
    </g>
    <g id="text_15">
     <!-- $v(t)=-\sin t$ -->
     <g transform="translate(363.26961 97.764219) scale(0.11 -0.11)">
      <defs>
       <path id="DejaVuSans-Oblique-76" d="M 459 3500 
L 1069 3500 
L 1581 525 
L 3256 3500 
L 3866 3500 
L 1875 0 
L 1100 0 
L 459 3500 
z
" transform="scale(0.015625)"/>
       <path id="DejaVuSans-2212" d="M 678 2272 
L 4684 2272 
L 4684 1741 
L 678 1741 
L 678 2272 
z
" transform="scale(0.015625)"/>
       <path id="DejaVuSans-69" d="M 603 3500 
L 1178 3500 
L 1178 0 
L 603 0 
L 603 3500 
z
M 603 4863 
L 1178 4863 
L 1178 4134 
L 603 4134 
L 603 4863 
z
" transform="scale(0.015625)"/>
       <path id="DejaVuSans-6e" d="M 3513 2113 
L 3513 0 
L 2938 0 
L 2938 2094 
Q 2938 2591 2744 2837 
Q 2550 3084 2163 3084 
Q 1697 3084 1428 2787 
Q 1159 2491 1159 1978 
L 1159 0 
L 581 0 
L 581 3500 
L 1159 3500 
L 1159 2956 
Q 1366 3272 1645 3428 
Q 1925 3584 2291 3584 
Q 2894 3584 3203 3211 
Q 3513 2838 3513 2113 
z
" transform="scale(0.015625)"/>
      </defs>
      <use xlink:href="#DejaVuSans-Oblique-76" transform="translate(0 0.015625)"/>
      <use xlink:href="#DejaVuSans-28" transform="translate(59.179688 0.015625)"/>
      <use xlink:href="#DejaVuSans-Oblique-74" transform="translate(98.193359 0.015625)"/>
      <use xlink:href="#DejaVuSans-29" transform="translate(137.402344 0.015625)"/>
      <use xlink:href="#DejaVuSans-3d" transform="translate(195.898438 0.015625)"/>
      <use xlink:href="#DejaVuSans-2212" transform="translate(299.169922 0.015625)"/>
      <use xlink:href="#DejaVuSans-73" transform="translate(382.958984 0.015625)"/>
      <use xlink:href="#DejaVuSans-69" transform="translate(435.058594 0.015625)"/>
      <use xlink:href="#DejaVuSans-6e" transform="translate(462.841797 0.015625)"/>
      <use xlink:href="#DejaVuSans-Oblique-74" transform="translate(542.456379 0.015625)"/>
     </g>
    </g>
   </g>
  </g>
  <g id="axes_2">
   <g id="patch_6">
    <path d="M 541.900519 320.76 
L 806.654805 320.76 
L 806.654805 63.36 
L 541.900519 63.36 
z
" style="fill: #ffffff"/>
   </g>
   <g id="matplotlib.axis_3">
    <g id="xtick_6">
     <g id="line2d_26">
      <g>
       <use xlink:href="#mcb56d4732a" x="600.734805" y="320.76" style="stroke: #000000; stroke-width: 0.8"/>
      </g>
     </g>
     <g id="text_16">
      <!-- -1 -->
      <g transform="translate(595.251133 336.118281) scale(0.11 -0.11)">
       <use xlink:href="#DejaVuSans-2d"/>
       <use xlink:href="#DejaVuSans-31" transform="translate(36.083984 0)"/>
      </g>
     </g>
    </g>
    <g id="xtick_7">
     <g id="line2d_27">
      <g>
       <use xlink:href="#mcb56d4732a" x="674.277662" y="320.76" style="stroke: #000000; stroke-width: 0.8"/>
      </g>
     </g>
     <g id="text_17">
      <!-- 0 -->
      <g transform="translate(670.778287 336.118281) scale(0.11 -0.11)">
       <use xlink:href="#DejaVuSans-30"/>
      </g>
     </g>
    </g>
    <g id="xtick_8">
     <g id="line2d_28">
      <g>
       <use xlink:href="#mcb56d4732a" x="747.820519" y="320.76" style="stroke: #000000; stroke-width: 0.8"/>
      </g>
     </g>
     <g id="text_18">
      <!-- 1 -->
      <g transform="translate(744.321144 336.118281) scale(0.11 -0.11)">
       <use xlink:href="#DejaVuSans-31"/>
      </g>
     </g>
    </g>
    <g id="text_19">
     <!-- 位置 x -->
     <g transform="translate(660.2636 350.399687) scale(0.1 -0.1)">
      <use xlink:href="#MicrosoftYaHei-4f4d"/>
      <use xlink:href="#MicrosoftYaHei-7f6e" transform="translate(100 0)"/>
      <use xlink:href="#MicrosoftYaHei-20" transform="translate(200 0)"/>
      <use xlink:href="#MicrosoftYaHei-78" transform="translate(229.589844 0)"/>
     </g>
    </g>
   </g>
   <g id="matplotlib.axis_4">
    <g id="ytick_6">
     <g id="line2d_29">
      <g>
       <use xlink:href="#mf7b8993c41" x="541.900519" y="265.602857" style="stroke: #000000; stroke-width: 0.8"/>
      </g>
     </g>
     <g id="text_20">
      <!-- -1 -->
      <g transform="translate(523.933176 269.781998) scale(0.11 -0.11)">
       <use xlink:href="#DejaVuSans-2d"/>
       <use xlink:href="#DejaVuSans-31" transform="translate(36.083984 0)"/>
      </g>
     </g>
    </g>
    <g id="ytick_7">
     <g id="line2d_30">
      <g>
       <use xlink:href="#mf7b8993c41" x="541.900519" y="192.06" style="stroke: #000000; stroke-width: 0.8"/>
      </g>
     </g>
     <g id="text_21">
      <!-- 0 -->
      <g transform="translate(527.901769 196.239141) scale(0.11 -0.11)">
       <use xlink:href="#DejaVuSans-30"/>
      </g>
     </g>
    </g>
    <g id="ytick_8">
     <g id="line2d_31">
      <g>
       <use xlink:href="#mf7b8993c41" x="541.900519" y="118.517143" style="stroke: #000000; stroke-width: 0.8"/>
      </g>
     </g>
     <g id="text_22">
      <!-- 1 -->
      <g transform="translate(527.901769 122.696283) scale(0.11 -0.11)">
       <use xlink:href="#DejaVuSans-31"/>
      </g>
     </g>
    </g>
    <g id="text_23">
     <!-- 速度 v -->
     <g transform="translate(517.447238 206.163906) rotate(-90) scale(0.1 -0.1)">
      <use xlink:href="#MicrosoftYaHei-901f"/>
      <use xlink:href="#MicrosoftYaHei-5ea6" transform="translate(100 0)"/>
      <use xlink:href="#MicrosoftYaHei-20" transform="translate(200 0)"/>
      <use xlink:href="#MicrosoftYaHei-76" transform="translate(229.589844 0)"/>
     </g>
    </g>
   </g>
   <g id="line2d_32">
    <path d="M 714.726234 192.06 
L 714.617608 195.02238 
L 714.292315 197.96885 
L 713.752101 200.883582 
L 712.999868 203.750923 
L 712.039657 206.555472 
L 710.876624 209.282164 
L 709.517016 211.916356 
L 707.968137 214.443898 
L 706.238304 216.851215 
L 704.336809 219.125377 
L 702.273865 221.25417 
L 700.060552 223.22616 
L 697.708758 225.030755 
L 695.231115 226.658262 
L 692.640929 228.099941 
L 689.952114 229.348048 
L 687.179111 230.395878 
L 684.336813 231.237805 
L 681.440487 231.869306 
L 678.505689 232.28699 
L 675.548183 232.488613 
L 672.583852 232.473091 
L 669.628619 232.240509 
L 666.698356 231.792116 
L 663.808802 231.13032 
L 660.975476 230.258675 
L 658.213598 229.181864 
L 655.538 227.905669 
L 652.963053 226.436945 
L 650.502589 224.783582 
L 648.169821 222.954458 
L 645.97728 220.959399 
L 643.936741 218.80912 
L 642.059165 216.51517 
L 640.354636 214.089871 
L 638.832309 211.546248 
L 637.500361 208.897963 
L 636.365945 206.159241 
L 635.435155 203.344792 
L 634.712989 200.469731 
L 634.203328 197.549501 
L 633.908907 194.599787 
L 633.831309 191.636431 
L 633.97095 188.675351 
L 634.32708 185.732449 
L 634.897787 182.823534 
L 635.680004 179.964227 
L 636.669532 177.169888 
L 637.861054 174.455524 
L 639.248172 171.835714 
L 640.823435 169.32453 
L 642.578382 166.93546 
L 644.503587 164.681334 
L 646.58871 162.57426 
L 648.822552 160.625556 
L 651.193114 158.845688 
L 653.687664 157.244215 
L 656.292805 155.829739 
L 658.994542 154.609858 
L 661.778366 153.591123 
L 664.629325 152.779006 
L 667.532105 152.177869 
L 670.471116 151.790941 
L 673.430571 151.6203 
L 676.394577 151.666862 
L 679.347213 151.930378 
L 682.272619 152.409431 
L 685.155085 153.10145 
L 687.979127 154.002717 
L 690.729578 155.108391 
L 693.391666 156.412534 
L 695.951091 157.908142 
L 698.394107 159.58718 
L 700.707592 161.440631 
L 702.879121 163.458541 
L 704.897031 165.63007 
L 706.750482 167.943556 
L 708.429521 170.386572 
L 709.925128 172.945997 
L 711.229271 175.608084 
L 712.334945 178.358535 
L 713.236212 181.182577 
L 713.928231 184.065043 
L 714.407285 186.99045 
L 714.6708 189.943085 
L 714.726234 192.06 
L 714.726234 192.06 
" clip-path="url(#pe68e7568da)" style="fill: none; stroke: #b0b5bd; stroke-width: 1.4; stroke-linecap: square"/>
   </g>
   <g id="line2d_33">
    <path d="M 780.914805 192.06 
L 780.821266 196.5255 
L 780.540814 200.983166 
L 780.073939 205.425178 
L 779.421463 209.843743 
L 778.584528 214.231109 
L 777.564603 218.579579 
L 776.363478 222.881525 
L 774.98326 227.1294 
L 773.42637 231.315751 
L 771.69554 235.433234 
L 769.793805 239.474625 
L 767.724503 243.432835 
L 765.491263 247.30092 
L 763.098004 251.072094 
L 760.548923 254.73974 
L 757.848494 258.297425 
L 755.001452 261.738906 
L 752.012794 265.058148 
L 748.887762 268.249325 
L 745.631838 271.306841 
L 742.250735 274.225331 
L 738.750385 276.999675 
L 735.136927 279.625006 
L 731.416701 282.096718 
L 727.596234 284.410475 
L 723.682228 286.562218 
L 719.681549 288.548172 
L 715.601217 290.364853 
L 711.44839 292.009073 
L 707.230352 293.47795 
L 702.954504 294.768904 
L 698.628347 295.879673 
L 694.25947 296.808306 
L 689.855539 297.553175 
L 685.424279 298.112973 
L 680.973464 298.486719 
L 676.510902 298.673756 
L 672.044423 298.673756 
L 667.581861 298.486719 
L 663.131046 298.112973 
L 658.699786 297.553175 
L 654.295854 296.808306 
L 649.926978 295.879673 
L 645.600821 294.768904 
L 641.324973 293.47795 
L 637.106935 292.009073 
L 632.954107 290.364853 
L 628.873775 288.548172 
L 624.873097 286.562218 
L 620.959091 284.410475 
L 617.138624 282.096718 
L 613.418398 279.625006 
L 609.80494 276.999675 
L 606.304589 274.225331 
L 602.923486 271.306841 
L 599.667563 268.249325 
L 596.542531 265.058148 
L 593.553872 261.738906 
L 590.706831 258.297425 
L 588.006402 254.73974 
L 585.457321 251.072094 
L 583.064062 247.30092 
L 580.830822 243.432835 
L 578.761519 239.474625 
L 576.859785 235.433234 
L 575.128954 231.315751 
L 573.572064 227.1294 
L 572.191846 222.881525 
L 570.990721 218.579579 
L 569.970797 214.231109 
L 569.133862 209.843743 
L 568.481385 205.425178 
L 568.014511 200.983166 
L 567.734058 196.5255 
L 567.640519 192.06 
L 567.734058 187.5945 
L 568.014511 183.136834 
L 568.481385 178.694822 
L 569.133862 174.276257 
L 569.970797 169.888891 
L 570.990721 165.540421 
L 572.191846 161.238475 
L 573.572064 156.9906 
L 575.128954 152.804249 
L 576.859785 148.686766 
L 578.761519 144.645375 
L 580.830822 140.687165 
L 583.064062 136.81908 
L 585.457321 133.047906 
L 588.006402 129.38026 
L 590.706831 125.822575 
L 593.553872 122.381094 
L 596.542531 119.061852 
L 599.667563 115.870675 
L 602.923486 112.813159 
L 606.304589 109.894669 
L 609.80494 107.120325 
L 613.418398 104.494994 
L 617.138624 102.023282 
L 620.959091 99.709525 
L 624.873097 97.557782 
L 628.873775 95.571828 
L 632.954107 93.755147 
L 637.106935 92.110927 
L 641.324973 90.64205 
L 645.600821 89.351096 
L 649.926978 88.240327 
L 654.295854 87.311694 
L 658.699786 86.566825 
L 663.131046 86.007027 
L 667.581861 85.633281 
L 672.044423 85.446244 
L 676.510902 85.446244 
L 680.973464 85.633281 
L 685.424279 86.007027 
L 689.855539 86.566825 
L 694.25947 87.311694 
L 698.628347 88.240327 
L 702.954504 89.351096 
L 707.230352 90.64205 
L 711.44839 92.110927 
L 715.601217 93.755147 
L 719.681549 95.571828 
L 723.682228 97.557782 
L 727.596234 99.709525 
L 731.416701 102.023282 
L 735.136927 104.494994 
L 738.750385 107.120325 
L 742.250735 109.894669 
L 745.631838 112.813159 
L 748.887762 115.870675 
L 752.012794 119.061852 
L 755.001452 122.381094 
L 757.848494 125.822575 
L 760.548923 129.38026 
L 763.098004 133.047906 
L 765.491263 136.81908 
L 767.724503 140.687165 
L 769.793805 144.645375 
L 771.69554 148.686766 
L 773.42637 152.804249 
L 774.98326 156.9906 
L 776.363478 161.238475 
L 777.564603 165.540421 
L 778.584528 169.888891 
L 779.421463 174.276257 
L 780.073939 178.694822 
L 780.540814 183.136834 
L 780.821266 187.5945 
L 780.914805 192.06 
L 780.914805 192.06 
" clip-path="url(#pe68e7568da)" style="fill: none; stroke: #b0b5bd; stroke-width: 1.4; stroke-linecap: square"/>
   </g>
   <g id="line2d_34">
    <path d="M 747.820519 192.06 
L 747.719732 195.908936 
L 747.417644 199.747322 
L 746.915085 203.564638 
L 746.213432 207.35042 
L 745.314607 211.094292 
L 744.221076 214.785993 
L 742.935834 218.415403 
L 741.462405 221.972575 
L 739.804828 225.447758 
L 737.967645 228.831429 
L 735.955892 232.114311 
L 733.775084 235.287407 
L 731.431197 238.34202 
L 728.930656 241.269777 
L 726.280315 244.062653 
L 723.487439 246.712994 
L 720.559682 249.213534 
L 717.505069 251.557421 
L 714.331973 253.73823 
L 711.049091 255.749983 
L 707.665421 257.587166 
L 704.190237 259.244743 
L 700.633065 260.718172 
L 697.003655 262.003414 
L 693.311954 263.096945 
L 689.568082 263.995769 
L 685.7823 264.697423 
L 681.964984 265.199982 
L 678.126598 265.502069 
L 674.277662 265.602857 
L 670.428727 265.502069 
L 666.59034 265.199982 
L 662.773025 264.697423 
L 658.987243 263.995769 
L 655.24337 263.096945 
L 651.55167 262.003414 
L 647.922259 260.718172 
L 644.365088 259.244743 
L 640.889904 257.587166 
L 637.506234 255.749983 
L 634.223352 253.73823 
L 631.050255 251.557421 
L 627.995643 249.213534 
L 625.067886 246.712994 
L 622.275009 244.062653 
L 619.624669 241.269777 
L 617.124128 238.34202 
L 614.780241 235.287407 
L 612.599433 232.114311 
L 610.58768 228.831429 
L 608.750497 225.447758 
L 607.092919 221.972575 
L 605.61949 218.415403 
L 604.334249 214.785993 
L 603.240717 211.094292 
L 602.341893 207.35042 
L 601.64024 203.564638 
L 601.137681 199.747322 
L 600.835593 195.908936 
L 600.734805 192.06 
L 600.835593 188.211064 
L 601.137681 184.372678 
L 601.64024 180.555362 
L 602.341893 176.76958 
L 603.240717 173.025708 
L 604.334249 169.334007 
L 605.61949 165.704597 
L 607.092919 162.147425 
L 608.750497 158.672242 
L 610.58768 155.288571 
L 612.599433 152.005689 
L 614.780241 148.832593 
L 617.124128 145.77798 
L 619.624669 142.850223 
L 622.275009 140.057347 
L 625.067886 137.407006 
L 627.995643 134.906466 
L 631.050255 132.562579 
L 634.223352 130.38177 
L 637.506234 128.370017 
L 640.889904 126.532834 
L 644.365088 124.875257 
L 647.922259 123.401828 
L 651.55167 122.116586 
L 655.24337 121.023055 
L 658.987243 120.124231 
L 662.773025 119.422577 
L 666.59034 118.920018 
L 670.428727 118.617931 
L 674.277662 118.517143 
L 678.126598 118.617931 
L 681.964984 118.920018 
L 685.7823 119.422577 
L 689.568082 120.124231 
L 693.311954 121.023055 
L 697.003655 122.116586 
L 700.633065 123.401828 
L 704.190237 124.875257 
L 707.665421 126.532834 
L 711.049091 128.370017 
L 714.331973 130.38177 
L 717.505069 132.562579 
L 720.559682 134.906466 
L 723.487439 137.407006 
L 726.280315 140.057347 
L 728.930656 142.850223 
L 731.431197 145.77798 
L 733.775084 148.832593 
L 735.955892 152.005689 
L 737.967645 155.288571 
L 739.804828 158.672242 
L 741.462405 162.147425 
L 742.935834 165.704597 
L 744.221076 169.334007 
L 745.314607 173.025708 
L 746.213432 176.76958 
L 746.915085 180.555362 
L 747.417644 184.372678 
L 747.719732 188.211064 
L 747.820519 192.06 
L 747.820519 192.06 
" clip-path="url(#pe68e7568da)" style="fill: none; stroke: #2563eb; stroke-width: 2.6; stroke-linecap: square"/>
   </g>
   <g id="line2d_35">
    <path d="M 541.900519 192.06 
L 806.654805 192.06 
" clip-path="url(#pe68e7568da)" style="fill: none; stroke: #c1c1c1; stroke-width: 0.8; stroke-linecap: square"/>
   </g>
   <g id="line2d_36">
    <path d="M 674.277662 320.76 
L 674.277662 63.36 
" clip-path="url(#pe68e7568da)" style="fill: none; stroke: #c1c1c1; stroke-width: 0.8; stroke-linecap: square"/>
   </g>
   <g id="patch_7">
    <path d="M 541.900519 320.76 
L 541.900519 63.36 
" style="fill: none; stroke: #000000; stroke-width: 0.8; stroke-linejoin: miter; stroke-linecap: square"/>
   </g>
   <g id="patch_8">
    <path d="M 541.900519 320.76 
L 806.654805 320.76 
" style="fill: none; stroke: #000000; stroke-width: 0.8; stroke-linejoin: miter; stroke-linecap: square"/>
   </g>
   <g id="patch_9">
    <path d="M 711.785821 206.574181 
Q 710.167635 209.840283 709.393242 211.403296 
" style="fill: none; stroke: #b0b5bd; stroke-width: 1.7; stroke-linecap: round"/>
    <path d="M 714.745088 207.358825 
L 709.393242 211.403296 
L 709.368773 204.695137 
z
" style="fill: #b0b5bd; stroke: #b0b5bd; stroke-width: 1.7; stroke-linecap: round"/>
   </g>
   <g id="patch_10">
    <path d="M 636.769503 177.545819 
Q 638.38769 174.279717 639.162083 172.716704 
" style="fill: none; stroke: #b0b5bd; stroke-width: 1.7; stroke-linecap: round"/>
    <path d="M 633.810237 176.761175 
L 639.162083 172.716704 
L 639.186552 179.424863 
z
" style="fill: #b0b5bd; stroke: #b0b5bd; stroke-width: 1.7; stroke-linecap: round"/>
   </g>
   <g id="patch_11">
    <path d="M 774.612745 227.398147 
Q 768.895455 238.937765 764.02196 248.774293 
" style="fill: none; stroke: #b0b5bd; stroke-width: 1.7; stroke-linecap: round"/>
    <path d="M 769.373806 244.729822 
L 764.02196 248.774293 
L 763.997491 242.066134 
z
" style="fill: #b0b5bd; stroke: #b0b5bd; stroke-width: 1.7; stroke-linecap: round"/>
   </g>
   <g id="patch_12">
    <path d="M 573.94258 156.721853 
Q 579.659869 145.182235 584.533365 135.345707 
" style="fill: none; stroke: #b0b5bd; stroke-width: 1.7; stroke-linecap: round"/>
    <path d="M 579.181519 139.390178 
L 584.533365 135.345707 
L 584.557834 142.053866 
z
" style="fill: #b0b5bd; stroke: #b0b5bd; stroke-width: 1.7; stroke-linecap: round"/>
   </g>
   <g id="patch_13">
    <path d="M 743.198421 216.987904 
Q 739.5315 224.389116 736.708371 230.087239 
" style="fill: none; stroke: #2563eb; stroke-width: 1.7; stroke-linecap: round"/>
    <path d="M 742.060218 226.042768 
L 736.708371 230.087239 
L 736.683903 223.37908 
z
" style="fill: #2563eb; stroke: #2563eb; stroke-width: 1.7; stroke-linecap: round"/>
   </g>
   <g id="patch_14">
    <path d="M 605.356904 167.132096 
Q 609.023825 159.730884 611.846953 154.032761 
" style="fill: none; stroke: #2563eb; stroke-width: 1.7; stroke-linecap: round"/>
    <path d="M 606.495107 158.077232 
L 611.846953 154.032761 
L 611.871422 160.74092 
z
" style="fill: #2563eb; stroke: #2563eb; stroke-width: 1.7; stroke-linecap: round"/>
   </g>
   <g id="text_24">
    <!-- 平衡点 -->
    <g transform="translate(682.277662 182.06) scale(0.1 -0.1)">
     <defs>
      <path id="MicrosoftYaHei-5e73" d="M 169 1934 
L 2938 1934 
L 2938 4547 
L 450 4547 
L 450 5028 
L 5975 5028 
L 5975 4547 
L 3463 4547 
L 3463 1934 
L 6250 1934 
L 6250 1453 
L 3463 1453 
L 3463 -847 
L 2938 -847 
L 2938 1453 
L 169 1453 
L 169 1934 
z
M 3950 2559 
Q 4638 3284 5188 4159 
L 5656 3859 
Q 4950 2891 4338 2234 
L 3950 2559 
z
M 769 3859 
L 1163 4134 
Q 1863 3316 2369 2553 
L 1925 2222 
Q 1444 3003 769 3859 
z
" transform="scale(0.015625)"/>
      <path id="MicrosoftYaHei-8861" d="M 1456 3784 
Q 2081 4434 2538 5241 
L 2925 5091 
Q 2847 4959 2766 4828 
L 4063 4828 
L 4063 4491 
L 3703 3966 
L 4375 3966 
L 4375 1491 
L 3988 1491 
L 3988 1647 
L 2238 1647 
L 2238 1453 
L 1850 1453 
L 1850 3603 
Q 1800 3547 1750 3491 
Q 1606 3647 1456 3784 
z
M 1644 1153 
L 2869 1153 
Q 2894 1334 2894 1553 
L 3319 1553 
Q 3319 1338 3300 1153 
L 4450 1153 
L 4450 753 
L 3228 753 
Q 3216 706 3200 659 
Q 3784 309 4300 -9 
L 4038 -391 
Q 3606 -84 3022 306 
Q 2678 -191 1725 -653 
Q 1638 -522 1469 -266 
Q 2563 222 2772 753 
L 1644 753 
L 1644 1153 
z
M 4519 3016 
L 6300 3016 
L 6300 2559 
L 5650 2559 
L 5650 -97 
Q 5650 -778 5006 -791 
Q 4744 -797 4350 -791 
Q 4325 -641 4256 -328 
Q 4613 -366 4881 -366 
Q 5225 -366 5225 -41 
L 5225 2559 
L 4519 2559 
L 4519 3016 
z
M 50 1659 
Q 694 2378 1263 3659 
L 1650 3434 
Q 1409 2953 1181 2553 
L 1181 -834 
L 756 -834 
L 756 1850 
Q 494 1447 250 1159 
Q 163 1403 50 1659 
z
M 44 3616 
Q 788 4341 1275 5341 
L 1675 5084 
Q 1031 3928 275 3166 
Q 175 3391 44 3616 
z
M 4688 4841 
L 6125 4841 
L 6125 4391 
L 4688 4391 
L 4688 4841 
z
M 3513 4428 
L 2494 4428 
Q 2331 4200 2147 3966 
L 3219 3966 
L 3513 4428 
z
M 3988 3572 
L 3294 3572 
L 3294 2984 
L 3988 2984 
L 3988 3572 
z
M 2238 2984 
L 2931 2984 
L 2931 3572 
L 2238 3572 
L 2238 2984 
z
M 2238 2041 
L 2931 2041 
L 2931 2622 
L 2238 2622 
L 2238 2041 
z
M 3294 2041 
L 3988 2041 
L 3988 2622 
L 3294 2622 
L 3294 2041 
z
" transform="scale(0.015625)"/>
      <path id="MicrosoftYaHei-70b9" d="M 900 3378 
L 2863 3378 
L 2863 5341 
L 3388 5341 
L 3388 4591 
L 6181 4591 
L 6181 4141 
L 3388 4141 
L 3388 3378 
L 5600 3378 
L 5600 991 
L 5088 991 
L 5088 1253 
L 1413 1253 
L 1413 991 
L 900 991 
L 900 3378 
z
M 5088 2928 
L 1413 2928 
L 1413 1703 
L 5088 1703 
L 5088 2928 
z
M 5425 847 
Q 5925 91 6225 -516 
L 5750 -772 
Q 5438 -134 4994 622 
L 5425 847 
z
M 1369 553 
Q 894 -303 531 -791 
L 100 -484 
Q 506 53 931 803 
L 1369 553 
z
M 2413 828 
Q 2700 197 2913 -503 
L 2406 -678 
Q 2213 3 1963 666 
L 2413 828 
z
M 3906 872 
Q 4206 253 4450 -422 
L 3956 -616 
Q 3781 -53 3450 697 
L 3906 872 
z
" transform="scale(0.015625)"/>
     </defs>
     <use xlink:href="#MicrosoftYaHei-5e73"/>
     <use xlink:href="#MicrosoftYaHei-8861" transform="translate(100 0)"/>
     <use xlink:href="#MicrosoftYaHei-70b9" transform="translate(200 0)"/>
    </g>
   </g>
   <g id="text_25">
    <!-- $t=0,\ 2\pi$ -->
    <g transform="translate(756.820519 180.980312) scale(0.1 -0.1)">
     <defs>
      <path id="DejaVuSans-2c" d="M 750 794 
L 1409 794 
L 1409 256 
L 897 -744 
L 494 -744 
L 750 256 
L 750 794 
z
" transform="scale(0.015625)"/>
     </defs>
     <use xlink:href="#DejaVuSans-Oblique-74" transform="translate(0 0.78125)"/>
     <use xlink:href="#DejaVuSans-3d" transform="translate(58.691406 0.78125)"/>
     <use xlink:href="#DejaVuSans-30" transform="translate(161.962891 0.78125)"/>
     <use xlink:href="#DejaVuSans-2c" transform="translate(225.585938 0.78125)"/>
     <use xlink:href="#DejaVuSans-32" transform="translate(309.325847 0.78125)"/>
     <use xlink:href="#DejaVuSans-Oblique-3c0" transform="translate(372.948894 0.78125)"/>
    </g>
   </g>
   <g id="text_26">
    <!-- $t=\pi/2$ -->
    <g transform="translate(658.477662 286.201295) scale(0.1 -0.1)">
     <use xlink:href="#DejaVuSans-Oblique-74" transform="translate(0 0.78125)"/>
     <use xlink:href="#DejaVuSans-3d" transform="translate(58.691406 0.78125)"/>
     <use xlink:href="#DejaVuSans-Oblique-3c0" transform="translate(161.962891 0.78125)"/>
     <use xlink:href="#DejaVuSans-2f" transform="translate(222.167969 0.78125)"/>
     <use xlink:href="#DejaVuSans-32" transform="translate(252.234375 0.78125)"/>
    </g>
   </g>
   <g id="text_27">
    <!-- $t=\pi$ -->
    <g transform="translate(569.434805 180.980312) scale(0.1 -0.1)">
     <use xlink:href="#DejaVuSans-Oblique-74" transform="translate(0 0.78125)"/>
     <use xlink:href="#DejaVuSans-3d" transform="translate(58.691406 0.78125)"/>
     <use xlink:href="#DejaVuSans-Oblique-3c0" transform="translate(161.962891 0.78125)"/>
    </g>
   </g>
   <g id="text_28">
    <!-- $t=3\pi/2$ -->
    <g transform="translate(655.277662 106.437455) scale(0.1 -0.1)">
     <use xlink:href="#DejaVuSans-Oblique-74" transform="translate(0 0.78125)"/>
     <use xlink:href="#DejaVuSans-3d" transform="translate(58.691406 0.78125)"/>
     <use xlink:href="#DejaVuSans-33" transform="translate(161.962891 0.78125)"/>
     <use xlink:href="#DejaVuSans-Oblique-3c0" transform="translate(225.585938 0.78125)"/>
     <use xlink:href="#DejaVuSans-2f" transform="translate(285.791016 0.78125)"/>
     <use xlink:href="#DejaVuSans-32" transform="translate(315.857422 0.78125)"/>
    </g>
   </g>
   <g id="text_29">
    <!-- 相图：把位置与速度合成一个点 -->
    <g transform="translate(604.277662 47.36) scale(0.1 -0.1)">
     <defs>
      <path id="MicrosoftYaHei-76f8" d="M 2738 4891 
L 6025 4891 
L 6025 -822 
L 5550 -822 
L 5550 -397 
L 3213 -397 
L 3213 -822 
L 2738 -822 
L 2738 4891 
z
M 94 1409 
Q 784 2372 1128 3622 
L 169 3622 
L 169 4041 
L 1138 4041 
L 1138 5284 
L 1594 5284 
L 1594 4041 
L 2506 4041 
L 2506 3622 
L 1594 3622 
L 1594 2534 
L 1844 2791 
Q 2275 2372 2638 1984 
L 2300 1653 
Q 1956 2059 1594 2444 
L 1594 -809 
L 1138 -809 
L 1138 2444 
Q 800 1516 319 866 
Q 225 1134 94 1409 
z
M 3213 28 
L 5550 28 
L 5550 1241 
L 3213 1241 
L 3213 28 
z
M 5550 4466 
L 3213 4466 
L 3213 3266 
L 5550 3266 
L 5550 4466 
z
M 3213 1653 
L 5550 1653 
L 5550 2853 
L 3213 2853 
L 3213 1653 
z
" transform="scale(0.015625)"/>
      <path id="MicrosoftYaHei-56fe" d="M 431 5072 
L 5944 5072 
L 5944 -809 
L 5475 -809 
L 5475 -509 
L 900 -509 
L 900 -809 
L 431 -809 
L 431 5072 
z
M 5475 4622 
L 900 4622 
L 900 -59 
L 5475 -59 
L 5475 4622 
z
M 1113 3091 
Q 1969 3709 2519 4547 
L 2931 4353 
Q 2816 4181 2681 4016 
L 4894 4016 
L 4894 3647 
Q 4434 3091 3722 2644 
Q 4381 2422 5338 2297 
Q 5194 2016 5131 1828 
Q 4022 2081 3256 2400 
Q 2491 2056 1225 1728 
Q 1138 1934 1013 2128 
Q 2109 2353 2825 2644 
Q 2384 2947 2066 3341 
Q 1769 3056 1419 2784 
Q 1294 2916 1113 3091 
z
M 1563 672 
L 1694 1103 
Q 3256 897 4700 622 
L 4531 147 
Q 3150 453 1563 672 
z
M 4275 3628 
L 2347 3628 
Q 2338 3616 2328 3606 
Q 2691 3141 3244 2841 
Q 3891 3188 4275 3628 
z
M 2219 1503 
L 2344 1922 
Q 3263 1784 4275 1609 
L 4144 1172 
Q 3119 1378 2219 1503 
z
" transform="scale(0.015625)"/>
      <path id="MicrosoftYaHei-628a" d="M 2300 4972 
L 5788 4972 
L 5788 1922 
L 5313 1922 
L 5313 2259 
L 2775 2259 
L 2775 353 
Q 2775 -153 3244 -153 
L 5000 -153 
Q 5581 -153 5663 284 
Q 5731 628 5794 1241 
Q 6044 1141 6319 1059 
Q 6225 434 6138 72 
Q 5969 -616 5125 -616 
L 3050 -616 
Q 2300 -616 2300 234 
L 2300 4972 
z
M 81 1991 
Q 509 2113 906 2231 
L 906 3647 
L 150 3647 
L 150 4066 
L 906 4066 
L 906 5284 
L 1381 5284 
L 1381 4066 
L 2106 4066 
L 2106 3647 
L 1381 3647 
L 1381 2375 
Q 1744 2488 2075 2597 
Q 2063 2291 2063 2116 
Q 1741 2013 1381 1894 
L 1381 -97 
Q 1381 -734 788 -753 
Q 538 -753 213 -753 
Q 181 -522 131 -234 
Q 438 -272 644 -272 
Q 906 -272 906 28 
L 906 1731 
Q 544 1609 150 1472 
L 81 1991 
z
M 5313 4528 
L 4281 4528 
L 4281 2703 
L 5313 2703 
L 5313 4528 
z
M 2775 2703 
L 3806 2703 
L 3806 4528 
L 2775 4528 
L 2775 2703 
z
" transform="scale(0.015625)"/>
      <path id="MicrosoftYaHei-4e0e" d="M 1163 2384 
L 1163 2859 
L 1413 5328 
L 1931 5328 
L 1834 4334 
L 6269 4334 
L 6269 3859 
L 1791 3859 
L 1694 2859 
L 5813 2859 
Q 5738 1547 5644 416 
Q 5556 -247 5263 -478 
Q 4981 -703 4322 -703 
Q 3706 -697 2900 -678 
Q 2863 -466 2794 -134 
Q 3744 -203 4213 -209 
Q 5050 -266 5125 447 
Q 5206 1278 5263 2384 
L 1163 2384 
z
M 106 1409 
L 4738 1409 
L 4738 934 
L 106 934 
L 106 1409 
z
" transform="scale(0.015625)"/>
      <path id="MicrosoftYaHei-5408" d="M 1025 1909 
L 5381 1909 
L 5381 -866 
L 4881 -866 
L 4881 -447 
L 1525 -447 
L 1525 -878 
L 1025 -878 
L 1025 1909 
z
M 3700 5234 
L 3550 5053 
Q 4594 3697 6319 3009 
Q 6125 2734 5988 2509 
Q 5481 2753 5025 3059 
L 5025 2703 
L 1369 2703 
L 1369 3016 
Q 913 2716 394 2428 
Q 269 2641 81 2897 
Q 2013 3866 3000 5234 
L 3700 5234 
z
M 4881 1453 
L 1525 1453 
L 1525 -3 
L 4881 -3 
L 4881 1453 
z
M 3219 4691 
Q 2581 3872 1550 3147 
L 4894 3147 
Q 3944 3797 3219 4691 
z
" transform="scale(0.015625)"/>
      <path id="MicrosoftYaHei-6210" d="M 2750 -347 
Q 3472 138 4038 781 
Q 3675 1703 3609 3759 
L 1250 3759 
L 1250 2809 
L 3050 2809 
Q 3013 1616 2950 803 
Q 2875 -59 2113 -59 
Q 1856 -59 1431 -34 
Q 1394 197 1331 484 
Q 1769 422 2063 422 
Q 2425 422 2469 922 
Q 2519 1497 2544 2347 
L 1247 2347 
Q 1197 175 369 -866 
Q 213 -653 44 -434 
Q 750 503 750 2528 
L 750 4222 
L 3591 4222 
Q 3569 4716 3550 5291 
L 4069 5291 
Q 4066 4850 4084 4222 
L 6238 4222 
L 6238 3759 
L 4100 3759 
Q 4163 2078 4409 1247 
Q 5016 2069 5406 3109 
L 5900 2903 
Q 5363 1631 4609 691 
Q 5069 -244 5506 -244 
Q 5666 -244 5750 47 
Q 5838 503 5888 984 
Q 6156 878 6363 809 
Q 6269 141 6156 -284 
Q 6038 -741 5631 -778 
Q 5250 -803 4900 -522 
Q 4522 -231 4256 278 
Q 3728 -291 3106 -722 
Q 2944 -534 2750 -347 
z
M 4544 4984 
L 4806 5309 
Q 5331 5009 5788 4684 
L 5488 4309 
Q 5038 4666 4544 4984 
z
" transform="scale(0.015625)"/>
      <path id="MicrosoftYaHei-4e00" d="M 100 2703 
L 6313 2703 
L 6313 2153 
L 100 2153 
L 100 2703 
z
" transform="scale(0.015625)"/>
      <path id="MicrosoftYaHei-4e2a" d="M 2913 3028 
L 3481 3028 
L 3481 -841 
L 2913 -841 
L 2913 3028 
z
M 3600 5178 
L 3506 5034 
Q 4519 3366 6319 2647 
Q 6125 2341 5988 2084 
Q 4150 3047 3206 4566 
Q 2281 3122 400 1997 
Q 263 2222 81 2491 
Q 2031 3572 2981 5178 
L 3600 5178 
z
" transform="scale(0.015625)"/>
     </defs>
     <use xlink:href="#MicrosoftYaHei-76f8"/>
     <use xlink:href="#MicrosoftYaHei-56fe" transform="translate(100 0)"/>
     <use xlink:href="#MicrosoftYaHei-ff1a" transform="translate(200 0)"/>
     <use xlink:href="#MicrosoftYaHei-628a" transform="translate(300 0)"/>
     <use xlink:href="#MicrosoftYaHei-4f4d" transform="translate(400 0)"/>
     <use xlink:href="#MicrosoftYaHei-7f6e" transform="translate(500 0)"/>
     <use xlink:href="#MicrosoftYaHei-4e0e" transform="translate(600 0)"/>
     <use xlink:href="#MicrosoftYaHei-901f" transform="translate(700 0)"/>
     <use xlink:href="#MicrosoftYaHei-5ea6" transform="translate(800 0)"/>
     <use xlink:href="#MicrosoftYaHei-5408" transform="translate(900 0)"/>
     <use xlink:href="#MicrosoftYaHei-6210" transform="translate(1000 0)"/>
     <use xlink:href="#MicrosoftYaHei-4e00" transform="translate(1100 0)"/>
     <use xlink:href="#MicrosoftYaHei-4e2a" transform="translate(1200 0)"/>
     <use xlink:href="#MicrosoftYaHei-70b9" transform="translate(1300 0)"/>
    </g>
   </g>
   <g id="PathCollection_1">
    <defs>
     <path id="m237cc1d7ab" d="M 0 2.44949 
C 0.649612 2.44949 1.272706 2.191396 1.732051 1.732051 
C 2.191396 1.272706 2.44949 0.649612 2.44949 0 
C 2.44949 -0.649612 2.191396 -1.272706 1.732051 -1.732051 
C 1.272706 -2.191396 0.649612 -2.44949 0 -2.44949 
C -0.649612 -2.44949 -1.272706 -2.191396 -1.732051 -1.732051 
C -2.191396 -1.272706 -2.44949 -0.649612 -2.44949 0 
C -2.44949 0.649612 -2.191396 1.272706 -1.732051 1.732051 
C -1.272706 2.191396 -0.649612 2.44949 0 2.44949 
z
" style="stroke: #27221d"/>
    </defs>
    <g clip-path="url(#pe68e7568da)">
     <use xlink:href="#m237cc1d7ab" x="674.277662" y="192.06" style="fill: #27221d; stroke: #27221d"/>
    </g>
   </g>
   <g id="PathCollection_2">
    <defs>
     <path id="mcfa558ddd0" d="M 0 2.738613 
C 0.726289 2.738613 1.422928 2.450055 1.936492 1.936492 
C 2.450055 1.422928 2.738613 0.726289 2.738613 0 
C 2.738613 -0.726289 2.450055 -1.422928 1.936492 -1.936492 
C 1.422928 -2.450055 0.726289 -2.738613 0 -2.738613 
C -0.726289 -2.738613 -1.422928 -2.450055 -1.936492 -1.936492 
C -2.450055 -1.422928 -2.738613 -0.726289 -2.738613 0 
C -2.738613 0.726289 -2.450055 1.422928 -1.936492 1.936492 
C -1.422928 2.450055 -0.726289 2.738613 0 2.738613 
z
" style="stroke: #2563eb"/>
    </defs>
    <g clip-path="url(#pe68e7568da)">
     <use xlink:href="#mcfa558ddd0" x="747.820519" y="192.06" style="fill: #2563eb; stroke: #2563eb"/>
    </g>
   </g>
   <g id="PathCollection_3">
    <g clip-path="url(#pe68e7568da)">
     <use xlink:href="#mcfa558ddd0" x="674.277662" y="265.602857" style="fill: #2563eb; stroke: #2563eb"/>
    </g>
   </g>
   <g id="PathCollection_4">
    <g clip-path="url(#pe68e7568da)">
     <use xlink:href="#mcfa558ddd0" x="600.734805" y="192.06" style="fill: #2563eb; stroke: #2563eb"/>
    </g>
   </g>
   <g id="PathCollection_5">
    <g clip-path="url(#pe68e7568da)">
     <use xlink:href="#mcfa558ddd0" x="674.277662" y="118.517143" style="fill: #2563eb; stroke: #2563eb"/>
    </g>
   </g>
  </g>
  <g id="text_30">
   <!-- 同一个简谐振子，两种画法 -->
   <g transform="translate(324 22.30875) scale(0.18 -0.18)">
    <defs>
     <path id="MicrosoftYaHei-540c" d="M 1013 -772 
L 531 -772 
L 531 4959 
L 5856 4959 
L 5856 -47 
Q 5856 -741 5125 -741 
Q 4669 -741 4088 -716 
Q 4056 -497 4000 -216 
Q 4619 -272 5025 -272 
Q 5375 -272 5375 78 
L 5375 4497 
L 1013 4497 
L 1013 -772 
z
M 1875 2566 
L 4506 2566 
L 4506 597 
L 2338 597 
L 2338 272 
L 1875 272 
L 1875 2566 
z
M 4044 2116 
L 2338 2116 
L 2338 1047 
L 4044 1047 
L 4044 2116 
z
M 1363 3734 
L 5025 3734 
L 5025 3284 
L 1363 3284 
L 1363 3734 
z
" transform="scale(0.015625)"/>
     <path id="MicrosoftYaHei-7b80" d="M 1894 2441 
L 4525 2441 
L 4525 103 
L 2331 103 
L 2331 -147 
L 1894 -147 
L 1894 2441 
z
M 2300 3009 
L 2300 3403 
L 5881 3403 
L 5881 -16 
Q 5881 -822 5081 -822 
Q 4713 -822 4325 -803 
Q 4300 -622 4231 -328 
Q 4681 -366 5050 -366 
Q 5419 -366 5419 3 
L 5419 3009 
L 2300 3009 
z
M 1306 5322 
L 1831 5322 
Q 1681 5016 1513 4734 
L 3288 4734 
L 3288 4341 
L 1250 4341 
Q 875 3816 413 3397 
Q 288 3547 88 3734 
Q 856 4409 1306 5322 
z
M 4019 5322 
L 4544 5322 
Q 4400 5016 4231 4734 
L 6225 4734 
L 6225 4341 
L 4000 4341 
Q 3719 3903 3400 3509 
Q 3231 3628 2994 3772 
Q 3588 4441 4019 5322 
z
M 569 2791 
L 1031 2791 
L 1031 -834 
L 569 -834 
L 569 2791 
z
M 2331 478 
L 4088 478 
L 4088 1097 
L 2331 1097 
L 2331 478 
z
M 4088 2066 
L 2331 2066 
L 2331 1459 
L 4088 1459 
L 4088 2066 
z
M 919 3484 
L 1225 3753 
Q 1613 3416 1944 3053 
L 1594 2734 
Q 1300 3103 919 3484 
z
M 4825 3434 
Q 4706 3622 4319 4072 
L 4644 4303 
Q 4981 3978 5194 3716 
L 4825 3434 
z
M 2169 3441 
Q 1944 3753 1675 4059 
L 2000 4297 
Q 2281 4034 2538 3722 
L 2169 3441 
z
" transform="scale(0.015625)"/>
     <path id="MicrosoftYaHei-8c10" d="M 2406 2072 
L 3322 2072 
Q 3463 2416 3563 2766 
L 4088 2634 
Q 3981 2388 3831 2072 
L 5713 2072 
L 5713 -809 
L 5225 -809 
L 5225 -522 
L 2894 -522 
L 2894 -809 
L 2406 -809 
L 2406 2072 
z
M 4188 5216 
L 4650 5216 
L 4650 4266 
Q 5363 4578 5931 4897 
L 6163 4478 
Q 5425 4113 4650 3797 
L 4650 3309 
Q 4650 2941 4975 2941 
L 5375 2941 
Q 5713 2941 5756 3272 
Q 5794 3566 5813 3978 
Q 6088 3828 6250 3784 
Q 6213 3372 6175 3109 
Q 6094 2522 5525 2522 
L 4906 2522 
Q 4188 2522 4188 3216 
L 4188 5216 
z
M 2056 728 
Q 2075 403 2100 191 
Q 1306 -322 938 -641 
L 644 -222 
Q 856 -72 856 316 
L 856 2741 
L 150 2741 
L 150 3191 
L 1331 3191 
L 1331 228 
Q 1644 434 2056 728 
z
M 3863 3559 
Q 3844 3291 3856 3047 
Q 3175 2772 2681 2516 
Q 2525 2428 2313 2253 
L 2006 2722 
Q 2169 2909 2169 3147 
L 2169 5209 
L 2631 5209 
L 2631 4416 
L 3806 4416 
L 3806 3972 
L 2631 3972 
L 2631 3047 
Q 3081 3222 3863 3559 
z
M 2894 -147 
L 5225 -147 
L 5225 591 
L 2894 591 
L 2894 -147 
z
M 5225 1697 
L 2894 1697 
L 2894 966 
L 5225 966 
L 5225 1697 
z
M 750 5184 
Q 1238 4578 1631 4059 
L 1156 3734 
Q 831 4266 338 4897 
L 750 5184 
z
" transform="scale(0.015625)"/>
     <path id="MicrosoftYaHei-632f" d="M 5813 1934 
L 6138 1572 
Q 5619 1197 5038 816 
Q 5531 59 6331 -284 
Q 6213 -428 5981 -728 
Q 4481 103 4044 2128 
L 3606 2128 
L 3606 -97 
Q 4000 84 4519 353 
Q 4538 141 4594 -103 
Q 4094 -347 3744 -528 
Q 3463 -678 3263 -834 
L 2950 -422 
Q 3169 -197 3156 128 
L 3156 2128 
L 2725 2128 
Q 2669 259 1913 -822 
Q 1738 -616 1544 -459 
Q 2256 547 2256 2497 
L 2256 4909 
L 6113 4909 
L 6113 4484 
L 2731 4484 
L 2731 2553 
L 6175 2553 
L 6175 2128 
L 4488 2128 
Q 4619 1603 4831 1178 
Q 5350 1559 5813 1934 
z
M 88 1972 
Q 469 2084 875 2216 
L 875 3672 
L 144 3672 
L 144 4097 
L 875 4097 
L 875 5259 
L 1350 5259 
L 1350 4097 
L 2013 4097 
L 2013 3672 
L 1350 3672 
L 1350 2378 
Q 1663 2497 2000 2622 
Q 2000 2322 2013 2134 
Q 1688 2016 1350 1897 
L 1350 -109 
Q 1350 -766 794 -784 
Q 513 -797 156 -791 
Q 119 -528 75 -272 
Q 419 -309 638 -309 
Q 875 -309 875 -72 
L 875 1722 
Q 519 1591 156 1453 
L 88 1972 
z
M 3088 3716 
L 5881 3716 
L 5881 3291 
L 3088 3291 
L 3088 3716 
z
" transform="scale(0.015625)"/>
     <path id="MicrosoftYaHei-5b50" d="M 125 2497 
L 3031 2497 
L 3031 3184 
L 4825 4491 
L 781 4491 
L 781 4959 
L 5656 4959 
L 5656 4472 
L 3563 2941 
L 3563 2497 
L 6300 2497 
L 6300 2028 
L 3563 2028 
L 3563 59 
Q 3563 -778 2688 -778 
Q 2400 -778 1700 -766 
Q 1675 -516 1625 -197 
Q 2081 -253 2588 -259 
Q 3031 -259 3031 191 
L 3031 2028 
L 125 2028 
L 125 2497 
z
" transform="scale(0.015625)"/>
     <path id="MicrosoftYaHei-ff0c" d="M 1931 775 
L 1403 -891 
L 966 -891 
L 1350 775 
L 1931 775 
z
" transform="scale(0.015625)"/>
     <path id="MicrosoftYaHei-4e24" d="M 163 4991 
L 6238 4991 
L 6238 4534 
L 4325 4534 
Q 4328 4084 4316 3697 
L 5856 3697 
L 5856 3 
Q 5856 -716 5138 -716 
Q 4800 -716 4181 -703 
Q 4150 -484 4094 -216 
Q 4688 -259 4994 -259 
Q 5388 -259 5388 122 
L 5388 3247 
L 4297 3247 
Q 4269 2634 4172 2138 
Q 4859 1500 5325 966 
L 5000 616 
Q 4519 1194 4038 1678 
Q 3734 834 3050 147 
Q 2913 303 2663 484 
Q 3844 1559 3844 3247 
L 2538 3247 
Q 2506 2591 2444 2316 
Q 2956 1897 3288 1603 
L 3013 1191 
Q 2675 1541 2325 1869 
Q 2044 1025 1381 334 
Q 1231 503 1019 691 
Q 2056 1653 2084 3247 
L 1000 3247 
L 1000 -747 
L 531 -747 
L 531 3697 
L 2103 3697 
Q 2116 4091 2113 4534 
L 163 4534 
L 163 4991 
z
M 2556 3697 
L 3863 3697 
Q 3875 4094 3872 4534 
L 2569 4534 
Q 2569 4084 2556 3697 
z
" transform="scale(0.015625)"/>
     <path id="MicrosoftYaHei-79cd" d="M 2700 4066 
L 4113 4066 
L 4113 5316 
L 4588 5316 
L 4588 4066 
L 6006 4066 
L 6006 1053 
L 5556 1053 
L 5556 1353 
L 4588 1353 
L 4588 -841 
L 4113 -841 
L 4113 1353 
L 3150 1353 
L 3150 1053 
L 2700 1053 
L 2700 4066 
z
M 88 878 
Q 669 1691 1063 2972 
L 119 2972 
L 119 3416 
L 1119 3416 
L 1119 4434 
Q 738 4403 294 4372 
Q 263 4584 200 4828 
Q 1475 4897 2425 5034 
L 2538 4559 
Q 2141 4519 1581 4472 
L 1581 3416 
L 2475 3416 
L 2475 2972 
L 1581 2972 
L 1581 2159 
L 1850 2378 
Q 2188 2028 2606 1516 
L 2225 1203 
Q 1888 1669 1581 2025 
L 1581 -828 
L 1119 -828 
L 1119 1894 
Q 791 972 306 341 
Q 206 603 88 878 
z
M 5556 3634 
L 4588 3634 
L 4588 1784 
L 5556 1784 
L 5556 3634 
z
M 3150 1784 
L 4113 1784 
L 4113 3634 
L 3150 3634 
L 3150 1784 
z
" transform="scale(0.015625)"/>
     <path id="MicrosoftYaHei-753b" d="M 1669 3941 
L 4719 3941 
L 4719 547 
L 4256 547 
L 4256 859 
L 2131 859 
L 2131 472 
L 1669 472 
L 1669 3941 
z
M 5863 3816 
L 5863 -809 
L 5388 -809 
L 5388 -472 
L 525 -472 
L 525 3816 
L 1000 3816 
L 1000 -47 
L 5388 -47 
L 5388 3816 
L 5863 3816 
z
M 188 4941 
L 6200 4941 
L 6200 4516 
L 188 4516 
L 188 4941 
z
M 4256 3522 
L 3425 3522 
L 3425 2609 
L 4256 2609 
L 4256 3522 
z
M 2131 2609 
L 2963 2609 
L 2963 3522 
L 2131 3522 
L 2131 2609 
z
M 2131 1278 
L 2963 1278 
L 2963 2191 
L 2131 2191 
L 2131 1278 
z
M 3425 1278 
L 4256 1278 
L 4256 2191 
L 3425 2191 
L 3425 1278 
z
" transform="scale(0.015625)"/>
     <path id="MicrosoftYaHei-6cd5" d="M 4888 1328 
Q 5488 509 6181 -553 
Q 5931 -697 5694 -841 
Q 5519 -550 5350 -278 
Q 3300 -447 2138 -559 
L 1906 -16 
Q 2300 159 2675 716 
Q 3088 1303 3441 1953 
L 1800 1953 
L 1800 2403 
L 3763 2403 
L 3763 3728 
L 2106 3728 
L 2106 4178 
L 3763 4178 
L 3763 5322 
L 4263 5322 
L 4263 4178 
L 5994 4178 
L 5994 3728 
L 4263 3728 
L 4263 2403 
L 6288 2403 
L 6288 1953 
L 4069 1953 
Q 3372 806 2706 -28 
Q 3897 28 5088 141 
Q 4766 644 4475 1066 
L 4888 1328 
z
M 1013 1828 
Q 1244 1728 1506 1622 
Q 1063 291 731 -784 
L 194 -603 
Q 606 497 1013 1828 
z
M 400 3622 
Q 869 3291 1500 2772 
Q 1269 2509 1138 2366 
Q 431 2997 88 3259 
L 400 3622 
z
M 644 5241 
Q 1144 4841 1719 4328 
Q 1506 4109 1350 3941 
Q 775 4509 325 4897 
L 644 5241 
z
" transform="scale(0.015625)"/>
    </defs>
    <use xlink:href="#MicrosoftYaHei-540c"/>
    <use xlink:href="#MicrosoftYaHei-4e00" transform="translate(100 0)"/>
    <use xlink:href="#MicrosoftYaHei-4e2a" transform="translate(200 0)"/>
    <use xlink:href="#MicrosoftYaHei-7b80" transform="translate(300 0)"/>
    <use xlink:href="#MicrosoftYaHei-8c10" transform="translate(400 0)"/>
    <use xlink:href="#MicrosoftYaHei-632f" transform="translate(500 0)"/>
    <use xlink:href="#MicrosoftYaHei-5b50" transform="translate(600 0)"/>
    <use xlink:href="#MicrosoftYaHei-ff0c" transform="translate(700 0)"/>
    <use xlink:href="#MicrosoftYaHei-4e24" transform="translate(800 0)"/>
    <use xlink:href="#MicrosoftYaHei-79cd" transform="translate(900 0)"/>
    <use xlink:href="#MicrosoftYaHei-753b" transform="translate(1000 0)"/>
    <use xlink:href="#MicrosoftYaHei-6cd5" transform="translate(1100 0)"/>
   </g>
  </g>
  <g id="text_31">
   <!-- 蓝色圆：初值 (1, 0)    灰色圆：其他初值    箭头：时间增加的方向 -->
   <g style="fill: #555555" transform="translate(272.273984 382.14) scale(0.11 -0.11)">
    <defs>
     <path id="MicrosoftYaHei-84dd" d="M 156 -178 
L 925 -178 
L 925 1459 
L 5538 1459 
L 5538 -178 
L 6263 -178 
L 6263 -616 
L 156 -616 
L 156 -178 
z
M 169 4809 
L 1975 4809 
L 1975 5328 
L 2438 5328 
L 2438 4809 
L 4000 4809 
L 4000 5328 
L 4463 5328 
L 4463 4809 
L 6250 4809 
L 6250 4372 
L 4463 4372 
L 4463 4022 
L 4000 4022 
L 4000 4372 
L 2438 4372 
L 2438 4022 
L 1975 4022 
L 1975 4372 
L 169 4372 
L 169 4809 
z
M 2819 1997 
Q 3388 2847 3669 3934 
L 4138 3816 
Q 4069 3594 3997 3391 
L 6150 3391 
L 6150 2966 
L 3841 2966 
Q 3566 2259 3238 1734 
Q 2944 1934 2819 1997 
z
M 5088 1034 
L 4138 1034 
L 4138 -178 
L 5088 -178 
L 5088 1034 
z
M 2756 -178 
L 3700 -178 
L 3700 1034 
L 2756 1034 
L 2756 -178 
z
M 1375 -178 
L 2319 -178 
L 2319 1034 
L 1375 1034 
L 1375 -178 
z
M 2094 3853 
L 2556 3853 
L 2556 1716 
L 2094 1716 
L 2094 3853 
z
M 781 3716 
L 1244 3716 
L 1244 1791 
L 781 1791 
L 781 3716 
z
M 4100 2466 
L 4381 2797 
Q 5025 2378 5544 1972 
L 5238 1609 
Q 4713 2053 4100 2466 
z
" transform="scale(0.015625)"/>
     <path id="MicrosoftYaHei-8272" d="M 56 3253 
Q 1275 4178 1988 5384 
L 2513 5253 
Q 2344 4984 2153 4728 
L 4625 4728 
L 4625 4284 
Q 4275 3875 3894 3466 
L 5581 3466 
L 5581 1184 
L 5081 1184 
L 5081 1403 
L 1325 1403 
L 1325 297 
Q 1325 -128 1719 -128 
L 5094 -128 
Q 5513 -128 5600 134 
Q 5719 516 5769 1091 
Q 5950 1009 6281 897 
Q 6194 309 6100 -9 
Q 5938 -603 5188 -603 
L 1663 -603 
Q 825 -603 825 253 
L 825 3263 
Q 641 3097 444 2934 
Q 275 3091 56 3253 
z
M 5081 3016 
L 3444 3016 
L 3444 1853 
L 5081 1853 
L 5081 3016 
z
M 1325 1853 
L 2956 1853 
L 2956 3016 
L 1325 3016 
L 1325 1853 
z
M 3994 4291 
L 1809 4291 
Q 1456 3863 1041 3466 
L 3284 3466 
Q 3659 3891 3994 4291 
z
" transform="scale(0.015625)"/>
     <path id="MicrosoftYaHei-5706" d="M 431 5047 
L 5944 5047 
L 5944 -834 
L 5475 -834 
L 5475 -534 
L 900 -534 
L 900 -834 
L 431 -834 
L 431 5047 
z
M 1763 4222 
L 4638 4222 
L 4638 2834 
L 4213 2834 
L 4213 2978 
L 2188 2978 
L 2188 2834 
L 1763 2834 
L 1763 4222 
z
M 3338 1378 
Q 4269 903 5100 384 
L 4825 28 
Q 4131 509 3213 1022 
Q 2919 347 1375 53 
Q 1294 228 1144 466 
Q 2425 672 2738 1097 
Q 2981 1397 2969 2034 
L 3406 2034 
Q 3406 1666 3338 1378 
z
M 1588 2572 
L 4788 2572 
L 4788 1059 
L 4363 1059 
L 4363 2184 
L 2013 2184 
L 2013 1009 
L 1588 1009 
L 1588 2572 
z
M 4213 3366 
L 4213 3834 
L 2188 3834 
L 2188 3366 
L 4213 3366 
z
M 5475 -97 
L 5475 4609 
L 900 4609 
L 900 -97 
L 5475 -97 
z
" transform="scale(0.015625)"/>
     <path id="MicrosoftYaHei-521d" d="M 2513 4778 
L 5988 4778 
Q 5894 1509 5844 509 
Q 5819 -659 4844 -647 
Q 4525 -647 3925 -628 
Q 3881 -334 3825 -66 
Q 4425 -122 4788 -122 
Q 5300 -141 5325 541 
Q 5388 1522 5456 4297 
L 4038 4297 
Q 4000 3084 3944 2334 
Q 3806 403 2250 -828 
Q 2088 -634 1850 -428 
Q 3300 691 3419 2372 
Q 3491 3200 3509 4297 
L 2513 4297 
L 2513 4778 
z
M 150 3691 
L 150 4141 
L 2219 4141 
L 2219 3678 
Q 1872 3081 1481 2569 
L 1481 2375 
Q 1631 2269 1784 2163 
Q 2094 2575 2363 3022 
L 2775 2759 
Q 2506 2372 2141 1906 
Q 2453 1678 2769 1441 
L 2450 1059 
Q 1972 1453 1481 1838 
L 1481 -797 
L 1006 -797 
L 1006 1997 
Q 638 1591 231 1247 
Q 163 1491 63 1784 
Q 963 2491 1663 3691 
L 150 3691 
z
M 744 5134 
L 1181 5353 
Q 1413 4984 1669 4497 
L 1206 4259 
Q 975 4759 744 5134 
z
" transform="scale(0.015625)"/>
     <path id="MicrosoftYaHei-503c" d="M 1619 -216 
L 2250 -216 
L 2250 3653 
L 3725 3653 
L 3725 4222 
L 1913 4222 
L 1913 4647 
L 3725 4647 
L 3725 5309 
L 4200 5309 
L 4200 4647 
L 6169 4647 
L 6169 4222 
L 4200 4222 
L 4200 3653 
L 5713 3653 
L 5713 -216 
L 6306 -216 
L 6306 -641 
L 1619 -641 
L 1619 -216 
z
M 69 2247 
Q 906 3497 1369 5278 
L 1831 5141 
Q 1581 4334 1288 3628 
L 1288 -816 
L 831 -816 
L 831 2666 
Q 563 2166 263 1734 
Q 175 1997 69 2247 
z
M 2713 -216 
L 5250 -216 
L 5250 353 
L 2713 353 
L 2713 -216 
z
M 5250 3241 
L 2713 3241 
L 2713 2678 
L 5250 2678 
L 5250 3241 
z
M 2713 1716 
L 5250 1716 
L 5250 2278 
L 2713 2278 
L 2713 1716 
z
M 2713 753 
L 5250 753 
L 5250 1316 
L 2713 1316 
L 2713 753 
z
" transform="scale(0.015625)"/>
     <path id="MicrosoftYaHei-28" d="M 1531 -1100 
Q 478 100 478 1847 
Q 478 3594 1531 4841 
L 2072 4841 
Q 1016 3544 1016 1853 
Q 1016 166 2066 -1100 
L 1531 -1100 
z
" transform="scale(0.015625)"/>
     <path id="MicrosoftYaHei-31" d="M 1781 0 
L 1781 4141 
Q 1638 3997 1295 3819 
Q 953 3641 663 3569 
L 663 4169 
Q 1047 4275 1484 4508 
Q 1922 4741 2156 4947 
L 2388 4947 
L 2388 0 
L 1781 0 
z
" transform="scale(0.015625)"/>
     <path id="MicrosoftYaHei-2c" d="M 1109 778 
L 575 -888 
L 131 -888 
L 519 778 
L 1109 778 
z
" transform="scale(0.015625)"/>
     <path id="MicrosoftYaHei-30" d="M 284 2325 
Q 284 3606 709 4264 
Q 1134 4922 1941 4922 
Q 3478 4922 3478 2441 
Q 3478 1216 3045 567 
Q 2613 -81 1831 -81 
Q 1094 -81 689 534 
Q 284 1150 284 2325 
z
M 909 2353 
Q 909 425 1888 425 
Q 2850 425 2850 2384 
Q 2850 4413 1906 4413 
Q 909 4413 909 2353 
z
" transform="scale(0.015625)"/>
     <path id="MicrosoftYaHei-29" d="M 78 -1100 
Q 1131 163 1131 1853 
Q 1131 3547 72 4841 
L 616 4841 
Q 1672 3603 1672 1847 
Q 1672 91 616 -1100 
L 78 -1100 
z
" transform="scale(0.015625)"/>
     <path id="MicrosoftYaHei-7070" d="M 300 4466 
L 1631 4466 
Q 1656 4875 1656 5309 
L 2156 5309 
Q 2156 4875 2131 4466 
L 6100 4466 
L 6100 4009 
L 2100 4009 
Q 1847 1119 406 -497 
Q 263 -309 69 -91 
Q 1353 1369 1597 4009 
L 300 4009 
L 300 4466 
z
M 1313 -409 
Q 3513 434 3563 2534 
Q 3581 3034 3581 3791 
L 4075 3791 
Q 4075 3213 4056 2347 
Q 4728 181 6300 -347 
Q 6169 -522 5988 -791 
Q 4516 -247 3878 1550 
Q 3497 -78 1625 -828 
Q 1481 -603 1313 -409 
z
M 4550 1666 
Q 5031 2341 5425 3053 
L 5856 2803 
Q 5394 2047 4931 1422 
L 4550 1666 
z
M 2013 2734 
L 2413 2959 
Q 2731 2422 3131 1659 
L 2706 1409 
Q 2313 2228 2013 2734 
z
" transform="scale(0.015625)"/>
     <path id="MicrosoftYaHei-5176" d="M 5206 5284 
L 5206 4509 
L 6150 4509 
L 6150 4059 
L 5206 4059 
L 5206 1153 
L 6288 1153 
L 6288 703 
L 125 703 
L 125 1153 
L 1194 1153 
L 1194 4059 
L 250 4059 
L 250 4509 
L 1194 4509 
L 1194 5284 
L 1675 5284 
L 1675 4509 
L 4725 4509 
L 4725 5284 
L 5206 5284 
z
M 1675 1153 
L 4725 1153 
L 4725 1834 
L 1675 1834 
L 1675 1153 
z
M 1675 2272 
L 4725 2272 
L 4725 2947 
L 1675 2947 
L 1675 2272 
z
M 1675 3384 
L 4725 3384 
L 4725 4059 
L 1675 4059 
L 1675 3384 
z
M 3794 184 
L 4069 609 
Q 5581 3 6306 -353 
L 6044 -841 
Q 4975 -284 3794 184 
z
M 2269 603 
L 2569 184 
Q 1381 -472 350 -872 
Q 269 -672 94 -403 
Q 1400 72 2269 603 
z
" transform="scale(0.015625)"/>
     <path id="MicrosoftYaHei-4ed6" d="M 3850 5259 
L 4338 5259 
L 4338 3706 
L 5963 4078 
Q 5919 2691 5894 2159 
Q 5863 1603 5713 1428 
Q 5544 1216 5113 1216 
Q 4919 1216 4619 1228 
Q 4581 1466 4525 1741 
Q 4794 1709 5063 1697 
Q 5400 1678 5413 2184 
Q 5444 2709 5456 3497 
L 4338 3238 
L 4338 466 
L 3850 466 
L 3850 3122 
L 2800 2878 
L 2800 353 
Q 2800 -172 3319 -172 
L 5056 -172 
Q 5625 -172 5706 247 
Q 5788 647 5844 1216 
Q 6106 1116 6363 1041 
Q 6281 447 6181 41 
Q 6025 -647 5138 -647 
L 3219 -647 
Q 2313 -647 2313 253 
L 2313 2766 
L 1750 2634 
L 1669 3097 
L 2313 3244 
L 2313 4528 
L 2800 4528 
L 2800 3353 
L 3850 3594 
L 3850 5259 
z
M 50 2366 
Q 1019 3672 1519 5322 
L 2025 5153 
Q 1719 4300 1363 3578 
L 1363 -816 
L 888 -816 
L 888 2716 
Q 584 2225 250 1809 
Q 156 2078 50 2366 
z
" transform="scale(0.015625)"/>
     <path id="MicrosoftYaHei-7bad" d="M 1038 -847 
L 600 -847 
L 600 2391 
L 3281 2391 
L 3281 -259 
Q 3281 -816 2719 -816 
Q 2431 -816 1981 -809 
Q 1950 -666 1888 -372 
Q 2344 -391 2600 -391 
Q 2844 -391 2844 -122 
L 2844 272 
L 1038 272 
L 1038 -847 
z
M 138 3234 
L 1894 3234 
Q 1706 3513 1481 3772 
L 1825 4016 
Q 2119 3722 2350 3403 
L 2113 3234 
L 3819 3234 
Q 4097 3613 4325 4003 
L 4750 3766 
Q 4553 3484 4353 3234 
L 6263 3234 
L 6263 2834 
L 138 2834 
L 138 3234 
z
M 5075 3703 
Q 4884 3963 4534 4372 
L 4022 4372 
Q 3734 3909 3406 3547 
Q 3256 3684 3025 3834 
Q 3644 4459 4031 5347 
L 4544 5347 
Q 4403 5038 4250 4759 
L 6225 4759 
L 6225 4372 
L 5072 4372 
Q 5281 4159 5438 3972 
L 5075 3703 
z
M 2369 3741 
Q 2125 4056 1841 4372 
L 1238 4372 
Q 869 3875 419 3503 
Q 294 3653 106 3841 
Q 900 4491 1313 5347 
L 1831 5347 
Q 1678 5038 1503 4759 
L 3325 4759 
L 3325 4372 
L 2388 4372 
Q 2575 4178 2725 4009 
L 2369 3741 
z
M 5244 2553 
L 5706 2553 
L 5706 -34 
Q 5706 -753 5019 -753 
Q 4638 -753 4163 -741 
Q 4125 -509 4069 -253 
Q 4556 -303 4863 -303 
Q 5244 -303 5244 72 
L 5244 2553 
z
M 4000 2341 
L 4438 2341 
L 4438 291 
L 4000 291 
L 4000 2341 
z
M 1038 672 
L 2844 672 
L 2844 1134 
L 1038 1134 
L 1038 672 
z
M 2844 1991 
L 1038 1991 
L 1038 1534 
L 2844 1534 
L 2844 1991 
z
" transform="scale(0.015625)"/>
     <path id="MicrosoftYaHei-5934" d="M 156 1903 
L 3263 1903 
Q 3363 3166 3363 5272 
L 3900 5272 
Q 3900 3441 3806 1903 
L 6244 1903 
L 6244 1453 
L 3719 1453 
Q 3675 1247 3575 1041 
Q 4831 409 6125 -322 
L 5806 -803 
Q 4519 3 3306 641 
Q 2556 -253 456 -884 
Q 344 -691 119 -391 
Q 2788 341 3150 1453 
L 156 1453 
L 156 1903 
z
M 775 3741 
Q 1663 3209 2394 2697 
L 2088 2266 
Q 1369 2803 494 3359 
L 775 3741 
z
M 1400 5084 
Q 2344 4509 2981 4059 
L 2669 3634 
Q 1831 4266 1131 4716 
L 1400 5084 
z
" transform="scale(0.015625)"/>
     <path id="MicrosoftYaHei-589e" d="M 2188 4459 
L 3259 4459 
Q 3041 4781 2775 5116 
L 3131 5366 
Q 3456 4991 3694 4666 
L 3403 4459 
L 4453 4459 
Q 4759 4888 5050 5372 
L 5500 5116 
Q 5234 4772 4978 4459 
L 6038 4459 
L 6038 2122 
L 5600 2122 
L 5600 2309 
L 2625 2309 
L 2625 2122 
L 2188 2122 
L 2188 4459 
z
M 2438 1797 
L 5788 1797 
L 5788 -847 
L 5338 -847 
L 5338 -547 
L 2888 -547 
L 2888 -847 
L 2438 -847 
L 2438 1797 
z
M 81 428 
Q 466 538 894 672 
L 894 3253 
L 144 3253 
L 144 3697 
L 894 3697 
L 894 5259 
L 1356 5259 
L 1356 3697 
L 2000 3697 
L 2000 3253 
L 1356 3253 
L 1356 819 
Q 1709 931 2094 1059 
Q 2106 759 2125 553 
Q 1306 316 250 -53 
L 81 428 
z
M 5600 4084 
L 4325 4084 
L 4325 2684 
L 5600 2684 
L 5600 4084 
z
M 2625 2684 
L 3894 2684 
L 3894 4084 
L 2625 4084 
L 2625 2684 
z
M 5338 1409 
L 2888 1409 
L 2888 809 
L 5338 809 
L 5338 1409 
z
M 2888 -159 
L 5338 -159 
L 5338 434 
L 2888 434 
L 2888 -159 
z
M 5350 3609 
Q 5006 3066 4856 2884 
L 4519 3084 
Q 4744 3391 4981 3828 
L 5350 3609 
z
M 2863 3597 
L 3181 3803 
Q 3463 3441 3669 3122 
L 3319 2897 
Q 3119 3228 2863 3597 
z
" transform="scale(0.015625)"/>
     <path id="MicrosoftYaHei-52a0" d="M 3663 4484 
L 6038 4484 
L 6038 -666 
L 5544 -666 
L 5544 -34 
L 4156 -34 
L 4156 -666 
L 3663 -666 
L 3663 4484 
z
M 231 4178 
L 1103 4178 
Q 1109 4681 1106 5297 
L 1600 5297 
Q 1600 4675 1594 4178 
L 3050 4178 
Q 3019 1778 2969 409 
Q 2944 -716 2119 -672 
Q 1875 -672 1400 -653 
Q 1356 -391 1300 -109 
Q 1738 -166 2013 -166 
Q 2431 -178 2469 428 
Q 2538 1909 2550 3703 
L 1588 3703 
Q 1581 3225 1569 2891 
Q 1544 447 394 -872 
Q 238 -678 25 -453 
Q 1063 684 1081 2941 
Q 1094 3269 1100 3703 
L 231 3703 
L 231 4178 
z
M 5544 4022 
L 4156 4022 
L 4156 416 
L 5544 416 
L 5544 4022 
z
" transform="scale(0.015625)"/>
     <path id="MicrosoftYaHei-7684" d="M 356 4284 
L 988 4284 
Q 1219 4853 1369 5322 
L 1894 5172 
Q 1697 4694 1513 4284 
L 2763 4284 
L 2763 -691 
L 2263 -691 
L 2263 -203 
L 856 -203 
L 856 -734 
L 356 -734 
L 356 4284 
z
M 2856 3003 
Q 3444 3934 3850 5322 
L 4375 5191 
Q 4216 4719 4050 4303 
L 6063 4303 
Q 5988 1091 5938 259 
Q 5894 -722 4906 -722 
Q 4338 -722 3750 -684 
Q 3713 -372 3650 -128 
L 3669 -128 
Q 4294 -216 4813 -216 
Q 5381 -216 5425 384 
Q 5494 1316 5525 3834 
L 3850 3834 
Q 3578 3231 3288 2772 
Q 3119 2891 2856 3003 
z
M 856 266 
L 2263 266 
L 2263 1847 
L 856 1847 
L 856 266 
z
M 2263 3816 
L 856 3816 
L 856 2297 
L 2263 2297 
L 2263 3816 
z
M 3406 2578 
L 3788 2859 
Q 4481 2041 4894 1441 
L 4431 1116 
Q 3988 1841 3406 2578 
z
" transform="scale(0.015625)"/>
     <path id="MicrosoftYaHei-65b9" d="M 194 4241 
L 3194 4241 
Q 2878 4841 2700 5116 
L 3188 5347 
Q 3363 5078 3713 4472 
L 3256 4241 
L 6219 4241 
L 6219 3766 
L 2428 3766 
Q 2406 3197 2381 2797 
L 5400 2797 
Q 5325 1441 5238 441 
Q 5169 -691 4138 -691 
Q 3663 -691 2869 -641 
Q 2838 -403 2775 -66 
Q 3569 -172 4063 -172 
Q 4638 -172 4706 509 
Q 4781 1253 4838 2328 
L 2347 2328 
Q 2172 266 438 -872 
Q 269 -672 56 -447 
Q 1706 641 1825 2466 
Q 1869 2959 1897 3766 
L 194 3766 
L 194 4241 
z
" transform="scale(0.015625)"/>
     <path id="MicrosoftYaHei-5411" d="M 1038 -772 
L 550 -772 
L 550 4359 
L 2394 4359 
Q 2550 4822 2694 5328 
L 3231 5178 
Q 3069 4741 2913 4359 
L 5838 4359 
L 5838 -34 
Q 5838 -741 5131 -741 
Q 4738 -741 4181 -728 
Q 4150 -509 4094 -241 
Q 4631 -284 5006 -284 
Q 5350 -284 5350 78 
L 5350 3897 
L 1038 3897 
L 1038 -772 
z
M 1894 2997 
L 4481 2997 
L 4481 803 
L 2369 803 
L 2369 372 
L 1894 372 
L 1894 2997 
z
M 4006 2547 
L 2369 2547 
L 2369 1253 
L 4006 1253 
L 4006 2547 
z
" transform="scale(0.015625)"/>
    </defs>
    <use xlink:href="#MicrosoftYaHei-84dd"/>
    <use xlink:href="#MicrosoftYaHei-8272" transform="translate(100 0)"/>
    <use xlink:href="#MicrosoftYaHei-5706" transform="translate(200 0)"/>
    <use xlink:href="#MicrosoftYaHei-ff1a" transform="translate(300 0)"/>
    <use xlink:href="#MicrosoftYaHei-521d" transform="translate(400 0)"/>
    <use xlink:href="#MicrosoftYaHei-503c" transform="translate(500 0)"/>
    <use xlink:href="#MicrosoftYaHei-20" transform="translate(600 0)"/>
    <use xlink:href="#MicrosoftYaHei-28" transform="translate(629.589844 0)"/>
    <use xlink:href="#MicrosoftYaHei-31" transform="translate(662.988281 0)"/>
    <use xlink:href="#MicrosoftYaHei-2c" transform="translate(721.630859 0)"/>
    <use xlink:href="#MicrosoftYaHei-20" transform="translate(745.703125 0)"/>
    <use xlink:href="#MicrosoftYaHei-30" transform="translate(775.292969 0)"/>
    <use xlink:href="#MicrosoftYaHei-29" transform="translate(833.935547 0)"/>
    <use xlink:href="#MicrosoftYaHei-20" transform="translate(867.333984 0)"/>
    <use xlink:href="#MicrosoftYaHei-20" transform="translate(896.923828 0)"/>
    <use xlink:href="#MicrosoftYaHei-20" transform="translate(926.513672 0)"/>
    <use xlink:href="#MicrosoftYaHei-20" transform="translate(956.103516 0)"/>
    <use xlink:href="#MicrosoftYaHei-7070" transform="translate(985.693359 0)"/>
    <use xlink:href="#MicrosoftYaHei-8272" transform="translate(1085.693359 0)"/>
    <use xlink:href="#MicrosoftYaHei-5706" transform="translate(1185.693359 0)"/>
    <use xlink:href="#MicrosoftYaHei-ff1a" transform="translate(1285.693359 0)"/>
    <use xlink:href="#MicrosoftYaHei-5176" transform="translate(1385.693359 0)"/>
    <use xlink:href="#MicrosoftYaHei-4ed6" transform="translate(1485.693359 0)"/>
    <use xlink:href="#MicrosoftYaHei-521d" transform="translate(1585.693359 0)"/>
    <use xlink:href="#MicrosoftYaHei-503c" transform="translate(1685.693359 0)"/>
    <use xlink:href="#MicrosoftYaHei-20" transform="translate(1785.693359 0)"/>
    <use xlink:href="#MicrosoftYaHei-20" transform="translate(1815.283203 0)"/>
    <use xlink:href="#MicrosoftYaHei-20" transform="translate(1844.873047 0)"/>
    <use xlink:href="#MicrosoftYaHei-20" transform="translate(1874.462891 0)"/>
    <use xlink:href="#MicrosoftYaHei-7bad" transform="translate(1904.052734 0)"/>
    <use xlink:href="#MicrosoftYaHei-5934" transform="translate(2004.052734 0)"/>
    <use xlink:href="#MicrosoftYaHei-ff1a" transform="translate(2104.052734 0)"/>
    <use xlink:href="#MicrosoftYaHei-65f6" transform="translate(2204.052734 0)"/>
    <use xlink:href="#MicrosoftYaHei-95f4" transform="translate(2304.052734 0)"/>
    <use xlink:href="#MicrosoftYaHei-589e" transform="translate(2404.052734 0)"/>
    <use xlink:href="#MicrosoftYaHei-52a0" transform="translate(2504.052734 0)"/>
    <use xlink:href="#MicrosoftYaHei-7684" transform="translate(2604.052734 0)"/>
    <use xlink:href="#MicrosoftYaHei-65b9" transform="translate(2704.052734 0)"/>
    <use xlink:href="#MicrosoftYaHei-5411" transform="translate(2804.052734 0)"/>
   </g>
  </g>
 </g>
 <defs>
  <clipPath id="pb8c661340a">
   <rect x="64.8" y="63.36" width="372.38961" height="257.4"/>
  </clipPath>
  <clipPath id="pe68e7568da">
   <rect x="541.900519" y="63.36" width="264.754286" height="257.4"/>
  </clipPath>
 </defs>
</svg>
